<mxfile host="app.diagrams.net" modified="2021-05-01T23:48:44.784Z" agent="5.0 (Windows NT 10.0; Win64; x64) AppleWebKit/537.36 (KHTML, like Gecko) Chrome/87.0.4280.141 Safari/537.36 OPR/73.0.3856.434" etag="Tl4N5HSFMRE3X2d6RUAw" version="14.6.9" type="github">
  <diagram id="gBL7eTEsfLLzIXhej8cL" name="Page-1">
    <mxGraphModel dx="2441" dy="1846" grid="1" gridSize="10" guides="1" tooltips="1" connect="1" arrows="1" fold="1" page="1" pageScale="1" pageWidth="850" pageHeight="1100" math="0" shadow="0">
      <root>
        <mxCell id="0" />
        <mxCell id="1" parent="0" />
        <mxCell id="A-BzHaJAUe8YZKiwCgML-172" value="&lt;span style=&quot;font-size: 33px&quot;&gt;AC&lt;/span&gt;" style="text;html=1;strokeColor=none;fillColor=none;align=center;verticalAlign=middle;whiteSpace=wrap;rounded=0;" parent="1" vertex="1">
          <mxGeometry x="250" y="-50" width="40" height="20" as="geometry" />
        </mxCell>
        <mxCell id="A-BzHaJAUe8YZKiwCgML-173" value="&lt;span style=&quot;font-size: 33px&quot;&gt;KC&lt;/span&gt;" style="text;html=1;strokeColor=none;fillColor=none;align=center;verticalAlign=middle;whiteSpace=wrap;rounded=0;" parent="1" vertex="1">
          <mxGeometry x="960" y="-50" width="40" height="20" as="geometry" />
        </mxCell>
        <mxCell id="A-BzHaJAUe8YZKiwCgML-174" value="" style="shape=image;verticalLabelPosition=bottom;labelBackgroundColor=#ffffff;verticalAlign=top;aspect=fixed;imageAspect=0;image=data:image/png,iVBORw0KGgoAAAANSUhEUgAAA5IAAABiCAYAAAAiC+yWAAAgAElEQVR4Aex9B3AUZf//7bVUSEiIQEAgBGOQIhgFU4AUFEEJRKovnbwgGCA/FQhNihSBvygKyCsliIDUoFQZIaCgUmRAQASGkpChJBlimIRMkrm7+fzn2b2927179u52c0GUzUzmtj7P9/k83/qU72qg/qkIqAioCKgIqAioCKgIqAioCKgIqAioCKgIyEBAI+NZ9VEVARUBFQEVARUBFQEVARUBFQEVARUBFQEVAaiBpMoEKgIqAioCKgIqAioCKgIqAioCKgIqAioCshBQA0lZcKkPqwioCKgIqAioCKgIqAioCKgIqAioCKgIqIGkygMqAioCKgIqAioCKgIqAioCKgIqAioCKgKyEFADSVlwqQ+rCKgIqAioCKgIqAioCKgIqAioCKgIqAiogaTKAyoCKgIqAioCKgIqAioCKgIqAioCKgIqArIQUANJWXCpD6sIqAioCKgIqAioCKgIqAioCKgIqAioCKiBpMoDKgIqAioCKgIqAioCKgIqAioCKgIqAioCshBQA0lZcIkfri44g9xDh5B79jaq+VvVBTiTewiHcs/itu0if9O7v9T6vVvFv6s0at9Uo+BMLg4dysXZ2u6wfxea/5LWKOt/Vfb+Jd3vpWb8ffygjH+91Ox/fDF/X7+5hu5xpcs11f/mu6qcea936Vgq4nmqT+c9StWSPEPg0QSSlhIc+3IWZsyY4f5/1grk3rN4Rn1Nnqr4DV/NcqRnJmbOmoN5iz7F/zbtwc9XSuwBolNdFtxZngyjRgNjygrctZJsubMcyUYNNMYUrOAvOr3rjQv0+r1R8r+1DGrfWO5gebIRGo0RKSvu/lubrrZLCgGH/vdM86iyJwXnk3n9b+QHB/59MvFX2uq/sd9ckvy40uWS6H/3TVXOvNe/VCyV8TzVp/MepbVTEjX2cIxFhOezsPzwXXjmm9QOye5KfTSBpPkaFsUaoNFo3P8bOmDW7yZ3dNf8/v3VeM3HDT2MAaGtX0fm6hMoMjtWaUHx9gwkdOyIhPE7cN96+9ExNr1+RyrVczsC1L6xFGN7RgI6dkzA+B18L9rfUY/+5Qg4GDXPlLUyo/cvR/IJbt7fqIsd+Pef3wkmnF3aF116fojjtbyiB3hc5fhxpetRc9ej5AU3bfvXyZmb9tbmbSqWynQo1aerTdq9UbYnsYcoVjKg3cyzeARRkeLWPZpAEg9x5chObN++XfJ/68cD0cLAQNdkGHKKPXPnFLeavMh3pq4Res3fYqdr2zfYsPpTzP2/IUiJrgcDo4GGMaBJjyU4Ueq+xn8kY7tv1r/iCbVv/hXd6N1GOBg1zzSP6uh5txPU0hQj4MC/ist5XF60FODzJB9ow4bhu8raJupxlePHla7a7g+H8h8pLzjU7Xj6b5Mzx/Y9ynMvYvmP9OlssUdD9Jy1Hl9//bWb/03Y+3uJOiPplkfN17Di1XrQ6hqh36bbjwYwvjP1kZj4k8TQp+UvnFuXjvZ1tdAwOjTqvRY3nGYmxa2jMralEiW385B/74GLpbLicrx2Vl2GwoI85N0uxkMZQxqWimIU3C5BpWeetZfIrcaDu3nIKyhGuQxa6ZWbUF54C3kF921toPYN/WWHq9UoKyxAXt5tFHsMogkPiwuQVyAfQ9fYK6GFa46prBD5eQW4X0HpVFMZ7uXn4XZJpUfyV11WiIK8PNwufuilkTILKkvvIf/mLRTJ7PzqB3eRl1eAYpnvsag4GDUOGQsqS24jL/8eHlBVg4eOnqkcRbdu4oZkOQ5sBsBUXohbDn1UUXgTV69cRX4JlRjnQjy9YqlE6b183LxV5LG8VT8oxK2bN5B/t7RWddnjjoOnEDs/J1fHVaO8qAD5BcV4SLM9DvzrXN8jvKLQ1ogorPgOw8K0HgSSJpQX3cLNG/m4RxdSUbHsiakchbfyUHCf13EeyrGCdtVMTmqPLlQ/QCGrk+6i1BvqRIEO4TvGrd72mBcAb9tMm/7hHSAP5Uy+XazGg0KOj+96pUN4dL3xq4A2T2TFQyydW6DQp/OEJofKaia/DoU5nnoSezi+4+68+gHu5uWhoLjcS/6YuwrF9x/RjKS4UvGZGTdXv4H6Wi3qv7EGeTRjKX7BO2ced6YF975LR6SBgUbbEG9tK7Y62hbc3zkBXePikDgxh7K0tRtW3s7HvllpaBdmBEOmqhkt/Bu/iLcWHbHtqeQaY8GtjaO5sqYcgPNALO0+vX6uvGrkH1yEEV2jEOqj5erWMNAHNkbMmzORc9WhBksxdkzoiriENzD/5xKc+rgXIvy1YLQNMHKPw7NO6NNoEz4kcb8kB5mJcUjoMRfHqspwbnU64poEQEdmgDUMDEEtkZy5GZfdVS+sihxbSnByZTrimwbayjKGtkbqjN24cYuyf9VyHztJ2+MSMTFHvLS1Ov8gFo3oiqhQH2hZujRg9IFoHPMmZuZcpfQTX/9/0SWiLvTsbDYD30YvYegnx1Fc9SsWpiYgrusYbCywBnMeYi+XlpKcTCTGJaDH3GOoLMrFvN7RCCY8rNGAMT6FF4asxG9lAKpvIGdSN0TW1bN8wmh90fDF4Vh1htx0+KvOx8FFI9A1KhQ+Wq4sDaNHYOMYvDkzB45s5fA2/bTyBvbNH4KEyGBu9p/QpwtgMZ6+7RLKRW+VICczEXEJPTD3WBXKzq1GelwTBOis7TIEoWVyJjbLYRqBUeu28jby981CWrswGK18qPVvjBffWoQjov3Orhw9C0rPbcD7qR0QHqCzyZ7WNwytXhmL5ceLKIG6BSUnVyI9vikC+bYYQ9G692x8f7scO/9TD1qNAbGLrlrRkJApG1au71fe2If5QxIQGWyw0acLILphOrZdEiPOFmkqwKHFpN9DYLT1OwNDvZboPHQhDuR7wyMlNT3mONjwdTyQ0MU10XFlF/HNlN7oEO5v1T0MDMGRSPzv5zgu3Gch4F/7Hm/X/U9wFtsbM26uT0fX+Hh0Tf9K0gZb7m1FRmI84rqMwJprvKGWaWscobOdV+HwzG6IfykSwVoNGEMDPBcbh7j4HpjzU5XtKUvpOWx4PxUdwnlboQHRWWGtXsHY5cdRRBkjs5ScxMr0eDQNtMojY0Ro61TM2H0Dtyh5DrjKFLTLa3LiSr8ooAsmFBxazPoDIUa7P8AY6qFl56FYeCBf9qCQPB0iV2+74YVaspmS+id1BnbfuCWdS0GBXTQVHMJi4luEGO2+BWNAvZadMXThAXiiUs031yO9azziu6bjKynH2XIPWzMSER/XBSPWXLPJkasD+bTJ5EkJnUXzp1k65fp07EsyaSLveE1+XaErWA3pahLLRRFC366q7BxWp8ehCe9rMAYEtUxG5ubLdP/URbk1ufW3B5LEOA0K14Gp2xUf/1njaSjPsfA4kCT+zT181ScEWg2DgFe+wG3WWNGVvX3WKwlvj20Hf//G6NhnJN6ZMBaDu0UhmDhi2rroNPeUoKPNuPLRyzBoNPBJ/crBeSZNot2n18/u+9gxHC2MDBhtEKJSBiNjUhamTByJHq3rQccw0DcZiM18IMMiVowvu/tAwwSh79zpiPHVwje0OaKiYvDeD3YjTgeXRpvwSYn7pWvR00cDJqAPFiztjvoBTyP2zXRMyByPUakdEEaCHsYHbbJ+gTsK7LWZ8MeyFIQSR0Qfhg59MzBj9ixMGd0LbUP9ET1sKOIcEyFRlRpgubMDw1sYwTBaBEWlYHDGJGRNmYiRPVqjno4Bo2+CgZsLHIKCalxYmoQQUr+uHtr0Go3J06dg3JsxCDMEIW7WTKQGMtAYk/CZDX/32CuhpXRtT/gQfu09Gx92DkGDDqkYlTEBo/vHookvwdaAqMzd2DU2CoGNYpCWPh4TRvfDy419wJBAPvp9HBcCb7mDHcNbwMgw0AZFIWVwBiZlTcHEkT3Qup4ODKNHk4GbYWuWvVOkjyp/x2evhUPPMDCEtUfa2KmYPWc6Mvp3RLgP4d9QJC0+gwpbCaVY25PwaQD6LFiK7vUD8HTsm0ifkInxo1LRIYwERgx82mThFyHttvcpB4L+T3p7LNr5+6Nxxz4Y+c4EjB3cDVHBxPHSom6nuThlG9SQkj2g9Og0vMiuYDCi0Uv9MG7qLMyemYmhiREIYDRg/KIxdk+hiG9MfyxDSihZ9aBHWIe+yJgxG7OmjEavNiEIeH4CxncjfWJE0rICawMkZMrWPOn7lb9/htfC9WAYA8Lap2Hs1NmYMz0D/TuGw4f0bWgSFp+xIw6U4ocJ0fAleiO0LXqOyETWjBnImjgM3Z+rx/VdZDp20zx4Gz2eHTzeOLhqgwQ/KNVx5SexoEsoa2/8mnRCnxFjMe6//dElIoDlb/82E3CA3/4h4F97ICnd/1wrnO+bLy1AJyJzxpcw7w8+SBS22YLbq15FAJHV9rNwjjXVFtyRbWuEZQqPq3Bwchyej2oIPyInhhC0aPc8nm/fBdNzrcJcehTTXqzL4mJs9BL6jZuKWbNnInNoIiICiE7zQ/TYPSgUBpOmP7AshcNSH9YBfTNmYPasKRjdqy1C/aMxbGicU8I8ZTbUm3IiwU9kT6cCvEt/mIBoX2KzQtG25whkZs3AjKyJGNb9OdTTM2AMkUjfTRvgEvaP/ViJDpGnt93xQu3YTEn90zYU/tHDMDSOkpRPiV0s/QETon1ZmxnatidGZGZhxowsTBzWHc/V43RzZPpu6qCIvReIW3gJCzr5gGGMeGneH6BK7e1VeDWA9HF7zOKEVlSE04ls2hTwJFVnSfG8Ap9OkZx4U36dUBVfkBN7iN9kz2y+XZ8FWNq9PgKejsWb6ROQOX4UUjuEsQPyjE8bZHnsBFEqkXnpbw4ky5E7IQoGxoh2U08IAiuZrVDyuMzO/GtjGoKIgQsegK3soD2d8W2BJGOAsX48Zv0i3FhZgXOLEtkRV21wb6y3Zad1NuziJtHu0+uH6RSmtjawyqXDtBPioLTiLOZ28mOdyNZTTwlGIUux7nXioOvRuFkUXszchwKPJxlotAmpl7hfth5vkGRH2kAENU3GotPCGbAqnJ8fC39GA13TcTjkaVBQsg2DntJCow1G8id/iALQ6itfIjXcwM1SCjPqUpWaCaemtoaBYWDsMA0nRJM0FTg7txP8iEPVeipOCXCyFG9Gv/pc/YmLzwv42Yzbu9IRFRQAP61jRl932CujpWz9G/DRaKANCEL0W5uRZxujMeP6smTUYTTQBgYjJGokcm7bTZDp6lJ0JU6Zw2iZ6dRUtDYQR7MDpokBQcXZuejkR4xVa0wVAiJkA6djEy7M7wR/gmPEYGyxE8jOTN3bOwbRZDDEPw6LLvH0lWH9Gz7QaLQIDGqK5EWnIeKa8/MR689Ao2uKcZ4yja3/GRiM9RE/6xeIJPbcIiQGc33ae/09ayskZK/yF0x+jsieAc+O3gObeLNvPcDxaTFse/Ut3sGhhzwgJdg26CloNVoEJ3+CP4S8XnUZX7zeCAZ2llKYVVhCpvgiqQNPZMT1AuZ38mfpixi8RcAT3GDZ3jHR7ECBf9wi2CAvzkavOgwY31gsuCgkjsxmX8ea1AbQMj5IWOLZaLeNRKeDxxwHJ3qFFyT4QZGOq8ZvszqwQX3gS9NxXMiMpccxNYbT31HvHuP0i41/a8gflnys6BYIRmNAm2mnnZdHWQqw8pUAMIwv4hdf4ZxWRbZGiJvzcfXJKWil11CWtlbil8nPsTrZ8Oxo7BELFx4cn4YYfxIstcA7duFCybZBeEqrgTY4GZ+IhKsaV75MRbiBm6UUZl5XZEO9KicS/KQI72Jk96rD9lvsgosimwhU4/qaVDTQMvBJWALbJLNzt9ivKNEhUKa3pXmhNmymC/1TfQVfpoZT9DCgxC4WZ/dCHYaBb+wCOKvUNUhtoAXjk4AlbjvEgvwV3RDIaGBoMw2nbTae7y4LCla+wg7++MYvxhXejPK3Kb+yaVPCk1SdJcHzSnw6JTR5VX4pwAovyYw9hK+SY5tvFxiEpsmLIHadz2N+rD8YjQ5Nxx1ykHfHkrx3/rcGkubL/w+dAxnowodg533hMKL3GihZkszONJ2bhfYGDTSGjlhwmUgknfFtgaRGj2cyfxQEE1ZKyvdgZLiOnf1L+7rEelGJY0ivHxVnsWn2ZEwYOwNbrztqDjOuL4lnZz6NSZ8JZo/KsL4XcdA10LXIQK5wQkISQP6GEtpZaUAvEkgyBsTMueDkuJgvzcNLBG9jMpbf8Yw3HmwdwM4G6sJHYo/NUefpNOHcB8+zbRd9moWq1CpwdtNsTJ4wFjO2Xnca6TNfX4J4ljbhzCJQ+k1/dpBA13gU9oqCT0LDfWwb1ABassRZGMgSI+sSe2W0lK3vxQaSjG8XLHXgA/P1xYgj9DP+6Lbilmh2DOY/Mb+jgZ0N7rn2Lx48VJzdhNmTJ2DsjK1wKA4wX8eSeJKV2YikzxxnaW1FiA+qjmJ8Cx002nros/6emAbypKUIG9LIkk49nss6aX2Xx4qBIWYOLjgaTvMlzHuJoyN5+R1xfVJntv7XQP9MJn60zTryL5Rjz8hw6DQMgtK+tl6ky17F/nQ01mnABKUiWzQtYn3tr20YFEaC0qcw7Fsrgz7YigEh5FojjNjtxDQwnZmBtqSvRJ+nUSZzVUfHo4VOA229PoJBLL6dBPINSKunhUb/HLJOciMkpt85vadtMBK0Ve6mwqu4cO2ex3ss7bU5HD3mODhQ63BK5weUrZev46oO451mRC6ewpCcBw71APc3pCGsTggad52HM4T/bfxbw0ASFhRv6svqT33kRCc5sNxagRQSqAW+ii/4ZQeKbI1Tk0QXJIOHiv1Ib8zZzdRs8Yw+V8Bf2DYojB2QeWrYt9YyH2DrALKSSIfwkXvgbBLO4YPnuWzyokBSQbu8KycS/KSALph+x6z2BmiktqmYCnH1wjXc83B/uRIdApuNk6e3JXnBVp6Uv6LAZvL6RxeOkc7OA0znPsDzTnoYCuyiCb/Pag+DRosGI/c4+4cwofDqBVy759leN0vxJvQl9oMM/DoaL8strEghA4eBePULT+yyAtqU8CRVZ9F5XpFPp4Am78qvSKU5n/Cxh/YpdJu8HF988YXL///tPItSgQts8+0MMZjj7ATh0ryXOB8/eTk8dJ2daZR55W8MJB9gX3pT6BgfvDj3vFMgIbMd8h/nO9Nh5kWqIPON/4cEokgMbTD9N9aCu/6OpLYR0vc5eaVsQLG6hy8YjR7PTvrVWp0Sx5AueFL089d5JhQ74ryDrkVDqnLj36b9KqFdEEjqo/Dez4JpPb6KkjXoQQJNQycsZAN3/obUbzU7i6gnSxu7/w/FlMeqct9BM51DIEdVapSXhZd4B1EkyNU4mfUcSP1+r68DP0QgfK18x1vsslt6IKkEewGOIlrIqBUXSOqjJ+OEI7z8TImhHWaw3qiQyvv48jUyqMAtpRToL+FDDsc8/9AHBRweZk9NF2bjBYMGjO8rWEULumDB3RUp8GE0MHZZai2Cr0ePqPd+Fsyo8zWUYE0PQrsBnRZe5i+6/rX1vxaN0vdRDDtJ8NwDvowG+mcnWcuiyZ4Jv01vyynwxGW4RQPOUogvXiHLVLlZH1JYNZnp1WvA+HTH/4oopFYdwrimOi8EkiZcmP0CDBoGvq+sEi//46u13MWKFG4ZbZeleexVS1E2etUly/FD0HnaXtyQNcjEF+z+93HHwXULaPwgkE0ZOs503ioXPq9KyIUDJTb+rWkgCaB8L0aRYE3XGOn7hIMaFuR/ngR/Rot6aV+7X3JnJZHXQWJb40C/w6lU8GD6bTo3oGJMxDK6cKHwi1dYfUFmZ9i/arI6R88OinX/H9UiIPedZtA5fAvagSSnU1q7vCsnEvzkRIn4Ao0uMiCX3asuuzw/pPM07K2RACvTIfZAUp7eluIFe3nes5ki/UNllVxugEc0oCfG3/mMt1dCu2hBUXYv1CUrgkI6Y9reG4KtG84luL9Sjr2jGkOn0aFx+j7RCjRL/udI8megrZeGrz3aeuBt2ux+iEgHUHUWjecV+nRuQKPJiXfl1w0BfOwh+sSH9KcIDR3n40/BnBBPvz7qPdBd5x7sJIKh00J45Dq7IdeT239bIGm5tQrd6zJggt7AWlEiC0/I9sIzfGd6GEiaLsxBDBtIvogP2T0kNMYnA8TWhC6Gjpgv7H0byZXYN6oRO3IaMmSX9aqSYIxeP1egCYWnt2Dxu8PRJyUOMW1b4dmoZ9CyRQSahpFpbw0ML8zGeduMjl3hvTDbeXbQRjr1QAntAifL8DIW0tZc2II1KRwdianEriFkL4wWDUbQRvoA89VFiCV9KJwRpCo1K4qFp7Fl8bsY3icFcTFt0erZKDzTsgUimoaxy241hhcw2wYiX78OTcYcpC4pMF9egI6O9dtGVw1whb1JFi0CBf7yR85LWiq+Rm82SO+Mj28KNBTbbOs+RI0RXT91mK00FeL0lsV4d3gfpMTFoG2rZxH1TEu0iGiKMLKkVEPa4NmgUOXu4Qgje0n926H/pCxkZTn/T+rfjlve3DzD2tl2Pn15oXV5nYgN7Pc7zv9TdEfyxNb/BpB3HNEg71XuG4VGZHlcyBBrMTTZq0TOYDL7oUXYsO+oASlQib0jG3KyP5iT/cpdQ9jBBakZP5ivWr/BW9NAoRK7h5MZGwb+7fpjEgXvrKxJ6N+OWxbTPOOIta0PceLDeNQjS7LJ3tngSMT2Tsf0ZVvx0/UHVLwksXZx4/HHwQXxEqtTbDOSMnQckQt2KWaDEdQZYCcqbPxbU/4gJVfh2LtR0BMeHrQNtvUI5jwsS/IDo22IobscZ0nl2hqnFoguSAUPlTmD2dlSV58Fqdw7Eg1ZOR3MlVm5C0PI3mNtA4ygTafDjKuLYrnBn5QVDgnw5LbLm3JC0y88THLpAh6e+BDxZKUBSWRmCEZkbG+kT1+GrT9dxwOawuOrcvpVqkPselmO3pbiBXsg6T2badc/EnJH1cNWgOTaxYcn8GE8WW3DrcgKjoxF7/TpWLb1J1yX1yEsAVXH3kUUuxx8ELbZhRZ5y5Lgx2jRcOguOEqtU9fyFxTRJpMnqTqLxvO8TyXTp2PbIpMmeFN+eTAlfvnYQ1sfXcbNx8KFC13+L/7qV5QIBqb5QNLw8kJn3451rblJBMcAVIIar1z+mwJJMy4vioUPo0X9gVvtBssrTfKwEL4zPQwkH+4agvrE8Q3sgw3svhUa4wsCSZJQhcvK40BQFXIzmrNL5QL6fmO9pyQYo9dPspYe/SAB9fUk+YAedZu0Q1xKD6Sm9UW/AYMwIKEp9C4CSZIZUpZtkdqPZWu1RNtsgWIsFtH2AtjuexpIVmBzmnVt+Fj62nBLwTIkeZRsx4KSox8goT7JZMpAX7cJ2sWloEdqGvr2G4BBAxLQVE9mS4WBJF+/Hs/83zHKbBnJ2bQSKY71CwJJOvZKaBEEkrGLnPe+8IGksQs+yRNoKLbP6IGkpeQoPkioz2aiZfR10aRdHFJ6pCKtbz8MGDQACU31sgLJii392H2axLlx90+cR+7P7pDELrpG4VP7ffmBJFmWS//0UFVuBpqTJasBfa100GSvAhvT/Ni9CU9L8B9x1HPf4WTfP20zW1bF5jTrXuCx9L3AlgIsS3JM8iAhU1bq6Mm5KrClXx1rllZ3mHPBsK04lOPSjtn4T3xz1LFmlWWdUm0gmiW+jVUn7zsvTba/7NHRPwMHqabQ+EE4WOa5juPlQtdUgh8cSaA6ZUr4gyvY9DuZEWXABKci27oP0XzzE3T1ZaBrNhaHhDPSimyNYwPE51LBQ8XGNDYJj+5paVzIihNWTv3TuEIrNiPNumd6LHXPtAUFy5Kck+0obpe35ESCnxTTBZRf2oHZ/4lH8zp8Jmkui3xgs0S8veokPNtZpFSH2PWyHL0txQvCQNJbNlOZ/iFJ4hXaxfJL2DH7P4hvXseaXZ4bqNMGNkPi26tw0rMO4YUWs18ge/ODkZpt3SZivolPuvqC0TXDWJHQiuWNeiaHNiU8SdVZNJ7nfSodmkrYVLpPp8QHJkh4S36pqNovyow97C9yR7ZAkubbPVGBpPlPLOxkBKMNwYCtwmwCjpDV4rmszqzAD2PJEhgG9uliGuMLA8kuWOrkpJP2VOH70WQpghYhg3OsDVRi+On1V+SORyTJxGZ8BoOzL4qSkZDKyr+yjlZIzEjSFb2rflBCuzInyxUVQAW2Dwxml/CEp++nzwh6OiNZkYvxkSR7mhHPDM7GRWFGFw5Ebu+TQyC5bUAQG0hEZByh1m/JW4ouLgNJSnCkiBZvB5IVyB0fyWboND4zGNnOgOArdp+njBlJfiYurD/WXryCK1ek/69e55PcKHNIXPKNwKiR5ZyOYTV5t+r70ezeR22IdaaDOgNF+I/0vxYNR+2VmJGswoF0br9l8KAdLFkV2wcimCxzCk/HfodcNuwD5qv46GVu32dNsnKS2VB+xj6s/1pcdIH3lStXcf2ecGmjHcGK22ewb+0CZA7qipZB3CdjtHU7Yo49pa39YRlH/zQcxE2j62L7jKTngaRt5q3hSOyl7YwQV0wMDuWzBAp1MinbfAOfJpJ9VQF4ZSXZV2XG9Y87w5fRI3rSr6IBMmW2xrEB4nOp4IHwB0l2p204ShKXqgPpCCcDPsGDuEIrtmNgMFmWHY50unBRZyS90a6ayQmdn7xBFypu48y+tViQOQhdWwZxn6jS1kXHOcIs8uI+sZ8p1SHK9LYUL4gDSe/YTE/0z6JYRz3sDbtYgdtn9mHtgkwM6toSQWQCgGQJ7zhHkCXc3gP0IzNufJrIJnILeGUlm/vCfP1jdPZloI+ehF8dt7bQC6FcdU+bIp6k6iwazyvz6RTR5ND6msmvQ2GOp7JiD8eX3fh2T1Igacn/FF1JqnH/HlhN3R/lDJ7Xr8joTPPNVehBloYwfkhYwi+pozG+IJDUt8IUp81ppBVl2JhG0rjr0TLzmAehRx8AACAASURBVLVZZlzlP//xRrZT8AeYcHpaG3YJjv3zILT6q3B0Qgs24K2buh58hng7dmZcsy7lkVraqiSQlE97bQSSVTjM7ndh4N97A3UpR9URbmbJ3dLWqqMT2KQkTN1UrHcGEeZr1iWyokCyCj+83YTFngQJwoF7Hn9Sf4TjHk3RjKSzUVRGixtlI3dGsuooJpDEOExdpK7nv6PKt4o4n9esyy89DyRte1L838A62oZSQfH2Q2UOif19ypHNqOnRasoJkaPMP122MY39dIe+Zab1Ek32qvHze2RZIAPf7l9S9+gCJVj3Opm15PYKkcKqDnP7dhn/3viKtv6o6jDGkeQror05SvSFfb+J/xv0Pbx8ez39NRcdw9xEbjl5yMBtnr5Gfe6fjINU4jUlgWT1icmIdrVn1hE9G/+Kl7Yq0sls2Rbcy05lP1Pln7wct6qvYkm8DxhDjGAZP3lQqa1xbID4XCp4qP75PXb5HuPbHV/S9rABKFn3OjtrSfYOsX984iLGH703UIULR9jVQRrYk+14v13y5YSmX7xPF8xFODY3kVtaHzIQ22gQibpHqQ5RpreleMFdIKnEZgr1D51VjiCjuYMe9rpdNKPo2FwkssuxQzDQfYfYesdyLxup5FNV/slYfqsaV5fEw4ckMvRwq4mtIMkDGm0KeZKqs+g8L9+nU0iTZLsB+fLrojByS0bsQStJnZG0olK6+U12dNH+PSoaXLV8zcPOtPx1HLMTgtm9RfoWo7HPtgadxviCQJLxQ8pySqas6l8xKZokAPBHj9V8dg2yxCaRW2LT5RM4TWRa7mBVdxJ8Cr8zSaufnxUhQepPzk6x+TIWxxNHVnqPpPxAUgnttRFIWlDweTKbbIG+CdmMS/NeZINxd4EkP/pNAoefnEbzzLi8OJ51WMRLWy3IW9qF/ZC9OEjn+Zg3wg57NN0Ekspo8XIgSUb2g8gnQVoi0xkQmC8vRryfvD2SKN+FoeRTLbpwarZSgprp5gkcuVgs4GNlDgnfA9Rfm1Fj4JeyXJDJmH+6Gr9OimYDRP8eq60XabIHkAxzZC+httEIUBKwAhUHMLoJycgZjP5bOK/Ncns5kn0ItlF497gTs4FPSiQOJJXJXPmuoez+O124BH0w4eaJI7hYLKaj6n4+7pTR5mqBih1vsW0m+zVq8vdPwEG6fXR+UBJIomwbBrJZfBti2HfOs8KmiysxrHtP9Bn+GffpIRv/CgNJZfxha19pDoY01ILxS8InP8xDRyMD384fOyyRV2prbLVQDySDB5JVkwzmSmQ3JitSDowmA3laBPffwpVtKcDnySR5lESSF5Ll+UXHrK3K2+U9OaHxk3K6UHUf+XfKqKstULEDbxFcpfbxOvSSMh2iTG9L8kIt2ExLwec2PUxL/keyyL9I8hsIB/QU28Uq3M+/A7pKrcCOt8j+SQPIflLP/0qRM6QhtIwfkj75AfM6GsH4dsbHtG1DLguVQ5tCnpTQWXeWJzssM1fi0ymkiQyNPQI7x0LvYewh1U1qIMkiw30Xj4zc13lzsyjLlDNwZuRtn4rBgwZh8LSduCVv855zccIr7jqz8jZObJqJ3lFcAMfUicGUI38JlDFN2QsCSZI9tP00/OqQc/yvA2PQgow4+yfhszx7gyqsezC1oW9ioyjDlgUlhyeiNZnBdRtI2kdj6vRc7ZA8oBxnl6Tg6dB6XAbKVlNgzfDPzpJyn6AwQH4gCcinvTYCScD85wJ0MpLvCDZH+h7xvi1L0W6MiiD7+BwCOYpSs41o1umJ1Q6JoMrPLkHK06Go50uc/1aYYgcRprMz0Y5kIjW0weRfxHOSpmur0LMB5TuWboyiUlpcKhvFM5J10HP1XYEMkLXSZ7Ek5WmE1uMyEbeaclIQ+AkFzvG4HN+P4ZaL14mbh7NiuIDqy1jePRRaJhBJy25YX1bmkDjWLDq39T/JnNoe05wFFmNacAM/SZ9xmUwlZ6BKv8VwkvVSG4yUz644ZKI248aqnuzov67REOTwA1LmP7GALPPX6NBs5G7xXiXLPewc2pTNKilyYKBQ5sq/xxgyu8nUQdy8s06z5tWXl6N7qBZMYBKW3SC6qRonZ7aHn9aA1u8fo6yUMOPyR2SvO4M6fTbYYLXc+RYzhwzCoMHvYdNVu46zPUA7eKxxoBEsvEa3BYoCSZRi1zCy/FmLoK7/D3+IYvpSHB4fxS4xD0j+HKz5sPGvMJBUyB+2JlUiN6MFdIwRkVHNoWfq4LX/Oe4fVmprbJVQD0ynp6EN0aGBadgkiqNL8e1wbktIcMpnuGJLFMcVY76xCj3JTI6uEYbYhQt/LujEDu7pmqdjj2jfmQVFu0chgux1F2VtVdIuZXJCBYC9SOMnJXQB1Sdnor2fFobW7+OY4xYNspjk8keIJb5FnT7Y4MnKENk6hDRImd6W5gXX5SmymQL90zx9j4MeLsLuURFsbgmRHrbNSMqwi9UnMbO9H7SG1nif3iH4KNYHDFMHfTzqEDsXVeZmoIWOgTEyCs31DOq89j9Q03TYXxEfyaZNGU/Sl+PTeF6JT6eEJmXya87bjqmDiZ2bhp1yghN3sYe4V5zOXPp2rGv9RCTb4UcMdJDaS2ZHzv7tP/osj/1J2Ud8ZzI+eCrqeTz/PP/fDm2imiLUj9+UzsC/ZW989GOR2IGm7pMCLLc/4xK6GNqha8JTCE94Gx9/cwA//nQYOz/PQEIDsvfOgBZj9os+fI77WzGQzNAwejToPB6fbvoWe7/bgi9m9Eeb0EgMHkEycGngY1v6She8h4fGIYLskdQ3QtKkNdiTexh7Ny/D+72fQ3C9RCzaMpULdnw7YsaxAhSVEg/etWJ2i61s2msnkITlHrYMbMQuL9WFxGD4gnXY+d0ubFo+FWmtghDW7XW8TGZ/jEn4nP/ADs0Re3gI4yJIP+nRKGkS1uzJxeG9m7Hs/d54LrgeEhdtwdR25FuLvug44xgKiko5p9ych//1IKOJDAxNuuH9VTk4fPQQdq54F92a1kX08GGIl7tHUiEtLpWN3EASD3FoXATrwOobJWHSmj3IPbwXm5e9j97PBaNe4iJsmdqO+7RExxk4VlAElq3cMI7l9jYMa2Fk5aFBbDo+2rAHh4/mYs/Xi/F2l3D24+O+0ePxvc3Bccen9vueJ9u5jc/YZDYGtOuagKfCE/D2x9/gwI8/4fDOz5GR0IBtt6HFGOy3beemyx5JcnMzOw3hOgaMbwR6TF6FnMM/4aeD27Hi/R5o4UfksjHS1t0QJAqy4N7WQdw72hDEDJuPdTu/w65Nn2NK72dRN7wHelm/jWnfI0mWx8jVF6QzLLi9bRhaGBkwhgaITf8IG/YcxtHcPfh68dvoEk4SNvgievz3ts/XmC4uQZcgLRhdCNoPmIplX+dg/8GD2JfzFZa+9zpakm8LGiIxxr5UA+Y/53PZifXPYtIvokjIBUc83ji4IFzym8LKAknyWdY1SG2kY+WicZe38dGab7Bt0xeY9Z8OqEd4y/95TP7RGhXQ9BchVhF/2FvJfW6DrDIg2Yr7YtN9+z3+SJmt4d+m/1rurEA3MkinrYfY8SuxefN6bP2F+26k+WY20sIJLr6I6DEZq3IO46efDmL7ivfRo4Ufq68bp60DOwZiLd5ybwsGNiKDJzqExAzHgnU78d2uTVg+NQ2tgsLQ7fWXuU8MJX1u++aaknYpkRM6AuQqXb8ooQumi1jSJQha0v72AzB12dfI2X8QB/fl4Kul7+H1lmQ/rAGRY/Z5mPRQvg5x71/Q9bY0L9ifpw58K7KZFtzbMhCNyB5bXQhihi+w6uHlmJrWCkFh3fD6y9ynkZI+579RrMQumnBxSRcEaRnoQtpjwNRl+DpnPw4e3Iecr5bivddbsnsdDZFjBKvfpDlFdMf0G6a3NXAJ1bQh6EsTWtELjifyaVPEk1SdRed5JT6dEpqUyK/t26KiLU6OmFLObbGHESHNnsWzz7r/j455Fwese+Zd+nZPTiD5l+1bb62nnXYYtXcE/REEkk5ZIxloDb4IavgMYl4diqmrDuOm42wJSyad8fmP1ZMN/9tu7kdWl0bsiCg7E0bSb2vrIHrgSpx1mKkkTmjejrF4oR6XwML2fEAUBqw8iyJrchLjK19YvwFHrx+WYuR+0BUNDZwTwJXDwK9ZD8z7sRgW0+9YGFeXSz1NZjh7rUdZTQNJ2bTXUiBJTHDJMXz0egS39JTvW8aAhp2nYP/NbzGcBOuGeCy5bp0pkVBqxbkfoGtDq1K2lsP4NUOPeT+i2GLC7wvjUJf9JIIGGp9eWG/z6/Yhq3MjGBh7ZkzGUB8vvr0Jlwu+wCtsIPkKvrDtDXZjFMmHwhXQ4lLZyA4kAUtxLj7o2lDULrJnuFmPefix2ALT7wsRV5dLMa/R+KAXD4ijSDucV9/YhamvRSJQK+RXTk5a9pyB3XnCQMQdVvb7HgeS5utYEk8GBYIxaNtN7M/qgkZkVtvGO1rUiR6IlSKBlZA9tm3lOJ89Bi83IrOMdh4gn87wezoJEzf/6ZyIx1KCYx/1RAS7PJh/h4GxcTfMOfIHVnRzzNpKKpKrL3jgq3Fj11S8FhkIrYBHCX3aOi3Rc8ZuiCAn3/M8PA9prYK5xBzCNjFaBDRPwbtbL4vaZA8kn0OWYMaep0Dy97HGQZJqScdfaSBJanp4fh3+26mBg7xpERDRHTP23bIPRFD1FylBKX9Y22m+gsVxZJWBDuHDv6PMRpNmK7E1rnAkZd7DzpEtBDbTgHYzz9r8hPLz2RjzstimElll/J5G0sTN+NMpQZEFJcc+wusR3JYOXq4ZQ0N0nrIfN7/lPrdiiF8C3iQoa5d8OZFGQkK/KMTbcvcw5qW1QjCbyIXXL+SXgTagOVLe3YrLTrhJU0dWKsjTIXa9TA38BP6HSG9L8oK78pTZTJLx/thHrzvpYUPDzpiy/ya+Hf4Uu+Q0fsl1GziK7KLlLg7PS0OrYLGvx/KxNgDNU97FVnkdYqXHjCuL49gVZ7rw4fiOMgNtI1zqQC5tSniSqrMkeF6RT6dEL8mX3xoHkkJb6uaYqTsA26xxiEvf7skJJKU4+N96/SEKTu/Hluw1WLcxB0f/LLE7AZQmW0qv4fjuzcheswZf7TiMi0VCR1r4grTgkafK837Fns3ZWLNmA3bmXkChMCNk2TUc2ZqN7E05OHieG+0Vlqz02HPaldbg6XvVKLpwGDu+Xoc12Vuw/3QBnOJ2T4oqz8Ove7i+2LAzFxfEIOLaka3Izt6EnIPnHT7wXoGCU/ux5au1WLtpN365ye1PMV9bjDh22dab2CyXIMW0eNJQT58pR96ve7A5ew3WbNiJ3AuFouy0ZdeOYGt2NjblHMR5W6DsSdkWlOWdxIHtG7Fu9Vps2P49TuVJ7OnxpLgaPvOw4DT2b8nGmnUbkXP0T5R4uDpTVG1VIS4eycHGtauxdsNW7P35GkrdlFNddAGHd3yNdWuy8c2+U7hFeIRqdO01KZY5SxnyTh7A9o3rsHrtBmz//hTy6Jt2rJVV4u6FH7F7y1dYu3o1sjfuxA+nb0p+h850fhY6+L+Mj2jfiLWTTz16vHGgklxLF6tQeCEXuzavx9rsTfjup8socVjS6a5ixfxRfZqb3dA/g8wfXUcZXrc1lr9w6eA3WLd2PTZ/exR/ONnAKhRePIKcjWtZ3t2692dccy9cuHB4B75etwbZW/bjdIF7BaysXfLkxF3/0e4rowuovHsBP+7egq/Wrsbq7I3Y+cNp3FTw3UIbTbJ1iO1Nzw/c8oKLohTaTKH+2bL/NNyzikK7WHkXF37czfoJq1dnY+POH3D6Zk2+zVuN09PbwsDo8Uzmj6LBPRco0W/JpE0pT9Irp12V79Mpo6n25ZfWun/6tb/pO5L/dNgeB/rNuPlxAvcxZdss5eNA1xNMw8OrOLRhORbOWokjov04BBMLijakcYlJOszCeZkO4ROM6pPddDeB5OMJjgX5y5MR2GQ0vhcOYNWE2H8kDjVp8N/5rgW31qWivpaBf/xiXHYzAPJ3UqrWrSKgIsAhYLm1Dqn1SebWeCxWhVZli0eIgBpIPkKwvVvVfWz/T0N2P17wwO1OiTO8W5damkcIVB3He1Fkn5kRUSO+wVXBkuiyC2sxsAW554+4jy65nJX2qC71oScDgX9iAFV2FJnP+iH6/Z9rNiou7OF/Ig5C+v8xx9XI3z8FseRTAoaWGPeD229C/GNaphKqIvBvRaA6fz+mxAZDyxjQctwP1M+f/Vvbrrbr70dADST//j6QSUE1fvogEW0iw9gkASQpQe/sOw6JgGQWqT7uJQQsuH9oMmKCyF5BBsaQSHSIjUends0QTPasMgY07vkZfne9UsxLtKjF/CsQUAMorhtVHGqXnatPYF73F9C2ZRj8yH5lbRA6fXBcdUhrF3W1dBWBGiBQjRPzuuOFti0R5qcFQzI9d/oAx9Wxnxpgqr6qBAE1kFSC2t/6TjV+mZOIqIjmiGzTGYM+PIACdenR39ojjpU/vLoXSycOQMpLrfFMRARaRndA516j8EH2r7inLml1hEs9d4WApRDrB7ZAkyYtMOgr/ruzrl74l95Tcajdjq3+DR+9Go2IiCg836U/pmz8nZ5gp3apUEtXEVAR8BiBavz20auIjohA1PNd0H/KRvyuJMGOx/WpD6oI0BFQA0k6LupVFQEVARUBFQEVARUBFQEVARUBFQEVARUBCQTUQFICGPWyioCKgIqAioCKgIqAioCKgIqAioCKgIoAHQE1kKTjol5VEVARUBFQEVARUBFQEVARUBFQEVARUBGQQEANJCWAUS+rCKgIqAioCKgIqAioCKgIqAioCKgIqAjQEVADSTou6lUVARUBFQEVARUBFQEVARUBFQEVARUBFQEJBNRAUgIY9bKKgIqAioCKgIqAioCKgIqAioCKgIqAigAdATWQpOOiXlURUBFQEVARUBFQEVARUBFQEVARUBFQEZBAQA0kJYBRL6sIqAioCKgIqAioCKgIqAioCKgIqAioCNARUANJOi7Uq9UFZ5B76BByz95GNfUJhRerC3Am9xAO5Z7FbVvB1Sg4k4tDh3Jx1n5RYQXqa08iAt7jV5UXn0T+AdR+f5T97rm8VuH8kkTUM+hhqJ+ABaeqHiWZLuvyvA0ui/HeTapt9V7x/4iSqBgokW0l7/wjEPpHEPnYyZYINZU3RHB444Qqt94o2PtlqIGkx5hacGd5MowaDYwpK3DX4vGLbh+03FmOZKMGGmMKVvAFW+5gebIRGo0RKSvuui1DfUBFQIyAF/nVgRe9yPpiktWzxwsBh35/vIj7t1Hjubw+/HUmYgK0MDzdC5+efvAYAeF5Gx4V0VTb+qgqf0zqoWKgRLaVvPOYYPDPJ+Pxky0Rpg68ofoIInQUnVDlVlFJtf+SGkh6jHHtCTKVYSzF2J6RgI4dEzB+x32PqVQfVBHgEPAiv6pGwjtMZTqLpX27oOeHx727osE71DmX4tDvzg+oV7yHgAXF2zOQ0LEjEsbvgKTG/+sHjG/lg7rPv43tN2zLV7xHRo1K8qLOqREd9pepttV++4k4omKgxL9Q9cHfyC+Pn2yJwHDgDTWQFKGj6IQqt4pKqv2X1EDSY4xrT5D/SQzjMVzqg38zAl7kV9VIeKUvLQWfI8lHi7Bh36HSKyXWciEO/V7LtanFu0XAjD+/HIZugz7CsfuPo6vmRZ3jFgvPHlBtK+A1DFR94BnT1cpTj59siZrpwBuPo3YS0fsPOPGa3D6CtqqBpBVkS2Up7uXfxK2icpiowHtLkE0oL7yFvIL7qLRKW00YprqsEAV5ebhd/FCCbsfGmPCwuAB5BSW2+h2fkDq3VBSj4LbUe9UoKyxAXt5tFD+kIyhVrqmsEPl5BbhfQVE/pjLcy8/D7ZJKUO46FSkfD6ci5F2ofoDCWzdxI/8uSj2aILCgsvQe8m/eQlG5PJxcEmYqR+GtPBTc53HykF8tlSi9l4+bt4ogSQ7VSFhQWXIbefn38MCjdgPuZcxlC13fNJWhMJ+0v4LCJyaU3ctHniTvOhRtKkcR26eet636QSFu3byB/LulkrONFd8NQ5jWk0DSgoriAmmery5DYUEe8m4XQ46ouZZfBwzIqUO/U54A2UepVO7p5dmvVpcXoSC/AMUPzfaLLo5M5UVcH9x7INkH9Ner8eBuHvIKiqVlQPRiLcmwqA6JEwW8yZdU/eAu8vIKUCwp6PyTHv7Wps7xkAR3j3lmWxXwsGy9745SIkpybQngib3zDANn+kzlhbhF7LLdUfFsu40C/eSJ/nSm0M2V6nIUFeSjoPghPNIgNZAt0nd38/JQUCzlP7qh1fG2UtlS0AavYO9gKzhfTb6P4Ak/O0IFuLGX7u4/FvyqNC74G22RoCOe8ECyEjf2zceQhEgEGxhoNBpoGB0CGsfgzenbcKlcgBQ8dMyFrwiPLSU4uTId8U0DoWM00GgYGENbI3XGbty4RdsjeR87J3RFXFwiJuY4LHSqzsfBRSPQNSoUPlqebj0CCd0zc3CVNt3B1v9fdImoCz2pn2Hg2+glDP3kOIqrfsXC1ATEdR2DjQV8dFuMHaT+hDcw/+cSnPq4FyL8tWC0DTByj72C6vyDWDSiK6JCfaBl26UBow9E45g3MTPnqtPMS0lOJhLjEtBj7jFUFuViXu9oG/aM8Sm8MGQlfisjRvUGciZ1Q2RdPRiNBozWFw1fHI5VZ8hNhz8leDgUIe/UhIJDizGiaxRCjFqWPtKfjKEeWnYeioUH8p0d2cob2Dd/CBIig2HgcdIFsDhN33YJIlaTQYyl5CRWpsejaaCOo4MxIrR1KmbsvoFbLvb0Vt7Yh/lDEhAZbLDRrwtojJg3p2ObmPFFAUW3lbeRv28W0tqFwWjlY61/Y7z41iIc4ff3iuiXI2OiF6VPSnKQmRiHhB5zcayyCLnzeiOabwdjxFMvDMFKjolwI2cSukXyPK+Fb8MXMXzVGThzkQWl5zbg/dQOCA+wYqlhoPUNQ6tXxmL58SLnANVUgEOLiRyGwGiTQwaGei3ReehCHMi3RthVhzGzWzxeigyGVsPA0OA5xMbFIb7HHPxUBViKd2BC1zgkvDEfP5ecwse9IuCvZaBtMBJ2UatG/sFFLM+F+th5Th9I+mwmchyF3uKZ/EqD7DqQlCv3LusR3SzDxW+moHeHcBYDopMZQzAiE/+Lz48XOTuEllKc2/A+UjuEI0DH60ItfMNa4ZWxy3G8yGH4Scg7VWU4tzodcU0CbDrZENQSyZmbcdmu4uzUyZDh8l8WIq1zPOJf+T/kUOTCfH090hPjEd9lID49Syqz4P7OCegaF4fEiTkOS1vl8mYJcjITEZfQA3OPVaHs3GqkxzWx4cMYgtAyORObqY20N1fq6JHoHKnKZV53FUTJ52EFet8tvQrKlGnvqBhYpPwLC0pOrkR6fFMEWuWJMYaideoM7L5xy0UgKVM/EVw81Z9uMRQ/UHbxG0zp3QHhxF9hfToDgiMT8d/Pj6PIKaKUK1uA0IepKjuH1elxaMLbDMaAoJbJyNx82cn3EVNJP1MmW/Lb4HXsBYGkbB9BLj+7sZe1Yk9Jd9UGv8qNC3i2kWGL+Fdq8/cJDiQr8ftnryFcTwKAMLRPG4ups+dgekZ/dAz3AcNoEZq0GGcqePhrEkia8MeyFIRqSZAVhg59MzBj9ixMGd0LbUP9ET1sKOI8TbZjuYMdw1vAyDDQBkUhZXAGJmVNwcSRPdC6ng4Mo0eTgZvBx4Mc9dW4sDQJIaR+XT206TUak6dPwbg3YxBmCELcrJlIDWSgMSbhM9uLxfiyuw80TBD6zp2OGF8tfEObIyoqBu/9wGUJtNzZgeEtjCxWQVEpGJwxCVlTJmJkj9aop2PA6Jtg4OYCkQNeurYnfDQMAnrPxoedQ9CgQypGZUzA6P6xaOLLQMMYEJW5G7vGRiGwUQzS0sdjwuh+eLmxDxjihEe/j+PCJIWK8OD7VNlv6Q8TEO1L2heKtj1HIDNrBmZkTcSw7s+hHstPkUjfLQg8Kn/HZ6+FQ88wMIS1R9rYqZg9Zzoy+ndEuA8DRhuKpMVnYGM1T8ky/YFlKaFscKIP64C+GTMwe9YUjO7VFqH+0Rg2NI6aHKry98/wWrgeDGNAWPs0jJ06G3OmZ6B/x3D4EL4KTcJiO+OLAsmkt8einb8/Gnfsg5HvTMDYwd0QFUwMthZ1O83FKZEDLlfGPGx46Vr09NGACeiN2R92RkiDDkgdlYEJo/sjtokvxydRmdi9ayyiAhshJi0d4yeMRr+XG8OHIYFJNN4XMRFQenQaXqyrhYYxotFL/TBu6izMnpmJoYkRCCDv+EVj7J5CAS+X4ocJ0fBlGOhD26LniExkzZiBrInD0P25elxfR6ZjNwlkqg5ictzziGrox9EW0gLtnn8e7btMRy7h5eIv0Z20J6gv5k6Pga/WF6HNoxAV8x44UbPgzo7haGEkvBKEqJTByJiUhSkTR6JH63rQERqaDMRmm+wSHN3Lr1u0Bc6BMOGXErl3Wxf7QDlOLujC6Um/JujUZwTGjvsv+nex9oF/G0w4UCzqg6PTXkRdoteMjfBSv3GYOms2ZmYORWJEAIu1X/RY7CkUBJM23umDBUu7o37A04h9Mx0TMsdjVGoHhJEBRcYHbbJ+gVDNQK4MWwqwsV84dIwOTYfvgiieNedjXWoYtIweESO/BUeetH1RwptrexLdHYA+C5aie/0APB37JtInZGL8qFR0CCODRwx82mThF1EjPeilR6VzPCDFk0eoQRQ7RqLAdsnV+x4QKNuWKLB3VAwkZNv0xzKkhBI9qEdYh77ImDEbs6aMRq+2ofCPHoahcbQEgEr0kwz96QGO/CPlJxegC0u/H5p06oMRY8fhv/27ICKAyLU/2kw4gGKhOpCt9wGbD9NnAZZ2r4+Ap2PxZvoEZI4fhdQOYexAA4tNOwAAIABJREFUMePTBllyhUuhbCnRDx7bLh5Yd78CfpLlIyjgZ7f2slbsaW3wq4K4gPSDXFvkru+8cP+JDSRNF+ajkz8JIiMweEueaFmo5d5ejIkmAZI/4hZdso6CSxt6t/1Qsg2DntJCow1G8id/iByU6itfIjXcwI2Ie5C11XRqKlobGDDGDph2QjyPVXF2Ljr5kTa1xtRT9vWGluLN6Fefqz9x8XnBSJkZt3elIyooAH5ah6yxKMW614kzokfjZlF4MXMfCuxFkuEZnJraGgaGgbHDNIhJqcDZuZ3gRwKn1lMhIAVl69+Aj0YDbUAQot/ajDzb6k4zri9LRh1GA21gMEKiRiLntn340HR1KboSY6CPxMSf7IQowcNtf7l8oBjZveqAYXwRu+CiqC/JMr/ra1LRQMvAJ2EJrrHkm3Bhfif4EywiBmOLvcHsLMS9vWMQTQIE/zgsumRvr0sSrDdLtg3CU1oNtMHJ+OQPoUdYjStfpiLcwM2sibIMmy5gfid/NoiMGLxFgD8h5x72jolmByn84xbBRo7NSDAwGOsjftYvKBUQWHFuERKDOf7qvf6e7Y58GbO96vqgbD3e8NFAow1AUPRb2CzA1Hx9GZLrMNBoAxEcEoWRObfts1imq1jalQQYekRO/Mk+a1z5CyY/Z2AxeXb0HtwTOBrAAxyfFsP2n77FOzj00EpacTZ61WHA+MZiwUUh9mQ2/TrWpDaAlvFBwpJr1heqcXJKK+g1lKWtpevwOgkk9Y3RLOpFZO4rsNNG3jadwtTWhD4jOkw7IZ69rjiLuZ38WNpbTz0leM+d/LqGmL1r63dh5mhlcu9Bbaj+bRY6kIGVwJcw/biQw0pxfGoMp0+i3sUx62BF5S+T8RzRhYZnMXrPPUGACeDBcUyLIXyuR4t3DoHvNth4JxBBTZOx6LRwbroK5+fHwp/RQNd0HA7ZulWZDFvubsN/ntaB0UdizP6/rBBYcGfzAITrGBieeRv7bXsdJeyLEt5EGda/4QONRovAoKZIXnRaNANfdX4+Yv0ZaHRNMc7eSE+6CI9M53hEjfuHqEGUItslV++7p40M9sizJUQVKLD/HmeFL8G2QU9Bq9EiOPkTiE3KFXyZGg4DO0sp1AcK9ZNs/ekBntW/YVYHMgkQiJemHxfZqNLjUxHD+kZReNeuQOTrfcDuwwQGoWnyIohVyHnMj/UHo9Gh6bhDDv6B6zYoki0l+qE2sLfZCpk+ggJ+hjt76e6+EntaG5gpiQugzBa55rya331CA8kqHB3fAjqNFvX6rHdwHAmoFhRtSEM9rQb657Jwko1bJAy9B33wYOsAdjZQFz4Se2weDf+iCec+eB4GsgTDg0Cy4uwmzJ48AWNnbMV1x7jDfB1L4g3sJ0OSPrPPBJZ+0x/BWg10jUdhrzj2BHAf2wY1gNaxfuKM9CLOiAa6FhnIdZouq8DZTbMxecJYzNh63e6sW5tlvr4E8QbSJuEsJ1HCvdhAkvHtgqUODTBfX4w48g7jj24rbokdQ/OfmN/RwM4W9FzLO2WAEjx45BX9mn7HrPYGaByW+NrKMhXi6oVruMfvQ6o6ivEtdNBo66HPegdnl7xkKcKGtHrQavR4LuukrRj3Bw+wdUAItBodwkfusTvK/Iumc/jgecIL4s/VVB0djxY6DbT1+mC9OGJi37QUbUBaPS00+ueQxTG+YEZSA/0zmfhRNOtIXivHnpHh0GkYBKV9baVAiYzxxLv5LVuPXiSQZHzRZakD75mvY3EcaTcD/24rcEsUFJrx5/yOMJDZmJ5rwXNRxf50NNaRGcFUZAtnr3gy/tqGQWEkUH4Kw77lBNj0+yy0N2gclp/yLwCmwqu4cO2eYM+di0CSb49GhxYZuc4z0xVnsWn2ZEwYOwNbHWQGMOP6knhWfxiTPhOsRHAnv3ZaJY9szoHQcVQm95J12G5U4fA7zVid/NSQHDh91OL+BqSF1UFI466Yd4aMPlVgf3pjjudSs62zerbC2IO/tg1CGBloeWoYrN1GFJCVdwyImXNBNIBIXjJfmoeXWL2VjOV3rMyjWIYtKPx2JCL0DAzPTkTuAyLuORhGgktjK0w8LAyW6fZFCW/CprsZGGLm4IJtsM6Kj/kS5r3E2Ynk5XfEoLk8e4Q6xyUdnt+kB5IKeFiu3veERAVlKrF3VAxosv1gKwaEaKHRhWOks6MC07kP8DyRDcdPkinQT/L1p3tAqw6/g2bEtj01BDnOCgQb0sJQJ6Qxus47w8q9MtkS+DCGGMxxFi5cmvcSp4+Tl4NXIe6pVyZbStpQG9jb99PL8REU+m+8Dpeyl+7uPyb8qiguUGyL3HNgTZ54MgNJ0wXMfoEEJb54ZZVwuZodSsvdFUjxIcs9u2BpHnEo6Ibe/obUUTU7c6cnzmv3/6GY8lhVLqcAPQkkKa8LLvHOo9BJqsbJrOdA6vd7fR1KBE/zh+U73mKXk4nqtzkjWjQcuUcwi8m/5eaXF2YHZcsHkvroyThhn1jkCuNnCwztMIN1FoV13MeXr5HA1oikZfYgWfiE8zEND+enZF2xFCG7V112KWdI52nYe8MpwhYVZ7owGy8YNGB8X8EqWpACC+6uSGGXXBq7LBW96/KkmsxS6dnAuvv/qFyFXNYxFwaSJlyY/QIbSPm+sorqfMNyFytSyDJiI7oszeNIsDkdWjRK30flhfure8CX0UD/7CTuHUUy5rLF9ps8b+mjMdmZiayzMQa0m8E5DPYXgftfvsYOZBiTllmDLhN+m96WM/yJyxwCT+ublkJ88QrBxIA2006zFy1F2ehVl8x8hqDztL1wwwZsUhrJGUm+PdqGov3HQrpdHfMyJQ4aeN5XKL+kQlu/CwNJV5Sww/VcoOYg927eAkznrTrZB69K6GRRGabfML0tFwwlLnMYdLI+aCn8Aq8QHW5og2mnrdEUj7U+Cu/97KiAAJSsQQ8ySGHohIWXuZG6Gsmw5T72jWkJA+ODtpP2YefoSOgZX7SbfEw0S0i3L8p40x5I6hH13s+CWWoewRKs6UF0qQGdFl7mL7r/fZQ6xz01Hj1BDaLcvcnziJCHZep9d1Ww971eJi/zQvtPxJiWg8H5O9XVZHZIrwHj0x10k5KLd5rpnANJN42l6Sf5+tNNJTDhvNW2+bwqYdtERSiVLXsgqY96D3QV0oO1MYZOC2FVIaKaqScKZevR2C4qxeKLNlshw0cQl0A5o/OzbTBQyl7y8it1n1KT8NKj4VdlcUGNbJGwkV4+fjIDycrdGE5mGBh/tOs/CVlZWc7/k/qjHbv8pzkyjpA1TkoDyUrsGkL2sWnRYAQ9IDNfXYRYdhQ8BSv4xAw2waQ4caZCnN6yGO8O74OUuBi0bfUsop5piRYRTRFGaNYY8MLs89bRdr5+HZqMOUhdamG+vAAdHeu3BZKkLOeRe54PTYWnsWXxuxjeJwVxMW3R6tkoPNOyBSKahrFLxDSGFzD7vH1I3CakL3+EK44zqhVfozfrxHXGxzcdb5aC3fejMaLrpw6Ooyw8eMqV/z488SHiyawdnwgktjfSpy/D1p+u44ED2ZW7h7OzIox/O/SfROGzrCxM6t+OW07XPMNzoip3YQjZC6JtgBH2jCyC9824uiiWC5BSVoBjq0rsHh7G7qn0b9cfk2h8nzUJ/dtxS3OaZxzhyrPxogEd5//pNPtMHqrcNwqNyOxPyBDuHUUyJiDf1SFvKAwv4yNnJsLXvTknufPHN51o5fa3aGDs+qk1aKxEzmAys0tZcmqjoRJ7RzZknwkZvMt69SFOfBjPrlogs5+G4EjE9k7H9GVb8dP1B071kmXPbgNJIitOI9w8ESYUnt6Cxe8OR5+UOMS0bYVno55ByxYRaBpG+ksDwwuzYRc1uxF2Jb986dRfW7876yC5ck8tX3iR8Au7/F+Kn4UPE4bLwWAye6INw7DvnKbIuYcr92JkQ/JMCAbvsj4j4J2FTrwjDIQ7Yv6fnDDXWIZLD2E82Sph8IGPjoF/zAc44TT+RLMvSnnT3vcvL7xC4UX7fSLPHv89Sp3jMVGuH6QGUdZX5PKwHL3vmir7XUVlyrR3VAwosl25awg7oKxtMEKQ5MtOK8xXsSiWG7wR7pnmnpCrn+TqTwEd1ENi27hluVJ+lvg1pbJlDyQNLy909mFYFcKtujJ0nA+rChFXTTtTKFuPxnbRCHa4ZuMnGT4CX4RMfrYFklL20qbjvWlPvc+vSuKCGtsiHnMv/z6ZgWTFFvQj+6jIck53/zZHhWboPemNCmxOs66ZH0tfM28pWIYkD5PtWEqO4oOE+mzmVUZfF03axSGlRyrS+vbDgEEDkNBU7xBI8vXr8cz/HaOMTpOtcSuR4li/IJCMXXSV4oxYUHL0AyTUJ1lVGejrNkG7uBT0SE1D334DMGhAAprqyci+RCAZu8i6h1CAIR9IGrvgE3YWWHAP9EBSPh7CMpUfl1/agdn/iUfzOnyGT7LUUovAZol4e9VJ8FufKrb0Y/d9uuUzsm80bJjnBFVsRpp1n9NY6j4nCwqWJTkk26nAln51rFla3fE+F1ixBNmMhBFJn90WLzm2UlyVm4HmZHloQF/uiiIZ87D5NkMRi0XcRlTBixXWQNKILp/kOdHqHEhWYGMaSYKjw9MS8glUIfed5uwySv+0zYK6ynFpx2z8J7456vAZQ9kMw4Folvg2Vp28L6jfk0AyFouuOoxEkNosJTj6QQLq60nCCD3qNmmHuJQeSE3ri34DBmFAQlPoXQSSdPkVNEPqUNDvdsdRmdxLVWG7zvOLrino/Gx7kjuo2Ig0P7LP72np56ty8U5zHTtgmLbZGrm55B16IFlzGbYg//NkbmCNCcIbaylL3KkDlUp50x4oxi66RtHd9vuyAslHqXMculvpKTWIgnIe9lTvy6FXTplK7B0VA4psV2xOs+4PHivYHyxoiaUAy5IoyXYU6SdSrhz9KaCDesjbNh2aSupx4YtKZUsQSNJ8GKWBpELZejS2S4ibxLGAnzz2EVjTJtefFepoCXsp1PFes6ek3d7lVyVxQc1tkUT/1fDykxlI2kZ/wtB/7UVcuXJF+v/qddxj9xUqDyS3Dwxml0KGp++nzwh6PCNZgdzxZGkUA+Mzg5F9UZgogmP0r9h9jcIZyQpsGxDEOsoRGUeo9VvylqKLy0CS4oxU5GJ8JMn8acQzg7PhTMpX1iVutRlIKsGjhhLj+HrFbZzZtxYLMgeha8sg7tMq2rroOOcUuwTUNsob1h9rL7rgsytXcPW6PVGNYzVO5xXbMTCYLK0MR/p+W1YQwWP0GUl+FCys/1pcdMX3V67iOsf4oiWOZLmraNuhtcaq70ez+wy1IYO5K4pkTEC+q0OhofBCILl9IJEPLRqO2ktdtksCyQPp3B7Q4EE7qJRV3D6DfWsXIHNQV7QM4j5Zo63bEXNsaWw9DCSd2gNU5I5HJMkGbHwGg7MvOiyJBMq/so6AS8xI0oMJajPEFwXOgS2QVCj34oIpZ7YZxoYYuVdihlH4GuH/IML/DTFK6vmqA0gPJ4FkMAbtUB5I1lSGLYU5GN5MD8bgC1+SZKdFOvYIU0ey7aLZlwoo4017oEjve/t9eYHkI9Q5wr6uwTE1iPIGD7vR+4pIdlumMntHxYAi2xXbByKYJLsLTwfdpNBnJJXpJzFC7vWn+HnnM/sMY8ORUnpc+JZS2aqtQFKJbClvgwgJt7ZL+LTEsYCfPPYRoIyf7TOStIFkh0DTa/ZU3O6a8yvpO/lxQU1tkbgV3jt7MgNJ23p0f7yxjrZrkAYwzdDTnnO8xieRYODfe4NzEgkAVUe42RzRHkWBYNqcuKqjmEAStzB1kbpemAbfWqf5mnXpiTCQrMIPbzdhZ1OIE+y0ospaf4TOIdmPaEbSOZCsOjqBTdrC1E3FeienCDBfsy7Xrc0ZSUV4OPaPF8/NRTg2N5FbHhQyENseALZ9J/5vwGNW84SkqsPcfhXGH703OGUWIL2KIxlkFk24R9K+Lt//Dfp+WWrVNl7Uo9WUE9RZ7bKNaexnMvQtM7kiFMkYtXbni14NJKvx83tR7B5i3+5fUvcwAyVY9zqZteT2nDkTJL5iLjqGuYnccvaQgdusN5UGklU4OoEkBmNQN3W9KHU9V7AZ16xLmKWWttKDCTHN1DNbv9uXtiqVe2r5wovVJzA5mt/zWyS8Qz+u/hnvRZHnfdH9S9oeYbLfcR1eJ7OWwv2QLnlH6ITYl7bWSIYtd7D1rSbQMX7oMP0H7H4nCgZGj2bDdjokeaPZF6W8aQ8U6X1vvy8rkHyUOofe67Kv0oIor/MwRe/LJtTxBVqZCu0dDQPa/mc+WQ3j3xt0k3IEGWSGX5RsR6l+cmyw/ZyuP+336UfVODE5mtXjJBeFew2iVLZqKZBUKFuPxnbRERddtdkKGT6CQn6uWSD5uPCrsrigRrZI1GHePXkyA0mUY9dQsp5eh/ARu8Xp9Hl8TTdx4shFFNvyMdAMPf+wq18LCj5PZpOp0Ddnm3Fp3ovsXja3gSQ/Cq9viUzBJzD42s2XFyOeOE6iPZIW5C3twn48Xuxo8m/xwYW8QJKMXgaR5CotM+FMihmXF8fDj3ywvjYDSUV48O2uwW/VfeTfKaPOzKFiB94i+ycNL4Pdg1W+C0PJ3i9dOEbsdkqZyxJhunkCRy4WUwM0SSotBfg8mSSAkUioQTIzvkj2swgDSaB811D2kyG68BGgk2PCzRNHcNHO+IIZSQZ+KcsFmUF56qrx6yTOiPv3WG29qETG+PLc/LoMBuQubQVI9jSSoVnbSAKTigMY3YRk3g1G/y32oL3qfj7ulNHmZ4GKHW+xZZJ9NNyf0kCSH3XWo2Wm4JMlPETmy1gcT4Jc6T2S9GCCL8DFr805sAeSSuXeRS3WW2XYNpDbq9pw2HfOOtl0ESuHdUfPPsPxGfs9IZLlkGQ71qKRhA6vODAaTUgWx+D+sHWbS96hB5JQLMMW3NrYj/3Uh+/zWfiZJPz96wDebmkAo2uMgd8Il4nT7Ysy3rQHivS+t9+XFUg+Sp3jnmE8eoIWRCnmYTl63yPqyHifDFui0N7RMKAFkpaCz5FMklMJB14E7SAZjV90ytqqVD+RpsvRnwJCJA7Ltg1ks+NrGw7Dd06m1oSLK4ehe88+GP4Z95kkZbJVS4GkQtlS2gZvY2/nJxk+gkJ+rlkg+bjwq8K4QLEtkhAaL11+QgNJoPz7MWyqaKZOHOaddZynq8bl5d0RqmUQmLQMN9htS3RD70k/mP9cgE5Gsp+nOdL3CPdNkXTwuzEqguxrdAjkKE4cbCM4ddBz9V1xIFN+FktSnv7/7V0JUBTX1p6ehV3ZRAFX0BBcoiHEDRQENAaMKElc3tOASjQat9+4obgkz93ExN1EFkUhiAoqrvUE9yTGvHLBxKVUUMoFKAkpkAJqZur76/ZMz9ozzDRoMFyqqOmZ7r7L1+ecvt89954Dd1eSkJ3MCl3WEBP51SXoSSKHynpg/k/6fZXf24GoNjx5LC31SLaIwk4uQJAajKqr6xHR3h2uduSl1BULuDQS7DhNvQyPb3+BtXskBeLBBk46tATjx47FuC/SwbeM3tRzrbu8BG/biyHrPhcXDFcWk/QBt9egP8mF12Ik0lhndxVOTiFpDRi0CFoBY1G7jS1D3SFmnBC28YGpanl+V+DWqr7sBIGkUzxyuU2Z7JVKlB6ZBB+yR9WASKLqJKaQyHtMCwStuGrkoa67vQVD3cVgnMKwUSX4OkSSRPR7G4t+Nshh8+cJTPEl3iEHhG1SR3olOwqs1jGebvL9ZJYMWE8kUXEIcW1VRDFi0x2DlBAKPNgRxXqZJV7jkc3mDKnD5SVvw14sQ/e5htE3SYMVuL2mP2wZBi1Gpql7IMeVRT3YiLlOMen6RMlsf7QzqC2idqqDJnGgVOHq+gi0d3dVRcztukCdqoic15IFfjLBlWHmk8cGabw5Vuq9mVo0pypyYuFNiJ9zKL7+XTODx56vyJsBP7K81zEcm4tU+0grDsWpllO7RGDTHW1AL/YGxQPsiCJeYQm8xmdrUr1YPgjReiTJ3hghOqwoSsGINmKQ5OTzLnAjWyWe58azKUEknjHY/ZDbE2vi/WK1bJLe1/fsteetIpJ4hTZHIxUNO+AjUUJk2Hq7X3+7rS5T4PuODwPtwF87SQTFLazqa8Nug+kUn6vZ58/2RFmKI5N82L3YpjySltsnIfazfjxRkYNYspRd7IzQr3/XjH/YOyvyMMOPbMVxRPjmItW+YUG69ZKIpFDdsroPLwl7zbvCijGCQHm23IbzLX0V8j59OZgJ4gUC30UWaE+DLmm2RBLKx8iK9WWTr8va9Ef8mjTk5p1Ffu4erPssBN4k0bWdP2ac5Ja+mnjRWwK/8hkyx3ixZELiFoi4VSk4eDgH6VsSENPVGR6Dh6Efm2okDJu5xEMaxdQx9HiB09N82D2SUq8wzEvKRX7eUWRsnIsR3VzgOmgtMhN6qtI79EnEheJSVBDeqCjC95Fk9p6BrN1gzN2Rjbyzp3Fw6xwM7tAS/nGxCLZ2j+SL05jmQwyzFF5h85CUm4+8oxnYOHcEurm4YtDaTCT0VKVY6ZN4AcWlFSxp0URtbQwiKRQPYrTZfIKqdBU/6Y9ZzT9R+U2sD3GGmJHA7e3RSNi4B9nHT+HUsWzs3vAFhnUhSdBl6DzlmGbwqnychVhfG/b3Nv3jsSYtF3ln85G7Zx0+C/GGjGFg5z8DGlEz3wLNWeWzTIzxIqRQArfAOKxKOYjDOenYkhCDrs4eGDysnyqtSNhmnXxWSjzOioWvDUnk3gb949cgLTcPZ/NzsWfdZwjxJonv7eA/46Q2VYzyMTaxQRZk6Bk6AK29B+Czb37EiXPnkXdwM6YPaMPKpMx3Co7rpcazVsc0XTN/YJZ4CSCSUKAwNYb1HDF2PoicvwPZeedx/tR+bJ0bCV+SyFraFjEpDzSBS+Q31yPEWQxG4oa3Rydg455sHD91Cseyd2PDF8PQxYHg2xlTjnHZKpV4snUwS/jErv0xY1sGMnbtw08kJYzZ/gAvTk9jiQcj9ULYvCTk5ufhaMZGzB3RDS6ug7A2M0E1UWTXB4kXilHKKr2WLDQmkYRAvTf/QNVnFfeRFO0FCcNA1jYEn61Jwo9Z6di+7N8IcJWAYRzQa/457R5RRSFSY7zZ6+18IjGf2LXz53Fq/1bMjfSFPcNA2jYGKdyECKmmHqy153WJJGC1Divu4fuoVhAzNug256y2zaQNylIcmtARUkYMj2E/qPMBm3q/WC+bL49IksBsr8jmWCQw9V/ES6KEyLAAu19v66wuU9j7nxcD3vGFEs8yx8CLBE2TuCEwbhVSDh5GTvoWJMR0hbPHYAzrp0oNFbZZm39UiH2y3n7WiyY7gXc/KRpeEmJ72yLkszVI+jEL6duX4d8BrqydcOg1H+c0E8BCdOtlEUmhumV9H14K9oLGCMLkWWuj+Yhi/Ta+ycirEF5AXh8vaTxpiYaZuqb5EkmCSN0D5CS8j85OYv1IlowYLbpEIfFIkc6slqkXvSlo9X9Xll/AmmE+quWeXKRYRgbPgQtwvPCQKvS9LBjruYTjvIYeUJblY2moJ2Rk2aimHHt0jFyBc2VKyK+vRlBLVWoKkcgWw3eprKbyyTEsHOildx8ja4V3P0vH7eLtGMISySHYrsl1WN9AVImy/KUI9ZTpYcfYd0TkinMoU8pxfXUQWorV7bQdDtKUxiWSQvHQIZLdFup4cfSfmalvyqd5WBHTFS4kiib3DNhPBmLHToiYsw+3DeKF1D3IQcL7neEk1r+HEbdAl6hEHCmyhs1yLVOi/MIaDPNRLW3k2sLIPDFwwXEUHopjl7HKgterB6vcfXV4kJOA9zs7QawrRyIG4hZdEJV4BHrNUdzH+mAyKeCCsVmFOL4wBF7Ew871neiL/xhsu2rgqSTVWaVjXPvq+TRLBoQQSVJfFW6kTkE/LzIjr6NbJP9q+zDMyrhlEIhHiad5KxDT1UUVYEn3HkYMx04RmLPvtt49ymcHMZFMKHDXynpiyVV5/eRGWYb8paHwlOlgTtrVMRIrzpVBKb+O1UEtIVaXazt8Fyrr9UrVgzE5zWuDhOm9BbWpLnlxAymf9kUbg76KHX0wNPEYHnEOPK7AqhtIndJPXx4JDow92ofNQsYtA0U0Kzu6gxB9Ikmqs1yH5bi9eQjcxAxk/rOQr10NzbUaypIDGM8ul3bDkM23IeeN2spdbq1s1me7teet80iS9rwim8N1vYGfvCQKwmRYiN2vr/nWlink/c+LAa9uk8dbjgtrhsGH3SLD2UEGMs+BWHC8EIfYFBsyBK+/r+2aIPtkvf3UVmju6AVupHyKvm0MxiViR/gMTcQxYwNipd2vZwzDmhAB6T/YLgnVLWvtw0vAXuAYQYg8N5RIognJq9W8QC36lr+LzOlK451r3kRSjaOysgiXT+zH3pSdSE7bj5O/FsHE1qcGIl+H0oI8HNiTgqTUTBy/UgyeobcFdVSh6OdcZKQmISntIPILSvSisVbeO4N9qalIzz6FGxpiSIqtRvGvx5G5OxnJ6UfwU6Fqn5/i3joEkaWvTh8iw9oGVRXh59wMpCYlIe1gPgpKdCOIVuLemX1ITU1H9qkb0GuKBb20/BIheMhxY1kAHPjyWVpYcc3TApw7kondyTuxM3UvDv73CgoNE0nqlaVEZdFlnNi/Fyk7k5G2/yR+LTKx11Lvvnq+1JWiIO8A9qQkITXzOK4UW/gQlZUounwC+/emYGdyGvaf/BVFFgr+i+IrOJ6ZiqSUvcg+ewvlhgN8gya/Oh0zqNjar7UluHkmG3uTiS3Yh6OX7qHCbN9q8LTgHI5k7kbyzp1I3XsQ/71SaJRPlGuG8s8/cOrHFCTvysChs7+j1Ir5g6qin5GbkYqkpDQczC+Avqrdw5l9qUhNz8apGyX6y965yhvz8yUDNokTAAAgAElEQVTrfW1JAfJzMrArORXph8/jdrnB0lWDvtSW3MSZ7L1IJnq17ygu3avQeI8NLm3g15ekw5a0ymrZtKRQgdf8DTZHYEtN3yZQhq23+6abwJ2xrkwh7zuuJss+60oLkHdgD1KSUpF5/AoseaUIs0/W2U/LWk/2npagID8HGbuSkZp+GOdvlxtsWTAo6Z+gW1b34SVhr4bW8jHCy5dng6fNfm068iqUF/yN7yIDQCmRNADkH/n1xV2cTtuC1cu24YzeXjrSWyVK02JUgUEClukkNP9HIqHtlPIhtoQ7od3kk3okXHsBPaIIUAQoAhQBigBFgCJAEaAIUARMIUCJpClk/km/117EF35k75sN/Cb8iLs68XYqC5Ixxpecc0DQmj9e0ix+0wOz8uxsvGnvj7mXDJa+Nb2m0hZRBCgCFAGKAEWAIkARoAhQBJocApRINrlH8jIapMTz0/MR6Ez2TjKwceuMgP7B6NuzI1zIXiRGhrZRm3CdcqqXAT4tkyJAEaAIUAQoAhQBigBFgCLwj0OAEsl/3CM13aEXd49iw6zRiOjdHW/4+KCLfwAGDp+Epak/45n5LUimC6VnKAIUAYoARYAiQBGgCFAEKAIUgWaHACWSze6R0w5TBCgCFAGKAEWAIkARoAhQBCgCFIGGIUCJZMPwo3dTBCgCFAGKAEWAIkARoAhQBCgCFIFmhwAlks3ukdMOUwQoAhQBigBFgCJAEaAIUAQoAhSBhiFAiWTD8KN3UwQoAhQBigBFgCJAEaAIUAQoAhSBZocAJZLN7pHTDlMEKAIUAYoARYAiQBGgCFAEKAIUgYYhQIlkw/Cjd1MEKAIUAYoARYAiQBGgCFAEKAIUgWaHACWSze6R0w5TBCgCFAGKAEWAIkARoAhQBCgCFIGGIUCJZMPwo3dTBCgCFAGKAEWAIkARoAhQBCgCFIFmhwAlks3ukdMOUwQoAhQBigBFgCJAEaAIUAQoAhSBhiFAiWTD8KN3N2EE6or/h/zTp5F/9THqXmU7lcXIGNMeMqkULXpMx9Ey5aus3bq66orxv/zTOJ1/FY9fKUjWNbNpXK3E04Nx8LGRQur4Jj7Nfoom/GSbBmSvrBV1KP5fPk6fzsfVJi7IyuIMjGkvg1TaAj2mH8Xfbh6oDbBCSqkNsAIseilFgCLQDBBovkSy+jfsXpaIxKUbcKxIYeGjrsZvu5chMTHR4v9lW/LwlBttcnXq3b8ES5Z9iRVrv8P36bm4dKf81ZIeC3v++l2mxJMt4bARiWATsVX7DF56R+S4uz0SrcQSuAcvwqln3MN/6RULqkD5ZAvCbUQQ2URgq0ZQBRX1j79JUZiKkZ4SiF16Y05uMSy1Gv94YJpCB5VPsCXcBiKRDSK2Pm0KLeJvg/wutke2gljijuBFp9AUzAO1AfyPiu9XagP4UKG/UQQoAs0ZgeZLJJ/vxPu2IoiknTHrvKWumOfY+b4tRCKRxf+ynktwVa4WMa5Oc/czMrh3H4bZO39BKR2pNkA3/x4iWXt9LQa62MH3o+24VtWA5r+iW+kg0kKg637Hd+FusGn3ATb8+peFN/0zLpNf3YCPQqLwn4uW2sm/od+vBZGsxfW1A+Fi54uPtl+DOfPwKjGnNsBCeW3GNsBChOhlFAGKQDNEgBJJQURSAs+oZdi1Zw/21POffvQ6yjmnFEckJV4YvjIT+/fvV/1n/Yi0nd/hq/8bjwh/V8gYEUSMDO0i1+OXimYolY3S5b+BSCqfIWfOUIxYeASPuMmDRunLyyuEDiItwVaJ58cWIvKD/0PW/SZMpizpitXXKFG8OQy2Yg/EHq6x+u5XdsNrQCSVz3IwZ+gILDzyCObNw6vFnNoAS6S0OdsAS/Ch11AEKALNFQFKJAURSSk6zzpv/RJUjkiaq1P5J66lxOPtlmKIGAm8RiTjQVPyTNb9hadFRSguq6pnMKRWqbpKlBQXoehxGV6YHz01TAflVSh5VITi5zXqfWsWEkllDSqePUTho1JUNUb7GtDfur+eoqioGGUWNkReVYpHhQ/w8NlfFsqiHFUlj1BU/Bw16skNywaRclSVPkLhg4d49ldjEKk6VJUW42FxGV5YItvyKpQ+KsSDh89gXfVyVJY8ZPtbzU3m6EiZvPIZHhY9RjkHhs65Rj20VmcatXLThVkmP9U4HOsBsQVEUlldhuLH5RrZ0q+5DpUlxSgqeoyyRjAE8qoSPCoqxnPu2VlIJJU1FXj2sBCPSi20X/qdMPpWV1WK4ofFKLNIkIG6yhIUFxXhcdkLM/bTUsyF6GUTsQF1VSgtfojisheWLREXbAMAeWUJHhJZ4TcCePawCI/LufeG0SNupB/q8NfTIhQVlzXOe6aRWkWLoQhQBCgCDUWAEklzpM4IXW5p60skkmydSjw7HI/OMgYisSf+lVXWsKAeykfYOzkUQUGDsOAEj1fBxPny7NkYFDQAkV9dQG3lNeyMD0I7RwkYsjSXkcG5SzhmZ9yGcYl1eHhqLSaE+sHdVqy6XsRA6tQWgR8uQfZd4zuMoLbwB2X5ZWyLD0YHJ65dNnDvHo3EIw/wyMweyZoHx7By/AB0dpFp2idxJO1bjKw/zC0642uYtf0tR/bsQQgaEImvLtSi8tpOxAe1g6OEYZdMMzJndAmfjYzbPDgpK3AtbS6iA7w114sYMew8umLI1C24WMrDmJTluLwtHsEdnCAh3m4RAxv37ohOPIIHj0zvkVRWXEPa3GgEeDuq7xOBEdvBo+sQTN1yEXxV8aGj+a3yJn5cMAIB3g4Qq9shc+mMQZ9uxkWjddxKVFxLw9zoAHhzMidiILbzQNchU7HlYqmBTuhiWoPS/BUY4e+i8u6T/rZ+B+O3/YZKAHUPsjFvcGe0lBK8SZmeeDduB/5HTmr+/sSh/xuEoKBQTMvkC6pTidy52vPcbcJ1hitB/akoxK74UAQHhyJ+d5GJwbYSz/ZNx6DgIIRMSMI9S0i5FfJTm7cEg4N7o7MLmdSSoU23/ggKCkbkl+dRqyzDgZmhCBrwAVZeKsev3wyHj4MYjLgNJuZq5bbu4SmsnRAKP3db9TMXgZE6oW3gh1iSfZfHdhjgoPdVifLL2xAf3AFOnK7YuKN7dCKOPHhkZo9kDR4cW4nxAzrDhdhU1n5J4Ng2EB8uzoLV6o5K3PxxAUYEeMNBzOmsCzoP+hSbL5YaP6u6hzi1dgJC/dxhq75exEjhROpfkg1dc2gWczUWgvSyidiAyps/YsGIAHgTWVG/R1w6D8Knmy/ybOWw1gYAuvpXU5qPFSP8Nc+csWmNd8Zvw28qI4DseYPRuaWUbQexa57vxmGHnhEQZgNQno3Zg4IwIPIrXKitxLWd8Qhqx9lQBjLnLgifnQE+864n7vQLRYAiQBF4DRCgRLJJEkkAymfYPdINYhEDxyHb8ZiHH1gsX4o7WNNPBpHIFtG7eUiSifMVyVGwJfWPXIUNQ1vBsX1/fBg/E7NnTEJ0gAc7SGdse2DhT7U6TVHiyYE4+NowYMTO8IsYh+nzFmLBrImI7O4KCcNA2m4MMoob0iF1dfLfsTHCncVI6hGAj6YnYvmyBZg8/C24O/gj9pMg3mA7Ndc34X1vKRhGBo+3YzA1YTm+XDwdo/p4w5ZhIHYPw7r/Vev0ydyhkP5WIDnKFiLGESNXbcDQVo5o3/9DxM+cjRmTohHgQcgtA9seC6EHLSpwdtG7aCkWgbHxQu+PpyFh2XIsmf0JBvk4svfY+09FbokutnL8vjEC7uQeqQcCPpqOxOXLsGDycLzl7gD/2E8QxBdsp+IsFr3bksXWxqs3Pp6WgGXLl2D2J4Pg48hAxNjDf2ou9KoyB1PVZawKUT0r+3Z9MXLCVEz7dBRC1O126DETJ3TCV1acXYR3Wa+8Dbx6f4xpCcuwfMlsfDLIB46MCIy9P6bmluiQSS2mI5b/BwPd2iAgehKmz5yMUf3bwY7cI/PD7CM5mOrnBK/AGMTPmInJH/dDW1vSHxn8516ERpKVpdjxHgneIsPAbwqNyQH+RFIk2S+tOs91XZjOcHfrfirwx6q+rDza9F6B3/lIovIxdrznyMrx28uumfFwceVaJz+1p+YjqJcfPO1V+Lj59kSvXm8jZHE+alGGH4YSGXbGR18tRqCdGHbuneDnF4gv/qtCUfnkAOJ8bcAwYjj7RWDc9HlYuGAWJkZ2h6uEASNthzEZxTrPkGsn/6f8942IcCekVgqPgI8wPXE5li2YjOFvucPBPxafBPEF26nB9U3vw1vKgJF54O2YqUhY/iUWTx+FPt62bNvcw9bBYnVHFS6vClHpk3079B05AVOnfYpRIWq5dOiBmSd0Jv6UT3Agzhc2xK44+yFi3HTMW7gAsyZGorurBAwjRbsxGeDMoXnMAQjSy6ZhA6our0II+/zs0a7vSEyYOg2fjgpR2xMH9Jh5Qi+CrfU2ANDo34jl+M9AN7QJiMak6TMxeVR/tLNTybHf7CPImeoHJ69AxMTPwMzJH6NfW1vWfsr85+IiZwQE2gBUJCPKVgTGcSRWbRiKVo7t0f/DeMycPQOTogPgQSYzGFv0WPiT1t7wizz9lSJAEaAINHkEKJFsqkQSwJ97Y+BMBsAuo7GPh/9ZLF0miKLmfhPnK3d9AFuRCGInZ3QIX4sruh6b2htY2d8BjEiCDtNOa1+I8l+R0F0GhrFBwKJf9ANKVF/FV33t2YFv94RfLVyOqWml0UF51li0FosgdgnHt79zb39yWR3u/BANb5nKS6kXtVVegJV9Hdg2+IzLRJHuclblMxyd4s8O+hyC1uIPvsG7YSsE9bcSuz4gJEQMJ+cOCF97hfWUcUXX3liJ/g4MRJIOmHZa26+an+ajm4wMiN/E5Nxn+gPwvy5iUSDplxS+n5/GC66w8iyMbS2GSOyC8G9/1z4ngtKdHxDtLVN5G/Wittbgp/ndIGMYyN6cjFyD0JJ/XVyEQAdCBHzx+WlNTVyNPJ91+G1ZAEuKnHovxkXdfb8VF5EQqJIJvzkXVB6qmp8wvxuRIRnenJxrENnyL1xcFAgHMiHh+zm01WsxdXT2x78yirTESnEfG8NbgCF4u7jBb2I2HmuerRx3N4Sy5FTaeRY0cbcEDiIF6QwPYuQn5cOtGOzEQCTrgUVXdAVVdYOyeBuGODJg7IKx7o6mQyZKAwTJT91lLOgqhchoaWsFUoYRIilF245+eHf2MRTrrXqW49eE7qwM2QQswi969qsaV7/qC3siX90T8KvefaaaX46ssa0hFonhEv4t9NX9Dn6I9oaM9VLqR22VF6xEXyKrMh+My9SRCXau7iim+BOi64CgtX/wTBYYt6Xut2UIsGXAOPXGYn1BxsWEQFWf/ObggtopK/81Ad2JztoEYJE+CKi++hX62pO2dUeCLggmMReol03BBtT9hmUBhLg7offii9A3AQkIZHHwwxwOOEE2ANDon6Mz/P+VoWPfFbi/MRwtGPI+c4Gb30Rka40A5Hc3IJRMkOmOBwTaAFTuwgckkJ/YCc4dwrFW/8WJGyv7w4ERQdJhGnTMu7Gw0V8oAhQBisBrgAAlkrovjnofGLe0VYzWg+djy/bt2G7u//uDuFqh4x2yZI+kThvk15bhbZkIIlkfrLpd/0BR51b9QxNEUXORifOVu4azRJKRBeLLAsOBrAJ/rOgNGUmvEb4FT7huVl9F+vL5mDk1EfvuG7ZZgfvrg1X3hG3SzMJr2mHVwV/YN5p4bCXwnpirJU5cGfJrWNqLeGH103/Unp0BX4kIYteR2GVAkMitytI0xLiKIZJ2w8LLFoxwBfW3EruGEyLJQBb4JYyh/QMrepO22yB8yxN1j6pxPL4tJCIGztGpvJ7AP7PGwoMQ69axOKTmd3/tGw03sQgS74nINeJ8clxb2ot9HnrpP6qPI76thPU2Rafqev04cP9E1lgPdlDfOvYQ96Ppz9o8fN5RApG4NcZnG0c8fZ4WA48WbmgbugL/kwPVx+PRViIC4xyNVD6X559ZGOtByHFrxHIdhRZTu5AN0Bc9Be6vC2L7yTgMxtZHnLCqmqy4tRJ9ZCIwtlFI/lPdDYGDSEE6Ywo5ZRnSPyIyTpbSnzNYBqrEo60RLKF2em+7BbokTH5gktRweIsg8Z2OfCMHfjWupi/H/JlTkbjvvhFJU9xfj2Bi22zCsIlzx5nCgfz+1z6MdhNDJPHGRGNBhvzaUvQi5eml/6jF2Rm+kIjEcB25y2BCghSqRGlaDFzFIki7LUT96l6LvM87suW1Hp8NI0l+noYYjxZwaxuKFUSQAVRfTcfy+TMxNXGfgUwCUNzH+mCVnodt0vHMmsJcoF42BRtQm/c5OhK723o8jE3Ac6TFeKCFW1uErvgfOwEkzAYQIql+Z9mFYIO+EYDi/joEERlhHDB46yP9iTjFLazsI2M9hVGcERBoAwiRHE6IJCND4JcF2gktViIAxR8r0JuV/XBs0bw41SfpB0WAIkAReM0QoERSEJG0MP2HrA9W3tIhU1YSScWDrzGAvHBkPbD4N0MiZ4WkmSCKmhJMnOdeylK/L3CJh1OVJ0WyRFPWdzUs5blcmbwEStMgCw7qiOdTyr74h35fxnNDLfLZQZ8ukZSjYPk7kIkY2A3ZwUvGoHyKrRFkmZMNQjYU8ZRr3U/8/eUG4VL4fXGJxzNbrlk22Xf1bVWF8t+w+C3VoHPQRoNBkLpJypLtGEKWaWo8WHWsV0hKlskO/R68KOWrBni6RFL+22K8xQ50BmGjAelSVaVEyfYhsGVEkPVYVC8g8hvL8Q5L1N7DDj5iqFeCHL8tfks12TBoI/irL8H2IeQZydBj0RX13VpM/ef/YoQp56mQ9Uxkyapelc9/UKUCsgnDRo7UCBxEcs+7sXSm6ugkllRL2sbjmK5XT/kQm8McwIhdEbPHcL+oXu9UXwTJD3Fbm/JIcniL4Tkx14Dk8tRv+BM32OadpDK8GKgjnj0pIftDwa/u+arJCl0iKS/A8ncIObDDkB18EyKA8ulWRBCdsQnBhiL9CQajVshvqMuzxXsmyjO6x+wPHIYGhMME5sL0sinYADluqO2u7Xsm7K4eTkJtgJZISv3n4xfDdxbnKZT1RKKa6GurfY4f2NReNgjbqCb1Am2AhkhK/fAF/4sTkYRoyvpitaUvTm1D6RFFgCJAEWhSCFAiKYhIitEqZBpWrl6N1eb+1+3Gz5rcHwCsJJLygi8RyBLJd/Ef3k1SFsqSCaKoudvEeW5QLOu3Gnwr5zTn+6yELl8G5Ci5kol1c+IwMiIIgW91xZt+b6CLrw86eJDlsCLI3lmOGw3gxqjJwXiy30bcBhN0gnto+gQF7q7tryIkEVvxlB0j1uBIHPGkMXDoOQrzFi7EQqP/eRjVU7Vkt9P0M9rizB5Z21/tALLf6jtG3hpovGsy9Fl5S1VzTTbGEY+M0RJDnYbVHMVET3KNG8blkLV1NcgZT/YlitFmAv9gX3F3LfqzpDECW1UgoSZ7HOvFFHvEwlTGh5qjE+FJvJ9u43QawH9YcyROtQS5zQTwPiq922qQPY544cTwiD1sgqDU4OhET/Yat3E56rt1MF1jjGn1nhGqSY+B36BQZ26HvVm9p0lkE4rvOOYqcBCp0QmrdUYPBO2X2guY46daWjo2i3OXAoqijQizZyD2/AQ5Rq4x7e2aI0HyYwmRlOGd5cZeF65eeckVZK6bg7iREQgKfAtd3/TDG1184dPBg13eJ5K9g+UWGIKanPHsvkSxKRlS3MXa/qqJloitT1XV1xxBHPFcMw7oOWoej64vxMJ5o9CTXUbeCdPPaJeRc+3X+yTlscvETdkcvau1X+QluJK5DnPiRiIiKBBvdX0Tfm90ga9PB3iQukUEwxtaz5UJIilML5uCDSB2V7Us2ZQd0oJFjoTaAC2RlPVbY/zOqt6DESyBG4hvjI2Aat+6yAah36kn6gTaAA2RlPXDav4Xp8pjaTjRrA8C/UYRoAhQBF4LBCiRFEQkX3bUVpXsvMgZj1YkSIrTSKTpbiqxVrRMEEVNMSbOawbF/dfyRoTUnNclkspynF06AK1IRExGipbteiIoIhLRMR/h49FjMXpAB0gbg0hWZyBGvY9wKu9GEyWKN4YZBNupRubHZK+cJR5lFZHRYGTqQFB/taSn/9p7lhHJ6r2IIUFPJO3B318Atfn4vBNZkuqAmAyy1rAaGTHqfaxTdfax6vRFWbwRYQbBdqr3xsCe7OFpP9XkHp7a/M/RiSw/dYjRKY3/sDrzY3ZvkqSD6fK0d1Zjb4w9u/e2vYk2A8Tb3Ild5usQk6G+1TymHJG0CfkWRo6nl0EkrdEZbed5juS4Trw5DAOX6FT18kwFCr8NhR0jQcepp2G0qpSnFAiSH8uIZP+1d3lkWInys0sxoBWJislA2rIdegZFIDI6Bh99PBpjRw9ABynxylhGJKszYtT7ykzIkLIYG8MMgu1UZ+LjFuoorfXpvLkJGg5PrjxJB9M6yF2r/lSWn8XSAa0gJXvdpS3RrmcQIiKjEfPRxxg9djQGdJBaTCSF6WVTsAGc3ZWgg0md1gVOqA3QIZJ8+scRSZsQfGtsBF4CkeyPtXyhlDXeeIMVS7oQ0GOKAEWAIvCaIECJZJMlktX471SyH4eBNUtHeeXOBFHUXGvivIYo8r2UofPS1iGS1fkz0JlESLR5A+NSb+oFkSH1Ve1W7WFpsEeyej/GuJD0KN6IP87nSeD3SHIeOo9Rybh55w7umPy/i/vPdNcSatDSOxDWX/Okh9cjSfrrrEoHM+moNr2CXmNqTyDemxBJF4w9oCKS+8e4sEFmvOOP6wXa4e7j80hW7x/DBnkSe06C6ari4U2IpMtYriiTnxpPiudEk+Vpb67G/jHObJs9Jx014ZGsxYl4b1Y3XMYeUN9qHtPGJ5La5cckqiv3J0RnuHtNfSoefIdBJGCM4xBsI0tvFffxzUA7MFJ/zPvZcP2eiVIEyY+lRJJnMqQ6HzM6k8jINnhjXCpu6gbqIk2s2q32ylhIJPePgQsJlOIdD3515/NIcqsWPDAq+aYZXb+DO3fvo15113h1PTHRlGLowV+N/BmdIWUY2LwxDqnGIGA3u1faMo+kML0k+vR32wCth9Fzoimd1gVOqA3QeSfxvbManUjy2wCtR5ISSd2nSo8pAhSBfyYClEg2USKpKNyBSBL0hbHHgPXGS/WsEkfFXU36jw9SDUd0AORXsKgHWRamnx7E+kFxLc7OJMEtGLSM3qUXyl3VXgXuqZebNphIcgFcGAeMSONb21eLM9OJ10p3j6R2v5DDBykotwpEvouF9tc86eElknWX8AVZ4sjYYegPfLsdAZSnYBjxWmr25nDBQRg4jEgzDg5CnJhnprOeRd09knWXvoAf2Y9mNxSmqxrGei3JXsD6/up+mQ9/bn9bab1X49IXfiD7Ou2G/sC7rxMoR8ow4rVU7TFVlWgeU6uJJLTpP4LXGweLgaIQ3wwkOqOf/sN6nakPDza8KFKjXSBmHBC+5RHq7q5HsC0J1GTF8nBB8iOcSNaenckGtWJaRmOXTloXrreKe+ol1RZ6JLlgLYzDCPCr+xlMJ9543T2Smn3UDvggpeHajrpfMN+f25ddryADtWcx05dM7LRE9C6dlCBaENTLcS0jksL0sinYgDr8Mt+f1WmyV7t+5OoE2oBGJpICbQAlkpyA00+KAEWgOSBAiWQTJJLKPy9i+QAXVX5E38k4pt0aJUwmybKvQaplXyHfFulHqyPj1Cc7MJSEPm8wkeRmkqXoMvu8UcATKG5jXTAhAI2wR1JZjM3hJOCKiYA1ij+w4l0y0NclkkBVzifsfj2J9wQc4XU4ylH4yxncLLPE0yO0v+ZJDy+RBIlS68ruC/SacEQ/rYpaKqpPTEY7EhnRZRQyWW6tRPHmcDYoDn/wFxJ5913jqK0kQiaZxBB7YQIvSNU4MbkdG73SZVRm/TJZmYUx7P5OT8QeNgZdfnMbYodGYWTcJjYVBIkySSJpir1MPKPqE5jcjkSBdcEoVUeJf1wdCVcGvuXC1hPJSuwebscG9Om5RBVJUq+jFVkY20r8aogkSR+YPR6eYgb2Yd/ivyv6wIaxw8BveDyBeo3U/SJEfoQTSc57Ju0yW5tSRdMcBW6vC2YnIixd2qos3oxwEhRHM0miKYw9IJEw3yV7fXWJJKqQ8wnZmyeBtwmdgbwQv5y5CYvUHZXIGqPav+sZe9hYB+U3sS12KKJGxmETSefBeYGlXTBbk1dG227F7XUIJhM/Fu6RZCPXWq2XTcMGVGaNUe279oyFsQmQ4+a2WAyNGom4Taq0UMJsQGMTSWE2gBJJrYzTI4oAReCfjwAlkk2JSNY8xi/pSzDCjySXF4FpEYgFZ/40IH5KPDm0BOPHjsW4L9Jx1zBwCK/MViNnfCuWhLh/uBelusEJleXIm9WdzfHXcCKp9dC1iNqpDnDDNagKV9dHoL27K5scXtp1gQXh9rl7+T4VuLWqL2zIXr5O8ch9rtcplB6ZBB+yB8uASKLqJKaQVBRMCwStuGq0v6zu9hYMdReDcQrDxgf1gSu0v+ZJjy4p0gTbIWTiUBwbwVPsEoFNdwwiFSkeYEcUCawjgdf4bHBzD4pbq9DXhuyt7IT43Od6sqQsPYJJPmSPFknDoA22A1TgUBxJNSKGS8QmGFe1A1Ek0JHEC+OzuZr4nhH3WwVyYslSVDGcQ7/G73ocvQJ5M/zY5X+O4ZtRRCCvOIQ4kn5E7IKITXe0QUjY4hR4sCOKDbwi8RoPbfXmMbWeSNbizAwf1rvuGLHZYF9lFS4v6wMnMcMSzZe9tJXtdk0+pvtKwNh0hl8nKZgW7+P7x7oyz2Ft+lOI/GhWKzBOiEnXnQQwj7fGI9kiCjvVQZy4llVdXY+I9u5wJQnipV2xoP68G4DiFlb1tWH3znaKz4W+upfiyCQfdu+1PpEEqk5OYdNOMC2CsG1egDgAAAlSSURBVOKq4W7SOtzeMhTuYgZOYRtRr7oT0cyJZZd0i51D8bW+IKMibwb8yLJ+x3BsJoKs8Ui2QNTOp3q6h6qrWB/RHu6uZLJCiq4LLmsn3rgVIkaYC9PLJmEDKnIQS5bdi50R+vXv2r4SoajIwww/sgzaEeGbi1T7bQXZgMYmksJsgFAiqSjaj4RxYzF23CIcfFTfu4fTJvpJEaAIUAT+XgQokWRs4NbxTbz5pqn/bohYwb3kuTySDGzcOpq5R6cs/0DMOaHe08ZFbWVs0dqvF3r14v57oodfB7jbS9SBYBg4dBmBNef4wvorcGtlH9aLJH1zHn7SG5SbFqbn+8awnjhG2gYDZ3yH9ENHcThzOxJH9YB753GYEEY8hbbQXfoqZJnei9PT4EMGU1IvhM1LQm5+Ho5mbMTcEd3g4joIazMT0JOkgrDrg8QLxSitMBzcme6D4Rnls0yM8SKkUAK3wDisSjmIwznp2JIQg67OHhg8rB/rjbMJ26zNcwklHmfFwteGJAJvg/7xa5CWm4ez+bnYs+4zhHjLwDB28J9x0qKlr8L6a34QbopIkuWUqTHekDAM7HwiMX9HNvLOn8ep/VsxN9KXTYYubRuDFN0RsfIZMsd4sYRI4haIuFUpOHg4B+lbEhDT1Rkeg4ehH5v+IAybdXKaKQpTEeMtYbHwiZyPHdl5OH/+FPZvnYtIX3swJBF9TIpFg2/y3BT3kxDtRcqToW3IZ1iT9COy0rdj2b8D4CphwDj0wvxz3LJrBQpTY+BNfrfzQeT8HcjOO4/zp/Zj69xI+JLk5dK2iEl5oBPkxTym1hNJ4MWpz1gSIhK74t34dUjLPoojWT/gy08C4dH2A0yIagOxSIbgrx9oRFOIzmhuNnugTonAkMkRMdw+Ssdzs9fznBQkP0+wdTAhO2K49p+BbRkZ2LXvJ5QozeONF6cxzYeQAym8wuYhKTcfeUczsHHuCHRzccWgtZlI6KlKzdEn8QKKSyuMJnX0e6DEs8wx8CL7ciVuCIxbhZSDh5GTvgUJMV3h7DEYw/qp0vaEbeZyr5LlFo+RFesLG4aBrE1/xK9JQ27eWeTn7sG6z0LgLSMy5o8ZJy1c+qq4j6RoL1YHZW1D8NmaJPyYlY7ty/6NAFci3w7oNf+cem/4C5ye5sNOkki9wjAvKRf5eUeRsXEuRnRzgeugtchM6KlKR9QnEReKS8GaQ6UpzAFBetkkbIAC95Oi4UV0WtYWIZ+tQdKPWUjfvgz/DnBl8XToNR8aEwAhNqCxiaQwGyCUSGpyoVq43FtfP+g3igBFgCLw9yBAiWR90fxEEvjMOKMOVMIRSUuifqqvYVpidJaaLHFE0qhOBmKZHZw930Dge58gYUceCk3yKx0iaVESbbVgKYpwYOo7cCXRVDX1M3D0G41tV0vVaSJsMGR7iUYSBQ2KlWXIXxoKT5l+PfYdI7HiXBmU8utYHdQSYnUbbIfvMgrIo2lAvQdKlF9Yg2E+quWyXL8YmScGLjiOwkOqtBOy4PUGycDr8CAnAe93doKYHZhzz5OBuEUXRCUeQZGFBB2C+lvPIFxnmaauR5KFo+oGUqf0gxfxMmqeI0l+bY/2YbOQccs4EI+y/ALWDPNRLSXk7mFk8By4AMcLD6lSGsiCsd4ggXfVjVRM6efFen1162Ls2yNsVgZ4qjL7xF7cSMGnfdtApos5I4ajz1AkHnukQwpJMVW4kToF/byIF4p7PuSTgX37MMzKuGUQiMc8pkKIJJQlOJkwAG0MZNmu0wdYe+kZzrD7gWXozaVo0Q1AxRfsQ/e8ToAqs6DpnFTcWYcg4sWTeCPuMEe6dS6w5NBq+VHi2cGJ7MQLJwOynktwVW4eb0CJsvylCPWU6T0/xr4jIlecQ5lSjuurg9BSrH62tsOxq74uKctxYc0w+LDLQTmZYCDzHIgFxwtxiE0xIQPZ06r3V/cAOQnvo7OTWK8tIkaMFl2ikHikSN9Dpnczz5cXN5DyaV8juRA7+mBo4jHoOpOUZflYGuppIPP26Bi5AufKlJBfX42glmSJNOmPLYazIJjCXNUWIXrZNGzAC9xI+RR92xjIhNgRPkMTcUwXOLar1tqAxieSQmwAJZI8OkN/oghQBP6xCDRfIvlaP1I5biwLgANfriyz/VKi4t5FHMlIRVLSbhzIu4lSSwmT2XKNT1YV/Yxctp40HMwvQIluYNXKezizLxWp6dk4dYM/UbhxiWZ+qStFQd4B7ElJQmrmcVwpfmHmYp1TykoUXT6B/XtTsDM5DftP/oqiSuuWC3KlvdL+kiA5JTdxJnsvkncmI23fUVy6V2FAxLiWcZ91KC3Iw4E9KUhKzcTxK8WwDKValNw8g+y9ySxG+45ewr2Khiy7qkVJQT5yMnYhOTUdh8/fRrnBKl2uxexnbQlunsnG3uSdSE7bh6OX7qFB1esVbtmXqoeXcSxzF5KSdmHfyat4YszVLSuogVfVXVmMt2QMpG/MxrkGtsE6+VHizz9O4ceUZOzKOISzv5daTryqivBzbgZSk5KQdjAfBfqGAPfO7ENqajqyT91AiYWqV1dagLwDe5CSlIrM41dguboX4fKJ/dibQmRpP07+WgSB6s4+ydqSAuTnZGBXcirSD5/HbZOCXIWin3ORkZqEpLSDyC8o0YugXHnvDPalpiI9+xRuaECoD3MhetlEbEBtCQryc5CxKxmp6Ydx/na5wfJ1A0WhNsAAEPqVIkARoAg0HQQokWw6z8LyligfYku4E9pNPqk3ILG8AHolRYAi8FohoHyElOhWbOTW4HW365k0eK16RhtLEaAIUAQoAhQBisBrigAlkq/hg6s8Oxtv2vtj7qUGuiVew77TJlMEmh0CdQ9xfEF/uIgZyLpMw3/5st00O1BohykCFAGKAEWAIkAR+LsRoETy734CtH6KAEWAIsCDQN0vKzD0nbfQxcOe3csrdu6LpRcpi+SBiv5EEaAIUAQoAhQBisDfgAAlkn8D6LRKigBFgCJQHwJ1v63Be/4+8PHrhZBRC7D3en3RaOorkZ6nCFAEKAIUAYoARYAi0HgIUCLZeFjSkigCFAGKAEWAIkARoAhQBCgCFAGKQLNAgBLJZvGYaScpAhQBigBFgCJAEaAIUAQoAhQBikDjIUCJZONhSUuiCFAEKAIUAYoARYAiQBGgCFAEKALNAoH/B3xelfJK99WVAAAAAElFTkSuQmCC;" parent="1" vertex="1">
          <mxGeometry x="40" y="-240" width="914" height="98" as="geometry" />
        </mxCell>
        <mxCell id="A-BzHaJAUe8YZKiwCgML-208" value="" style="verticalLabelPosition=bottom;shadow=0;dashed=0;align=center;html=1;verticalAlign=top;shape=mxgraph.electrical.logic_gates.logic_gate;operation=and;negating=1;direction=east;rotation=-180;" parent="1" vertex="1">
          <mxGeometry x="210" y="740" width="100" height="60" as="geometry" />
        </mxCell>
        <mxCell id="A-BzHaJAUe8YZKiwCgML-209" value="" style="endArrow=none;html=1;entryX=1;entryY=0.57;entryDx=0;entryDy=0;entryPerimeter=0;exitX=1;exitY=0.5;exitDx=0;exitDy=0;exitPerimeter=0;" parent="1" source="A-BzHaJAUe8YZKiwCgML-208" target="A-BzHaJAUe8YZKiwCgML-235" edge="1">
          <mxGeometry x="-140" y="50" width="50" height="50" as="geometry">
            <mxPoint x="90" y="580" as="sourcePoint" />
            <mxPoint x="120" y="770" as="targetPoint" />
          </mxGeometry>
        </mxCell>
        <mxCell id="A-BzHaJAUe8YZKiwCgML-210" value="" style="verticalLabelPosition=bottom;shadow=0;dashed=0;align=center;html=1;verticalAlign=top;shape=mxgraph.electrical.logic_gates.logic_gate;operation=and;negating=1;direction=east;rotation=-180;" parent="1" vertex="1">
          <mxGeometry x="210" y="650" width="100" height="60" as="geometry" />
        </mxCell>
        <mxCell id="A-BzHaJAUe8YZKiwCgML-211" value="" style="endArrow=none;html=1;entryX=1;entryY=0.57;entryDx=0;entryDy=0;entryPerimeter=0;exitX=1;exitY=0.5;exitDx=0;exitDy=0;exitPerimeter=0;" parent="1" source="A-BzHaJAUe8YZKiwCgML-210" target="A-BzHaJAUe8YZKiwCgML-238" edge="1">
          <mxGeometry x="-140" y="50" width="50" height="50" as="geometry">
            <mxPoint x="-20" y="490" as="sourcePoint" />
            <mxPoint x="120" y="680" as="targetPoint" />
          </mxGeometry>
        </mxCell>
        <mxCell id="A-BzHaJAUe8YZKiwCgML-212" value="" style="verticalLabelPosition=bottom;shadow=0;dashed=0;align=center;html=1;verticalAlign=top;shape=mxgraph.electrical.logic_gates.logic_gate;operation=and;negating=1;direction=east;rotation=-180;" parent="1" vertex="1">
          <mxGeometry x="210" y="560" width="100" height="60" as="geometry" />
        </mxCell>
        <mxCell id="A-BzHaJAUe8YZKiwCgML-213" value="" style="endArrow=none;html=1;entryX=1;entryY=0.57;entryDx=0;entryDy=0;entryPerimeter=0;exitX=1;exitY=0.5;exitDx=0;exitDy=0;exitPerimeter=0;" parent="1" source="A-BzHaJAUe8YZKiwCgML-212" target="A-BzHaJAUe8YZKiwCgML-241" edge="1">
          <mxGeometry x="-140" y="50" width="50" height="50" as="geometry">
            <mxPoint x="-140" y="400" as="sourcePoint" />
            <mxPoint x="120" y="590" as="targetPoint" />
          </mxGeometry>
        </mxCell>
        <mxCell id="A-BzHaJAUe8YZKiwCgML-214" value="" style="endArrow=classic;html=1;fontFamily=Helvetica;fontSize=11;fontColor=#000000;align=center;strokeColor=#000000;" parent="1" edge="1">
          <mxGeometry x="-140" y="45" width="50" height="50" as="geometry">
            <mxPoint x="360" y="785" as="sourcePoint" />
            <mxPoint x="360" y="85" as="targetPoint" />
          </mxGeometry>
        </mxCell>
        <mxCell id="A-BzHaJAUe8YZKiwCgML-215" value="" style="endArrow=none;html=1;exitX=0;exitY=0.25;exitDx=0;exitDy=0;exitPerimeter=0;entryX=0;entryY=0.25;entryDx=0;entryDy=0;entryPerimeter=0;" parent="1" source="A-BzHaJAUe8YZKiwCgML-208" edge="1">
          <mxGeometry x="-140" y="50" width="50" height="50" as="geometry">
            <mxPoint x="250" y="810" as="sourcePoint" />
            <mxPoint x="360" y="785" as="targetPoint" />
          </mxGeometry>
        </mxCell>
        <mxCell id="A-BzHaJAUe8YZKiwCgML-216" value="" style="endArrow=none;html=1;exitX=0;exitY=0.25;exitDx=0;exitDy=0;exitPerimeter=0;entryX=0;entryY=0.25;entryDx=0;entryDy=0;entryPerimeter=0;" parent="1" source="A-BzHaJAUe8YZKiwCgML-210" edge="1">
          <mxGeometry x="-140" y="50" width="50" height="50" as="geometry">
            <mxPoint x="340" y="690" as="sourcePoint" />
            <mxPoint x="360" y="695" as="targetPoint" />
          </mxGeometry>
        </mxCell>
        <mxCell id="A-BzHaJAUe8YZKiwCgML-217" value="" style="endArrow=none;html=1;exitX=0;exitY=0.25;exitDx=0;exitDy=0;exitPerimeter=0;entryX=0;entryY=0.25;entryDx=0;entryDy=0;entryPerimeter=0;" parent="1" source="A-BzHaJAUe8YZKiwCgML-212" edge="1">
          <mxGeometry x="-140" y="50" width="50" height="50" as="geometry">
            <mxPoint x="330" y="600" as="sourcePoint" />
            <mxPoint x="360" y="605" as="targetPoint" />
          </mxGeometry>
        </mxCell>
        <mxCell id="A-BzHaJAUe8YZKiwCgML-218" value="" style="verticalLabelPosition=bottom;shadow=0;dashed=0;align=center;html=1;verticalAlign=top;shape=mxgraph.electrical.logic_gates.logic_gate;operation=and;negating=1;direction=east;rotation=-180;" parent="1" vertex="1">
          <mxGeometry x="210" y="470" width="100" height="60" as="geometry" />
        </mxCell>
        <mxCell id="A-BzHaJAUe8YZKiwCgML-219" value="" style="endArrow=none;html=1;entryX=1;entryY=0.57;entryDx=0;entryDy=0;entryPerimeter=0;exitX=1;exitY=0.5;exitDx=0;exitDy=0;exitPerimeter=0;" parent="1" source="A-BzHaJAUe8YZKiwCgML-218" target="A-BzHaJAUe8YZKiwCgML-244" edge="1">
          <mxGeometry x="-140" y="50" width="50" height="50" as="geometry">
            <mxPoint x="90" y="310" as="sourcePoint" />
            <mxPoint x="120" y="500" as="targetPoint" />
          </mxGeometry>
        </mxCell>
        <mxCell id="A-BzHaJAUe8YZKiwCgML-220" value="" style="verticalLabelPosition=bottom;shadow=0;dashed=0;align=center;html=1;verticalAlign=top;shape=mxgraph.electrical.logic_gates.logic_gate;operation=and;negating=1;direction=east;rotation=-180;" parent="1" vertex="1">
          <mxGeometry x="210" y="380" width="100" height="60" as="geometry" />
        </mxCell>
        <mxCell id="A-BzHaJAUe8YZKiwCgML-221" value="" style="endArrow=none;html=1;entryX=1;entryY=0.57;entryDx=0;entryDy=0;entryPerimeter=0;exitX=1;exitY=0.5;exitDx=0;exitDy=0;exitPerimeter=0;" parent="1" source="A-BzHaJAUe8YZKiwCgML-220" target="A-BzHaJAUe8YZKiwCgML-247" edge="1">
          <mxGeometry x="-140" y="50" width="50" height="50" as="geometry">
            <mxPoint x="-20" y="220" as="sourcePoint" />
            <mxPoint x="120" y="410" as="targetPoint" />
          </mxGeometry>
        </mxCell>
        <mxCell id="A-BzHaJAUe8YZKiwCgML-222" value="" style="verticalLabelPosition=bottom;shadow=0;dashed=0;align=center;html=1;verticalAlign=top;shape=mxgraph.electrical.logic_gates.logic_gate;operation=and;negating=1;direction=east;rotation=-180;" parent="1" vertex="1">
          <mxGeometry x="210" y="290" width="100" height="60" as="geometry" />
        </mxCell>
        <mxCell id="A-BzHaJAUe8YZKiwCgML-223" value="" style="endArrow=none;html=1;entryX=1;entryY=0.57;entryDx=0;entryDy=0;entryPerimeter=0;exitX=1;exitY=0.5;exitDx=0;exitDy=0;exitPerimeter=0;" parent="1" source="A-BzHaJAUe8YZKiwCgML-222" target="A-BzHaJAUe8YZKiwCgML-250" edge="1">
          <mxGeometry x="-140" y="50" width="50" height="50" as="geometry">
            <mxPoint x="-140" y="130" as="sourcePoint" />
            <mxPoint x="120" y="320" as="targetPoint" />
          </mxGeometry>
        </mxCell>
        <mxCell id="A-BzHaJAUe8YZKiwCgML-224" value="" style="endArrow=none;html=1;exitX=0;exitY=0.25;exitDx=0;exitDy=0;exitPerimeter=0;entryX=0;entryY=0.25;entryDx=0;entryDy=0;entryPerimeter=0;" parent="1" source="A-BzHaJAUe8YZKiwCgML-218" edge="1">
          <mxGeometry x="-140" y="50" width="50" height="50" as="geometry">
            <mxPoint x="250" y="540" as="sourcePoint" />
            <mxPoint x="360" y="515" as="targetPoint" />
          </mxGeometry>
        </mxCell>
        <mxCell id="A-BzHaJAUe8YZKiwCgML-225" value="" style="endArrow=none;html=1;exitX=0;exitY=0.25;exitDx=0;exitDy=0;exitPerimeter=0;entryX=0;entryY=0.25;entryDx=0;entryDy=0;entryPerimeter=0;" parent="1" source="A-BzHaJAUe8YZKiwCgML-220" edge="1">
          <mxGeometry x="-140" y="50" width="50" height="50" as="geometry">
            <mxPoint x="340" y="420" as="sourcePoint" />
            <mxPoint x="360" y="425" as="targetPoint" />
          </mxGeometry>
        </mxCell>
        <mxCell id="A-BzHaJAUe8YZKiwCgML-226" value="" style="endArrow=none;html=1;exitX=0;exitY=0.25;exitDx=0;exitDy=0;exitPerimeter=0;entryX=0;entryY=0.25;entryDx=0;entryDy=0;entryPerimeter=0;" parent="1" source="A-BzHaJAUe8YZKiwCgML-222" edge="1">
          <mxGeometry x="-140" y="50" width="50" height="50" as="geometry">
            <mxPoint x="330" y="330" as="sourcePoint" />
            <mxPoint x="360" y="335" as="targetPoint" />
          </mxGeometry>
        </mxCell>
        <mxCell id="A-BzHaJAUe8YZKiwCgML-227" value="" style="verticalLabelPosition=bottom;shadow=0;dashed=0;align=center;html=1;verticalAlign=top;shape=mxgraph.electrical.logic_gates.logic_gate;operation=and;negating=1;direction=east;rotation=-180;" parent="1" vertex="1">
          <mxGeometry x="210" y="200" width="100" height="60" as="geometry" />
        </mxCell>
        <mxCell id="A-BzHaJAUe8YZKiwCgML-228" value="" style="endArrow=none;html=1;entryX=1;entryY=0.57;entryDx=0;entryDy=0;entryPerimeter=0;exitX=1;exitY=0.5;exitDx=0;exitDy=0;exitPerimeter=0;" parent="1" source="A-BzHaJAUe8YZKiwCgML-227" target="A-BzHaJAUe8YZKiwCgML-253" edge="1">
          <mxGeometry x="-140" y="50" width="50" height="50" as="geometry">
            <mxPoint x="90" y="40" as="sourcePoint" />
            <mxPoint x="120" y="230" as="targetPoint" />
          </mxGeometry>
        </mxCell>
        <mxCell id="A-BzHaJAUe8YZKiwCgML-229" value="" style="verticalLabelPosition=bottom;shadow=0;dashed=0;align=center;html=1;verticalAlign=top;shape=mxgraph.electrical.logic_gates.logic_gate;operation=and;negating=1;direction=east;rotation=-180;" parent="1" vertex="1">
          <mxGeometry x="210" y="110" width="100" height="60" as="geometry" />
        </mxCell>
        <mxCell id="A-BzHaJAUe8YZKiwCgML-230" value="" style="endArrow=none;html=1;entryX=1;entryY=0.57;entryDx=0;entryDy=0;entryPerimeter=0;exitX=1;exitY=0.5;exitDx=0;exitDy=0;exitPerimeter=0;" parent="1" source="A-BzHaJAUe8YZKiwCgML-229" target="A-BzHaJAUe8YZKiwCgML-256" edge="1">
          <mxGeometry x="-140" y="50" width="50" height="50" as="geometry">
            <mxPoint x="-20" y="-50" as="sourcePoint" />
            <mxPoint x="120" y="140" as="targetPoint" />
          </mxGeometry>
        </mxCell>
        <mxCell id="A-BzHaJAUe8YZKiwCgML-231" value="" style="endArrow=none;html=1;exitX=0;exitY=0.25;exitDx=0;exitDy=0;exitPerimeter=0;entryX=0;entryY=0.25;entryDx=0;entryDy=0;entryPerimeter=0;" parent="1" source="A-BzHaJAUe8YZKiwCgML-227" edge="1">
          <mxGeometry x="-140" y="50" width="50" height="50" as="geometry">
            <mxPoint x="250" y="270" as="sourcePoint" />
            <mxPoint x="360" y="245" as="targetPoint" />
          </mxGeometry>
        </mxCell>
        <mxCell id="A-BzHaJAUe8YZKiwCgML-232" value="" style="endArrow=none;html=1;exitX=0;exitY=0.25;exitDx=0;exitDy=0;exitPerimeter=0;entryX=0;entryY=0.25;entryDx=0;entryDy=0;entryPerimeter=0;" parent="1" source="A-BzHaJAUe8YZKiwCgML-229" edge="1">
          <mxGeometry x="-140" y="50" width="50" height="50" as="geometry">
            <mxPoint x="340" y="150" as="sourcePoint" />
            <mxPoint x="360" y="155" as="targetPoint" />
          </mxGeometry>
        </mxCell>
        <mxCell id="A-BzHaJAUe8YZKiwCgML-233" value="" style="pointerEvents=1;verticalLabelPosition=bottom;shadow=0;dashed=0;align=center;html=1;verticalAlign=top;shape=mxgraph.electrical.resistors.resistor_2;rotation=-360;direction=east;" parent="1" vertex="1">
          <mxGeometry x="-94" y="760" width="100" height="20" as="geometry" />
        </mxCell>
        <mxCell id="A-BzHaJAUe8YZKiwCgML-234" value="" style="endArrow=none;html=1;exitX=1;exitY=0.5;exitDx=0;exitDy=0;exitPerimeter=0;entryX=0;entryY=0.57;entryDx=0;entryDy=0;entryPerimeter=0;" parent="1" source="A-BzHaJAUe8YZKiwCgML-233" target="A-BzHaJAUe8YZKiwCgML-235" edge="1">
          <mxGeometry x="-140" y="50" width="50" height="50" as="geometry">
            <mxPoint y="640" as="sourcePoint" />
            <mxPoint x="-26" y="770" as="targetPoint" />
          </mxGeometry>
        </mxCell>
        <mxCell id="A-BzHaJAUe8YZKiwCgML-235" value="" style="verticalLabelPosition=bottom;shadow=0;dashed=0;align=center;html=1;verticalAlign=top;shape=mxgraph.electrical.opto_electronics.led_2;pointerEvents=1;rotation=-360;direction=east;fillColor=#008a00;strokeColor=#005700;fontColor=#ffffff;" parent="1" vertex="1">
          <mxGeometry x="20" y="730" width="100" height="70" as="geometry" />
        </mxCell>
        <mxCell id="A-BzHaJAUe8YZKiwCgML-236" value="" style="pointerEvents=1;verticalLabelPosition=bottom;shadow=0;dashed=0;align=center;html=1;verticalAlign=top;shape=mxgraph.electrical.resistors.resistor_2;rotation=-360;direction=east;" parent="1" vertex="1">
          <mxGeometry x="-94" y="670" width="100" height="20" as="geometry" />
        </mxCell>
        <mxCell id="A-BzHaJAUe8YZKiwCgML-237" value="" style="endArrow=none;html=1;exitX=1;exitY=0.5;exitDx=0;exitDy=0;exitPerimeter=0;entryX=0;entryY=0.57;entryDx=0;entryDy=0;entryPerimeter=0;" parent="1" source="A-BzHaJAUe8YZKiwCgML-236" target="A-BzHaJAUe8YZKiwCgML-238" edge="1">
          <mxGeometry x="-140" y="50" width="50" height="50" as="geometry">
            <mxPoint y="550" as="sourcePoint" />
            <mxPoint x="-26" y="680" as="targetPoint" />
          </mxGeometry>
        </mxCell>
        <mxCell id="A-BzHaJAUe8YZKiwCgML-238" value="" style="verticalLabelPosition=bottom;shadow=0;dashed=0;align=center;html=1;verticalAlign=top;shape=mxgraph.electrical.opto_electronics.led_2;pointerEvents=1;rotation=-360;direction=east;fillColor=#008a00;strokeColor=#005700;fontColor=#ffffff;" parent="1" vertex="1">
          <mxGeometry x="20" y="640" width="100" height="70" as="geometry" />
        </mxCell>
        <mxCell id="A-BzHaJAUe8YZKiwCgML-239" value="" style="pointerEvents=1;verticalLabelPosition=bottom;shadow=0;dashed=0;align=center;html=1;verticalAlign=top;shape=mxgraph.electrical.resistors.resistor_2;rotation=-360;direction=east;" parent="1" vertex="1">
          <mxGeometry x="-94" y="580" width="100" height="20" as="geometry" />
        </mxCell>
        <mxCell id="A-BzHaJAUe8YZKiwCgML-240" value="" style="endArrow=none;html=1;exitX=1;exitY=0.5;exitDx=0;exitDy=0;exitPerimeter=0;entryX=0;entryY=0.57;entryDx=0;entryDy=0;entryPerimeter=0;" parent="1" source="A-BzHaJAUe8YZKiwCgML-239" target="A-BzHaJAUe8YZKiwCgML-241" edge="1">
          <mxGeometry x="-140" y="50" width="50" height="50" as="geometry">
            <mxPoint y="460" as="sourcePoint" />
            <mxPoint x="-26" y="590" as="targetPoint" />
          </mxGeometry>
        </mxCell>
        <mxCell id="A-BzHaJAUe8YZKiwCgML-241" value="" style="verticalLabelPosition=bottom;shadow=0;dashed=0;align=center;html=1;verticalAlign=top;shape=mxgraph.electrical.opto_electronics.led_2;pointerEvents=1;rotation=-360;direction=east;fillColor=#008a00;strokeColor=#005700;fontColor=#ffffff;" parent="1" vertex="1">
          <mxGeometry x="20" y="550" width="100" height="70" as="geometry" />
        </mxCell>
        <mxCell id="A-BzHaJAUe8YZKiwCgML-242" value="" style="pointerEvents=1;verticalLabelPosition=bottom;shadow=0;dashed=0;align=center;html=1;verticalAlign=top;shape=mxgraph.electrical.resistors.resistor_2;rotation=-360;direction=east;" parent="1" vertex="1">
          <mxGeometry x="-94" y="490" width="100" height="20" as="geometry" />
        </mxCell>
        <mxCell id="A-BzHaJAUe8YZKiwCgML-243" value="" style="endArrow=none;html=1;exitX=1;exitY=0.5;exitDx=0;exitDy=0;exitPerimeter=0;entryX=0;entryY=0.57;entryDx=0;entryDy=0;entryPerimeter=0;" parent="1" source="A-BzHaJAUe8YZKiwCgML-242" target="A-BzHaJAUe8YZKiwCgML-244" edge="1">
          <mxGeometry x="-140" y="50" width="50" height="50" as="geometry">
            <mxPoint y="370" as="sourcePoint" />
            <mxPoint x="-26" y="500" as="targetPoint" />
          </mxGeometry>
        </mxCell>
        <mxCell id="A-BzHaJAUe8YZKiwCgML-244" value="" style="verticalLabelPosition=bottom;shadow=0;dashed=0;align=center;html=1;verticalAlign=top;shape=mxgraph.electrical.opto_electronics.led_2;pointerEvents=1;rotation=-360;direction=east;fillColor=#008a00;strokeColor=#005700;fontColor=#ffffff;" parent="1" vertex="1">
          <mxGeometry x="20" y="460" width="100" height="70" as="geometry" />
        </mxCell>
        <mxCell id="A-BzHaJAUe8YZKiwCgML-245" value="" style="pointerEvents=1;verticalLabelPosition=bottom;shadow=0;dashed=0;align=center;html=1;verticalAlign=top;shape=mxgraph.electrical.resistors.resistor_2;rotation=-360;direction=east;" parent="1" vertex="1">
          <mxGeometry x="-94" y="400" width="100" height="20" as="geometry" />
        </mxCell>
        <mxCell id="A-BzHaJAUe8YZKiwCgML-246" value="" style="endArrow=none;html=1;exitX=1;exitY=0.5;exitDx=0;exitDy=0;exitPerimeter=0;entryX=0;entryY=0.57;entryDx=0;entryDy=0;entryPerimeter=0;" parent="1" source="A-BzHaJAUe8YZKiwCgML-245" target="A-BzHaJAUe8YZKiwCgML-247" edge="1">
          <mxGeometry x="-140" y="50" width="50" height="50" as="geometry">
            <mxPoint y="280" as="sourcePoint" />
            <mxPoint x="-26" y="410" as="targetPoint" />
          </mxGeometry>
        </mxCell>
        <mxCell id="A-BzHaJAUe8YZKiwCgML-247" value="" style="verticalLabelPosition=bottom;shadow=0;dashed=0;align=center;html=1;verticalAlign=top;shape=mxgraph.electrical.opto_electronics.led_2;pointerEvents=1;rotation=-360;direction=east;fillColor=#e3c800;strokeColor=#B09500;fontColor=#000000;" parent="1" vertex="1">
          <mxGeometry x="20" y="370" width="100" height="70" as="geometry" />
        </mxCell>
        <mxCell id="A-BzHaJAUe8YZKiwCgML-248" value="" style="pointerEvents=1;verticalLabelPosition=bottom;shadow=0;dashed=0;align=center;html=1;verticalAlign=top;shape=mxgraph.electrical.resistors.resistor_2;rotation=-360;direction=east;" parent="1" vertex="1">
          <mxGeometry x="-94" y="310" width="100" height="20" as="geometry" />
        </mxCell>
        <mxCell id="A-BzHaJAUe8YZKiwCgML-249" value="" style="endArrow=none;html=1;exitX=1;exitY=0.5;exitDx=0;exitDy=0;exitPerimeter=0;entryX=0;entryY=0.57;entryDx=0;entryDy=0;entryPerimeter=0;" parent="1" source="A-BzHaJAUe8YZKiwCgML-248" target="A-BzHaJAUe8YZKiwCgML-250" edge="1">
          <mxGeometry x="-140" y="50" width="50" height="50" as="geometry">
            <mxPoint y="190" as="sourcePoint" />
            <mxPoint x="-26" y="320" as="targetPoint" />
          </mxGeometry>
        </mxCell>
        <mxCell id="A-BzHaJAUe8YZKiwCgML-250" value="" style="verticalLabelPosition=bottom;shadow=0;dashed=0;align=center;html=1;verticalAlign=top;shape=mxgraph.electrical.opto_electronics.led_2;pointerEvents=1;rotation=-360;direction=east;fillColor=#e3c800;strokeColor=#B09500;fontColor=#000000;" parent="1" vertex="1">
          <mxGeometry x="20" y="280" width="100" height="70" as="geometry" />
        </mxCell>
        <mxCell id="A-BzHaJAUe8YZKiwCgML-251" value="" style="pointerEvents=1;verticalLabelPosition=bottom;shadow=0;dashed=0;align=center;html=1;verticalAlign=top;shape=mxgraph.electrical.resistors.resistor_2;rotation=-360;direction=east;" parent="1" vertex="1">
          <mxGeometry x="-94" y="220" width="100" height="20" as="geometry" />
        </mxCell>
        <mxCell id="A-BzHaJAUe8YZKiwCgML-252" value="" style="endArrow=none;html=1;exitX=1;exitY=0.5;exitDx=0;exitDy=0;exitPerimeter=0;entryX=0;entryY=0.57;entryDx=0;entryDy=0;entryPerimeter=0;" parent="1" source="A-BzHaJAUe8YZKiwCgML-251" target="A-BzHaJAUe8YZKiwCgML-253" edge="1">
          <mxGeometry x="-140" y="50" width="50" height="50" as="geometry">
            <mxPoint y="100" as="sourcePoint" />
            <mxPoint x="-26" y="230" as="targetPoint" />
          </mxGeometry>
        </mxCell>
        <mxCell id="A-BzHaJAUe8YZKiwCgML-253" value="" style="verticalLabelPosition=bottom;shadow=0;dashed=0;align=center;html=1;verticalAlign=top;shape=mxgraph.electrical.opto_electronics.led_2;pointerEvents=1;rotation=-360;direction=east;fillColor=#fa6800;strokeColor=#C73500;fontColor=#000000;" parent="1" vertex="1">
          <mxGeometry x="20" y="190" width="100" height="70" as="geometry" />
        </mxCell>
        <mxCell id="A-BzHaJAUe8YZKiwCgML-254" value="" style="pointerEvents=1;verticalLabelPosition=bottom;shadow=0;dashed=0;align=center;html=1;verticalAlign=top;shape=mxgraph.electrical.resistors.resistor_2;rotation=-360;direction=east;" parent="1" vertex="1">
          <mxGeometry x="-94" y="130" width="100" height="20" as="geometry" />
        </mxCell>
        <mxCell id="A-BzHaJAUe8YZKiwCgML-255" value="" style="endArrow=none;html=1;exitX=1;exitY=0.5;exitDx=0;exitDy=0;exitPerimeter=0;entryX=0;entryY=0.57;entryDx=0;entryDy=0;entryPerimeter=0;" parent="1" source="A-BzHaJAUe8YZKiwCgML-254" target="A-BzHaJAUe8YZKiwCgML-256" edge="1">
          <mxGeometry x="-140" y="50" width="50" height="50" as="geometry">
            <mxPoint y="10" as="sourcePoint" />
            <mxPoint x="-26" y="140" as="targetPoint" />
          </mxGeometry>
        </mxCell>
        <mxCell id="A-BzHaJAUe8YZKiwCgML-256" value="" style="verticalLabelPosition=bottom;shadow=0;dashed=0;align=center;html=1;verticalAlign=top;shape=mxgraph.electrical.opto_electronics.led_2;pointerEvents=1;rotation=-360;direction=east;fillColor=#e51400;strokeColor=#B20000;fontColor=#ffffff;" parent="1" vertex="1">
          <mxGeometry x="20" y="100" width="100" height="70" as="geometry" />
        </mxCell>
        <mxCell id="A-BzHaJAUe8YZKiwCgML-257" value="" style="endArrow=classic;html=1;fontFamily=Helvetica;fontSize=11;fontColor=#000000;align=center;strokeColor=#000000;" parent="1" edge="1">
          <mxGeometry x="-140" y="50" width="50" height="50" as="geometry">
            <mxPoint x="-120" y="770" as="sourcePoint" />
            <mxPoint x="-120" y="90" as="targetPoint" />
          </mxGeometry>
        </mxCell>
        <mxCell id="A-BzHaJAUe8YZKiwCgML-258" value="" style="endArrow=none;html=1;exitX=0;exitY=0.5;exitDx=0;exitDy=0;exitPerimeter=0;entryX=0;entryY=0.5;entryDx=0;entryDy=0;entryPerimeter=0;" parent="1" source="A-BzHaJAUe8YZKiwCgML-233" edge="1">
          <mxGeometry x="-140" y="50" width="50" height="50" as="geometry">
            <mxPoint y="790" as="sourcePoint" />
            <mxPoint x="-120" y="770" as="targetPoint" />
          </mxGeometry>
        </mxCell>
        <mxCell id="A-BzHaJAUe8YZKiwCgML-259" value="" style="endArrow=none;html=1;exitX=0;exitY=0.5;exitDx=0;exitDy=0;exitPerimeter=0;entryX=0;entryY=0.5;entryDx=0;entryDy=0;entryPerimeter=0;" parent="1" source="A-BzHaJAUe8YZKiwCgML-236" edge="1">
          <mxGeometry x="-140" y="50" width="50" height="50" as="geometry">
            <mxPoint x="-110" y="680" as="sourcePoint" />
            <mxPoint x="-120" y="680" as="targetPoint" />
          </mxGeometry>
        </mxCell>
        <mxCell id="A-BzHaJAUe8YZKiwCgML-260" value="" style="endArrow=none;html=1;exitX=0;exitY=0.5;exitDx=0;exitDy=0;exitPerimeter=0;entryX=0;entryY=0.5;entryDx=0;entryDy=0;entryPerimeter=0;" parent="1" source="A-BzHaJAUe8YZKiwCgML-239" edge="1">
          <mxGeometry x="-140" y="50" width="50" height="50" as="geometry">
            <mxPoint x="-100" y="590" as="sourcePoint" />
            <mxPoint x="-120" y="590" as="targetPoint" />
          </mxGeometry>
        </mxCell>
        <mxCell id="A-BzHaJAUe8YZKiwCgML-261" value="" style="endArrow=none;html=1;exitX=0;exitY=0.5;exitDx=0;exitDy=0;exitPerimeter=0;entryX=0;entryY=0.5;entryDx=0;entryDy=0;entryPerimeter=0;" parent="1" source="A-BzHaJAUe8YZKiwCgML-242" edge="1">
          <mxGeometry x="-140" y="50" width="50" height="50" as="geometry">
            <mxPoint x="-220" y="500" as="sourcePoint" />
            <mxPoint x="-120" y="500" as="targetPoint" />
          </mxGeometry>
        </mxCell>
        <mxCell id="A-BzHaJAUe8YZKiwCgML-262" value="" style="endArrow=none;html=1;exitX=0;exitY=0.5;exitDx=0;exitDy=0;exitPerimeter=0;entryX=0;entryY=0.5;entryDx=0;entryDy=0;entryPerimeter=0;" parent="1" source="A-BzHaJAUe8YZKiwCgML-245" edge="1">
          <mxGeometry x="-140" y="50" width="50" height="50" as="geometry">
            <mxPoint x="-230" y="410" as="sourcePoint" />
            <mxPoint x="-120" y="410" as="targetPoint" />
          </mxGeometry>
        </mxCell>
        <mxCell id="A-BzHaJAUe8YZKiwCgML-263" value="" style="endArrow=none;html=1;exitX=0;exitY=0.5;exitDx=0;exitDy=0;exitPerimeter=0;entryX=0;entryY=0.5;entryDx=0;entryDy=0;entryPerimeter=0;" parent="1" source="A-BzHaJAUe8YZKiwCgML-248" edge="1">
          <mxGeometry x="-140" y="50" width="50" height="50" as="geometry">
            <mxPoint x="-240" y="320" as="sourcePoint" />
            <mxPoint x="-120" y="320" as="targetPoint" />
          </mxGeometry>
        </mxCell>
        <mxCell id="A-BzHaJAUe8YZKiwCgML-264" value="" style="endArrow=none;html=1;exitX=0;exitY=0.5;exitDx=0;exitDy=0;exitPerimeter=0;entryX=0;entryY=0.5;entryDx=0;entryDy=0;entryPerimeter=0;" parent="1" source="A-BzHaJAUe8YZKiwCgML-251" edge="1">
          <mxGeometry x="-140" y="50" width="50" height="50" as="geometry">
            <mxPoint x="-230" y="220" as="sourcePoint" />
            <mxPoint x="-120" y="230" as="targetPoint" />
          </mxGeometry>
        </mxCell>
        <mxCell id="A-BzHaJAUe8YZKiwCgML-265" value="" style="endArrow=none;html=1;exitX=0;exitY=0.5;exitDx=0;exitDy=0;exitPerimeter=0;entryX=0;entryY=0.5;entryDx=0;entryDy=0;entryPerimeter=0;" parent="1" source="A-BzHaJAUe8YZKiwCgML-254" edge="1">
          <mxGeometry x="-140" y="50" width="50" height="50" as="geometry">
            <mxPoint x="-110" y="140" as="sourcePoint" />
            <mxPoint x="-120" y="140" as="targetPoint" />
          </mxGeometry>
        </mxCell>
        <mxCell id="A-BzHaJAUe8YZKiwCgML-266" value="VCC" style="text;html=1;strokeColor=none;fillColor=none;align=center;verticalAlign=middle;whiteSpace=wrap;rounded=0;" parent="1" vertex="1">
          <mxGeometry x="-140" y="60" width="40" height="20" as="geometry" />
        </mxCell>
        <mxCell id="A-BzHaJAUe8YZKiwCgML-267" value="VCC" style="text;html=1;strokeColor=none;fillColor=none;align=center;verticalAlign=middle;whiteSpace=wrap;rounded=0;" parent="1" vertex="1">
          <mxGeometry x="340" y="60" width="40" height="20" as="geometry" />
        </mxCell>
        <mxCell id="A-BzHaJAUe8YZKiwCgML-275" value="" style="verticalLabelPosition=bottom;shadow=0;dashed=0;align=center;html=1;verticalAlign=top;shape=mxgraph.electrical.logic_gates.logic_gate;operation=and;negating=1;" parent="1" vertex="1">
          <mxGeometry x="970" y="110" width="100" height="60" as="geometry" />
        </mxCell>
        <mxCell id="A-BzHaJAUe8YZKiwCgML-276" value="VCC" style="text;html=1;strokeColor=none;fillColor=none;align=center;verticalAlign=middle;whiteSpace=wrap;rounded=0;" parent="1" vertex="1">
          <mxGeometry x="900" y="60" width="40" height="20" as="geometry" />
        </mxCell>
        <mxCell id="A-BzHaJAUe8YZKiwCgML-277" value="" style="pointerEvents=1;verticalLabelPosition=bottom;shadow=0;dashed=0;align=center;html=1;verticalAlign=top;shape=mxgraph.electrical.resistors.resistor_2;" parent="1" vertex="1">
          <mxGeometry x="1160" y="130" width="100" height="20" as="geometry" />
        </mxCell>
        <mxCell id="A-BzHaJAUe8YZKiwCgML-278" value="" style="endArrow=none;html=1;entryX=0;entryY=0.5;entryDx=0;entryDy=0;entryPerimeter=0;exitX=1;exitY=0.5;exitDx=0;exitDy=0;exitPerimeter=0;" parent="1" source="A-BzHaJAUe8YZKiwCgML-275" target="A-BzHaJAUe8YZKiwCgML-277" edge="1">
          <mxGeometry width="50" height="50" relative="1" as="geometry">
            <mxPoint x="1190" y="330" as="sourcePoint" />
            <mxPoint x="1240" y="280" as="targetPoint" />
          </mxGeometry>
        </mxCell>
        <mxCell id="A-BzHaJAUe8YZKiwCgML-279" value="" style="endArrow=none;html=1;exitX=1;exitY=0.5;exitDx=0;exitDy=0;exitPerimeter=0;entryX=0;entryY=0.57;entryDx=0;entryDy=0;entryPerimeter=0;" parent="1" source="A-BzHaJAUe8YZKiwCgML-277" target="A-BzHaJAUe8YZKiwCgML-280" edge="1">
          <mxGeometry width="50" height="50" relative="1" as="geometry">
            <mxPoint x="1050" y="330" as="sourcePoint" />
            <mxPoint x="1076" y="200" as="targetPoint" />
          </mxGeometry>
        </mxCell>
        <mxCell id="A-BzHaJAUe8YZKiwCgML-280" value="" style="verticalLabelPosition=bottom;shadow=0;dashed=0;align=center;html=1;verticalAlign=top;shape=mxgraph.electrical.opto_electronics.led_2;pointerEvents=1;fillColor=#e51400;strokeColor=#B20000;fontColor=#ffffff;" parent="1" vertex="1">
          <mxGeometry x="1270" y="100" width="100" height="70" as="geometry" />
        </mxCell>
        <mxCell id="A-BzHaJAUe8YZKiwCgML-281" value="" style="verticalLabelPosition=bottom;shadow=0;dashed=0;align=center;html=1;verticalAlign=top;shape=mxgraph.electrical.logic_gates.logic_gate;operation=and;negating=1;" parent="1" vertex="1">
          <mxGeometry x="970" y="200" width="100" height="60" as="geometry" />
        </mxCell>
        <mxCell id="A-BzHaJAUe8YZKiwCgML-282" value="" style="endArrow=none;html=1;entryX=0;entryY=0.5;entryDx=0;entryDy=0;entryPerimeter=0;exitX=1;exitY=0.5;exitDx=0;exitDy=0;exitPerimeter=0;" parent="1" source="A-BzHaJAUe8YZKiwCgML-281" target="A-BzHaJAUe8YZKiwCgML-310" edge="1">
          <mxGeometry width="50" height="50" relative="1" as="geometry">
            <mxPoint x="1300" y="420" as="sourcePoint" />
            <mxPoint x="1250" y="230" as="targetPoint" />
          </mxGeometry>
        </mxCell>
        <mxCell id="A-BzHaJAUe8YZKiwCgML-283" value="" style="verticalLabelPosition=bottom;shadow=0;dashed=0;align=center;html=1;verticalAlign=top;shape=mxgraph.electrical.logic_gates.logic_gate;operation=and;negating=1;" parent="1" vertex="1">
          <mxGeometry x="970" y="290" width="100" height="60" as="geometry" />
        </mxCell>
        <mxCell id="A-BzHaJAUe8YZKiwCgML-284" value="" style="endArrow=none;html=1;entryX=0;entryY=0.5;entryDx=0;entryDy=0;entryPerimeter=0;exitX=1;exitY=0.5;exitDx=0;exitDy=0;exitPerimeter=0;" parent="1" source="A-BzHaJAUe8YZKiwCgML-283" target="A-BzHaJAUe8YZKiwCgML-313" edge="1">
          <mxGeometry width="50" height="50" relative="1" as="geometry">
            <mxPoint x="1420" y="510" as="sourcePoint" />
            <mxPoint x="1250" y="320" as="targetPoint" />
          </mxGeometry>
        </mxCell>
        <mxCell id="A-BzHaJAUe8YZKiwCgML-285" value="" style="endArrow=none;html=1;entryX=0.5;entryY=1;entryDx=0;entryDy=0;" parent="1" target="A-BzHaJAUe8YZKiwCgML-276" edge="1">
          <mxGeometry width="50" height="50" relative="1" as="geometry">
            <mxPoint x="920" y="754.9999999999998" as="sourcePoint" />
            <mxPoint x="920" y="75" as="targetPoint" />
          </mxGeometry>
        </mxCell>
        <mxCell id="A-BzHaJAUe8YZKiwCgML-286" value="" style="endArrow=none;html=1;exitX=0;exitY=0.25;exitDx=0;exitDy=0;exitPerimeter=0;" parent="1" source="A-BzHaJAUe8YZKiwCgML-275" edge="1">
          <mxGeometry width="50" height="50" relative="1" as="geometry">
            <mxPoint x="1030" y="100" as="sourcePoint" />
            <mxPoint x="920" y="125" as="targetPoint" />
          </mxGeometry>
        </mxCell>
        <mxCell id="A-BzHaJAUe8YZKiwCgML-287" value="" style="endArrow=none;html=1;exitX=0;exitY=0.25;exitDx=0;exitDy=0;exitPerimeter=0;" parent="1" source="A-BzHaJAUe8YZKiwCgML-281" edge="1">
          <mxGeometry width="50" height="50" relative="1" as="geometry">
            <mxPoint x="940" y="220" as="sourcePoint" />
            <mxPoint x="920" y="215" as="targetPoint" />
          </mxGeometry>
        </mxCell>
        <mxCell id="A-BzHaJAUe8YZKiwCgML-288" value="" style="endArrow=none;html=1;exitX=0;exitY=0.25;exitDx=0;exitDy=0;exitPerimeter=0;" parent="1" source="A-BzHaJAUe8YZKiwCgML-283" edge="1">
          <mxGeometry width="50" height="50" relative="1" as="geometry">
            <mxPoint x="950" y="310" as="sourcePoint" />
            <mxPoint x="920" y="305" as="targetPoint" />
          </mxGeometry>
        </mxCell>
        <mxCell id="A-BzHaJAUe8YZKiwCgML-289" value="" style="verticalLabelPosition=bottom;shadow=0;dashed=0;align=center;html=1;verticalAlign=top;shape=mxgraph.electrical.logic_gates.logic_gate;operation=and;negating=1;" parent="1" vertex="1">
          <mxGeometry x="970" y="380" width="100" height="60" as="geometry" />
        </mxCell>
        <mxCell id="A-BzHaJAUe8YZKiwCgML-290" value="" style="pointerEvents=1;verticalLabelPosition=bottom;shadow=0;dashed=0;align=center;html=1;verticalAlign=top;shape=mxgraph.electrical.resistors.resistor_2;" parent="1" vertex="1">
          <mxGeometry x="1160" y="400" width="100" height="20" as="geometry" />
        </mxCell>
        <mxCell id="A-BzHaJAUe8YZKiwCgML-291" value="" style="endArrow=none;html=1;entryX=0;entryY=0.5;entryDx=0;entryDy=0;entryPerimeter=0;exitX=1;exitY=0.5;exitDx=0;exitDy=0;exitPerimeter=0;" parent="1" source="A-BzHaJAUe8YZKiwCgML-289" target="A-BzHaJAUe8YZKiwCgML-290" edge="1">
          <mxGeometry width="50" height="50" relative="1" as="geometry">
            <mxPoint x="1190" y="600" as="sourcePoint" />
            <mxPoint x="1240" y="550" as="targetPoint" />
          </mxGeometry>
        </mxCell>
        <mxCell id="A-BzHaJAUe8YZKiwCgML-292" value="" style="endArrow=none;html=1;exitX=1;exitY=0.5;exitDx=0;exitDy=0;exitPerimeter=0;entryX=0;entryY=0.57;entryDx=0;entryDy=0;entryPerimeter=0;" parent="1" source="A-BzHaJAUe8YZKiwCgML-290" target="A-BzHaJAUe8YZKiwCgML-293" edge="1">
          <mxGeometry width="50" height="50" relative="1" as="geometry">
            <mxPoint x="1050" y="600" as="sourcePoint" />
            <mxPoint x="1076" y="470" as="targetPoint" />
          </mxGeometry>
        </mxCell>
        <mxCell id="A-BzHaJAUe8YZKiwCgML-293" value="" style="verticalLabelPosition=bottom;shadow=0;dashed=0;align=center;html=1;verticalAlign=top;shape=mxgraph.electrical.opto_electronics.led_2;pointerEvents=1;fillColor=#e3c800;strokeColor=#B09500;fontColor=#000000;" parent="1" vertex="1">
          <mxGeometry x="1270" y="370" width="100" height="70" as="geometry" />
        </mxCell>
        <mxCell id="A-BzHaJAUe8YZKiwCgML-294" value="" style="verticalLabelPosition=bottom;shadow=0;dashed=0;align=center;html=1;verticalAlign=top;shape=mxgraph.electrical.logic_gates.logic_gate;operation=and;negating=1;" parent="1" vertex="1">
          <mxGeometry x="970" y="470" width="100" height="60" as="geometry" />
        </mxCell>
        <mxCell id="A-BzHaJAUe8YZKiwCgML-295" value="" style="endArrow=none;html=1;entryX=0;entryY=0.5;entryDx=0;entryDy=0;entryPerimeter=0;exitX=1;exitY=0.5;exitDx=0;exitDy=0;exitPerimeter=0;" parent="1" source="A-BzHaJAUe8YZKiwCgML-294" target="A-BzHaJAUe8YZKiwCgML-316" edge="1">
          <mxGeometry width="50" height="50" relative="1" as="geometry">
            <mxPoint x="1300" y="690" as="sourcePoint" />
            <mxPoint x="1250" y="500" as="targetPoint" />
          </mxGeometry>
        </mxCell>
        <mxCell id="A-BzHaJAUe8YZKiwCgML-296" value="" style="verticalLabelPosition=bottom;shadow=0;dashed=0;align=center;html=1;verticalAlign=top;shape=mxgraph.electrical.logic_gates.logic_gate;operation=and;negating=1;" parent="1" vertex="1">
          <mxGeometry x="970" y="560" width="100" height="60" as="geometry" />
        </mxCell>
        <mxCell id="A-BzHaJAUe8YZKiwCgML-297" value="" style="endArrow=none;html=1;entryX=0;entryY=0.5;entryDx=0;entryDy=0;entryPerimeter=0;exitX=1;exitY=0.5;exitDx=0;exitDy=0;exitPerimeter=0;" parent="1" source="A-BzHaJAUe8YZKiwCgML-296" target="A-BzHaJAUe8YZKiwCgML-319" edge="1">
          <mxGeometry width="50" height="50" relative="1" as="geometry">
            <mxPoint x="1420" y="780" as="sourcePoint" />
            <mxPoint x="1250" y="590" as="targetPoint" />
          </mxGeometry>
        </mxCell>
        <mxCell id="A-BzHaJAUe8YZKiwCgML-298" value="" style="endArrow=none;html=1;exitX=0;exitY=0.25;exitDx=0;exitDy=0;exitPerimeter=0;" parent="1" source="A-BzHaJAUe8YZKiwCgML-289" edge="1">
          <mxGeometry width="50" height="50" relative="1" as="geometry">
            <mxPoint x="1030" y="370" as="sourcePoint" />
            <mxPoint x="920" y="395" as="targetPoint" />
          </mxGeometry>
        </mxCell>
        <mxCell id="A-BzHaJAUe8YZKiwCgML-299" value="" style="endArrow=none;html=1;exitX=0;exitY=0.25;exitDx=0;exitDy=0;exitPerimeter=0;" parent="1" source="A-BzHaJAUe8YZKiwCgML-294" edge="1">
          <mxGeometry width="50" height="50" relative="1" as="geometry">
            <mxPoint x="940" y="490" as="sourcePoint" />
            <mxPoint x="920" y="484.9999999999998" as="targetPoint" />
          </mxGeometry>
        </mxCell>
        <mxCell id="A-BzHaJAUe8YZKiwCgML-300" value="" style="endArrow=none;html=1;exitX=0;exitY=0.25;exitDx=0;exitDy=0;exitPerimeter=0;" parent="1" source="A-BzHaJAUe8YZKiwCgML-296" edge="1">
          <mxGeometry width="50" height="50" relative="1" as="geometry">
            <mxPoint x="950" y="580" as="sourcePoint" />
            <mxPoint x="920" y="574.9999999999998" as="targetPoint" />
          </mxGeometry>
        </mxCell>
        <mxCell id="A-BzHaJAUe8YZKiwCgML-301" value="" style="verticalLabelPosition=bottom;shadow=0;dashed=0;align=center;html=1;verticalAlign=top;shape=mxgraph.electrical.logic_gates.logic_gate;operation=and;negating=1;" parent="1" vertex="1">
          <mxGeometry x="970" y="650" width="100" height="60" as="geometry" />
        </mxCell>
        <mxCell id="A-BzHaJAUe8YZKiwCgML-302" value="" style="pointerEvents=1;verticalLabelPosition=bottom;shadow=0;dashed=0;align=center;html=1;verticalAlign=top;shape=mxgraph.electrical.resistors.resistor_2;" parent="1" vertex="1">
          <mxGeometry x="1160" y="670" width="100" height="20" as="geometry" />
        </mxCell>
        <mxCell id="A-BzHaJAUe8YZKiwCgML-303" value="" style="endArrow=none;html=1;entryX=0;entryY=0.5;entryDx=0;entryDy=0;entryPerimeter=0;exitX=1;exitY=0.5;exitDx=0;exitDy=0;exitPerimeter=0;" parent="1" source="A-BzHaJAUe8YZKiwCgML-301" target="A-BzHaJAUe8YZKiwCgML-302" edge="1">
          <mxGeometry width="50" height="50" relative="1" as="geometry">
            <mxPoint x="1190" y="870" as="sourcePoint" />
            <mxPoint x="1240" y="820" as="targetPoint" />
          </mxGeometry>
        </mxCell>
        <mxCell id="A-BzHaJAUe8YZKiwCgML-304" value="" style="endArrow=none;html=1;exitX=1;exitY=0.5;exitDx=0;exitDy=0;exitPerimeter=0;entryX=0;entryY=0.57;entryDx=0;entryDy=0;entryPerimeter=0;" parent="1" source="A-BzHaJAUe8YZKiwCgML-302" target="A-BzHaJAUe8YZKiwCgML-305" edge="1">
          <mxGeometry width="50" height="50" relative="1" as="geometry">
            <mxPoint x="1050" y="870" as="sourcePoint" />
            <mxPoint x="1076" y="740" as="targetPoint" />
          </mxGeometry>
        </mxCell>
        <mxCell id="A-BzHaJAUe8YZKiwCgML-305" value="" style="verticalLabelPosition=bottom;shadow=0;dashed=0;align=center;html=1;verticalAlign=top;shape=mxgraph.electrical.opto_electronics.led_2;pointerEvents=1;fillColor=#008a00;strokeColor=#005700;fontColor=#ffffff;" parent="1" vertex="1">
          <mxGeometry x="1270" y="640" width="100" height="70" as="geometry" />
        </mxCell>
        <mxCell id="A-BzHaJAUe8YZKiwCgML-306" value="" style="verticalLabelPosition=bottom;shadow=0;dashed=0;align=center;html=1;verticalAlign=top;shape=mxgraph.electrical.logic_gates.logic_gate;operation=and;negating=1;" parent="1" vertex="1">
          <mxGeometry x="970" y="740" width="100" height="60" as="geometry" />
        </mxCell>
        <mxCell id="A-BzHaJAUe8YZKiwCgML-307" value="" style="endArrow=none;html=1;entryX=0;entryY=0.5;entryDx=0;entryDy=0;entryPerimeter=0;exitX=1;exitY=0.5;exitDx=0;exitDy=0;exitPerimeter=0;" parent="1" source="A-BzHaJAUe8YZKiwCgML-306" target="A-BzHaJAUe8YZKiwCgML-322" edge="1">
          <mxGeometry width="50" height="50" relative="1" as="geometry">
            <mxPoint x="1300" y="960" as="sourcePoint" />
            <mxPoint x="1250" y="770" as="targetPoint" />
          </mxGeometry>
        </mxCell>
        <mxCell id="A-BzHaJAUe8YZKiwCgML-308" value="" style="endArrow=none;html=1;exitX=0;exitY=0.25;exitDx=0;exitDy=0;exitPerimeter=0;" parent="1" source="A-BzHaJAUe8YZKiwCgML-301" edge="1">
          <mxGeometry width="50" height="50" relative="1" as="geometry">
            <mxPoint x="1030" y="640" as="sourcePoint" />
            <mxPoint x="920" y="664.9999999999998" as="targetPoint" />
          </mxGeometry>
        </mxCell>
        <mxCell id="A-BzHaJAUe8YZKiwCgML-309" value="" style="endArrow=none;html=1;exitX=0;exitY=0.25;exitDx=0;exitDy=0;exitPerimeter=0;" parent="1" source="A-BzHaJAUe8YZKiwCgML-306" edge="1">
          <mxGeometry width="50" height="50" relative="1" as="geometry">
            <mxPoint x="940" y="760" as="sourcePoint" />
            <mxPoint x="920" y="754.9999999999998" as="targetPoint" />
          </mxGeometry>
        </mxCell>
        <mxCell id="A-BzHaJAUe8YZKiwCgML-310" value="" style="pointerEvents=1;verticalLabelPosition=bottom;shadow=0;dashed=0;align=center;html=1;verticalAlign=top;shape=mxgraph.electrical.resistors.resistor_2;" parent="1" vertex="1">
          <mxGeometry x="1160" y="220" width="100" height="20" as="geometry" />
        </mxCell>
        <mxCell id="A-BzHaJAUe8YZKiwCgML-311" value="" style="endArrow=none;html=1;exitX=1;exitY=0.5;exitDx=0;exitDy=0;exitPerimeter=0;entryX=0;entryY=0.57;entryDx=0;entryDy=0;entryPerimeter=0;" parent="1" source="A-BzHaJAUe8YZKiwCgML-310" target="A-BzHaJAUe8YZKiwCgML-312" edge="1">
          <mxGeometry width="50" height="50" relative="1" as="geometry">
            <mxPoint x="1050" y="420" as="sourcePoint" />
            <mxPoint x="1076" y="290" as="targetPoint" />
          </mxGeometry>
        </mxCell>
        <mxCell id="A-BzHaJAUe8YZKiwCgML-312" value="" style="verticalLabelPosition=bottom;shadow=0;dashed=0;align=center;html=1;verticalAlign=top;shape=mxgraph.electrical.opto_electronics.led_2;pointerEvents=1;fillColor=#fa6800;strokeColor=#C73500;fontColor=#000000;" parent="1" vertex="1">
          <mxGeometry x="1270" y="190" width="100" height="70" as="geometry" />
        </mxCell>
        <mxCell id="A-BzHaJAUe8YZKiwCgML-313" value="" style="pointerEvents=1;verticalLabelPosition=bottom;shadow=0;dashed=0;align=center;html=1;verticalAlign=top;shape=mxgraph.electrical.resistors.resistor_2;" parent="1" vertex="1">
          <mxGeometry x="1160" y="310" width="100" height="20" as="geometry" />
        </mxCell>
        <mxCell id="A-BzHaJAUe8YZKiwCgML-314" value="" style="endArrow=none;html=1;exitX=1;exitY=0.5;exitDx=0;exitDy=0;exitPerimeter=0;entryX=0;entryY=0.57;entryDx=0;entryDy=0;entryPerimeter=0;" parent="1" source="A-BzHaJAUe8YZKiwCgML-313" target="A-BzHaJAUe8YZKiwCgML-315" edge="1">
          <mxGeometry width="50" height="50" relative="1" as="geometry">
            <mxPoint x="1050" y="510" as="sourcePoint" />
            <mxPoint x="1076" y="380" as="targetPoint" />
          </mxGeometry>
        </mxCell>
        <mxCell id="A-BzHaJAUe8YZKiwCgML-315" value="" style="verticalLabelPosition=bottom;shadow=0;dashed=0;align=center;html=1;verticalAlign=top;shape=mxgraph.electrical.opto_electronics.led_2;pointerEvents=1;fillColor=#e3c800;strokeColor=#B09500;fontColor=#000000;" parent="1" vertex="1">
          <mxGeometry x="1270" y="280" width="100" height="70" as="geometry" />
        </mxCell>
        <mxCell id="A-BzHaJAUe8YZKiwCgML-316" value="" style="pointerEvents=1;verticalLabelPosition=bottom;shadow=0;dashed=0;align=center;html=1;verticalAlign=top;shape=mxgraph.electrical.resistors.resistor_2;" parent="1" vertex="1">
          <mxGeometry x="1160" y="490" width="100" height="20" as="geometry" />
        </mxCell>
        <mxCell id="A-BzHaJAUe8YZKiwCgML-317" value="" style="endArrow=none;html=1;exitX=1;exitY=0.5;exitDx=0;exitDy=0;exitPerimeter=0;entryX=0;entryY=0.57;entryDx=0;entryDy=0;entryPerimeter=0;" parent="1" source="A-BzHaJAUe8YZKiwCgML-316" target="A-BzHaJAUe8YZKiwCgML-318" edge="1">
          <mxGeometry width="50" height="50" relative="1" as="geometry">
            <mxPoint x="1050" y="690" as="sourcePoint" />
            <mxPoint x="1076" y="560" as="targetPoint" />
          </mxGeometry>
        </mxCell>
        <mxCell id="A-BzHaJAUe8YZKiwCgML-318" value="" style="verticalLabelPosition=bottom;shadow=0;dashed=0;align=center;html=1;verticalAlign=top;shape=mxgraph.electrical.opto_electronics.led_2;pointerEvents=1;fillColor=#008a00;strokeColor=#005700;fontColor=#ffffff;" parent="1" vertex="1">
          <mxGeometry x="1270" y="460" width="100" height="70" as="geometry" />
        </mxCell>
        <mxCell id="A-BzHaJAUe8YZKiwCgML-319" value="" style="pointerEvents=1;verticalLabelPosition=bottom;shadow=0;dashed=0;align=center;html=1;verticalAlign=top;shape=mxgraph.electrical.resistors.resistor_2;" parent="1" vertex="1">
          <mxGeometry x="1160" y="580" width="100" height="20" as="geometry" />
        </mxCell>
        <mxCell id="A-BzHaJAUe8YZKiwCgML-320" value="" style="endArrow=none;html=1;exitX=1;exitY=0.5;exitDx=0;exitDy=0;exitPerimeter=0;entryX=0;entryY=0.57;entryDx=0;entryDy=0;entryPerimeter=0;" parent="1" source="A-BzHaJAUe8YZKiwCgML-319" target="A-BzHaJAUe8YZKiwCgML-321" edge="1">
          <mxGeometry width="50" height="50" relative="1" as="geometry">
            <mxPoint x="1050" y="780" as="sourcePoint" />
            <mxPoint x="1076" y="650" as="targetPoint" />
          </mxGeometry>
        </mxCell>
        <mxCell id="A-BzHaJAUe8YZKiwCgML-321" value="" style="verticalLabelPosition=bottom;shadow=0;dashed=0;align=center;html=1;verticalAlign=top;shape=mxgraph.electrical.opto_electronics.led_2;pointerEvents=1;fillColor=#008a00;strokeColor=#005700;fontColor=#ffffff;" parent="1" vertex="1">
          <mxGeometry x="1270" y="550" width="100" height="70" as="geometry" />
        </mxCell>
        <mxCell id="A-BzHaJAUe8YZKiwCgML-322" value="" style="pointerEvents=1;verticalLabelPosition=bottom;shadow=0;dashed=0;align=center;html=1;verticalAlign=top;shape=mxgraph.electrical.resistors.resistor_2;" parent="1" vertex="1">
          <mxGeometry x="1160" y="760" width="100" height="20" as="geometry" />
        </mxCell>
        <mxCell id="A-BzHaJAUe8YZKiwCgML-323" value="" style="endArrow=none;html=1;exitX=1;exitY=0.5;exitDx=0;exitDy=0;exitPerimeter=0;entryX=0;entryY=0.57;entryDx=0;entryDy=0;entryPerimeter=0;" parent="1" source="A-BzHaJAUe8YZKiwCgML-322" target="A-BzHaJAUe8YZKiwCgML-324" edge="1">
          <mxGeometry width="50" height="50" relative="1" as="geometry">
            <mxPoint x="1050" y="960" as="sourcePoint" />
            <mxPoint x="1076" y="830" as="targetPoint" />
          </mxGeometry>
        </mxCell>
        <mxCell id="A-BzHaJAUe8YZKiwCgML-324" value="" style="verticalLabelPosition=bottom;shadow=0;dashed=0;align=center;html=1;verticalAlign=top;shape=mxgraph.electrical.opto_electronics.led_2;pointerEvents=1;fillColor=#008a00;strokeColor=#005700;fontColor=#ffffff;" parent="1" vertex="1">
          <mxGeometry x="1270" y="730" width="100" height="70" as="geometry" />
        </mxCell>
        <mxCell id="A-BzHaJAUe8YZKiwCgML-325" value="" style="endArrow=none;html=1;entryX=0.5;entryY=1;entryDx=0;entryDy=0;" parent="1" edge="1">
          <mxGeometry width="50" height="50" relative="1" as="geometry">
            <mxPoint x="1370" y="839.9999999999998" as="sourcePoint" />
            <mxPoint x="1370" y="140" as="targetPoint" />
          </mxGeometry>
        </mxCell>
        <mxCell id="A-BzHaJAUe8YZKiwCgML-326" value="" style="pointerEvents=1;verticalLabelPosition=bottom;shadow=0;dashed=0;align=center;html=1;verticalAlign=top;shape=mxgraph.electrical.signal_sources.protective_earth;" parent="1" vertex="1">
          <mxGeometry x="1358" y="840" width="25" height="20" as="geometry" />
        </mxCell>
        <mxCell id="A-BzHaJAUe8YZKiwCgML-176" value="Circuito" style="rounded=0;whiteSpace=wrap;html=1;rotation=-90;" parent="1" vertex="1">
          <mxGeometry x="600" y="970" width="120" height="260" as="geometry" />
        </mxCell>
        <mxCell id="A-BzHaJAUe8YZKiwCgML-181" value="" style="endArrow=none;html=1;entryX=0;entryY=0.5;entryDx=0;entryDy=0;" parent="1" edge="1">
          <mxGeometry x="520" y="890" width="50" height="50" as="geometry">
            <mxPoint x="560" y="1040" as="sourcePoint" />
            <mxPoint x="560" y="920" as="targetPoint" />
          </mxGeometry>
        </mxCell>
        <mxCell id="A-BzHaJAUe8YZKiwCgML-182" value="&lt;b&gt;L1&lt;/b&gt;" style="text;html=1;strokeColor=none;fillColor=none;align=center;verticalAlign=middle;whiteSpace=wrap;rounded=0;rotation=-90;" parent="1" vertex="1">
          <mxGeometry x="540" y="890" width="40" height="20" as="geometry" />
        </mxCell>
        <mxCell id="A-BzHaJAUe8YZKiwCgML-190" value="" style="endArrow=none;html=1;entryX=0;entryY=0.5;entryDx=0;entryDy=0;" parent="1" edge="1">
          <mxGeometry x="520" y="890" width="50" height="50" as="geometry">
            <mxPoint x="590" y="1040" as="sourcePoint" />
            <mxPoint x="590" y="920" as="targetPoint" />
          </mxGeometry>
        </mxCell>
        <mxCell id="A-BzHaJAUe8YZKiwCgML-191" value="&lt;b&gt;L2&lt;/b&gt;" style="text;html=1;strokeColor=none;fillColor=none;align=center;verticalAlign=middle;whiteSpace=wrap;rounded=0;rotation=-90;" parent="1" vertex="1">
          <mxGeometry x="570" y="890" width="40" height="20" as="geometry" />
        </mxCell>
        <mxCell id="A-BzHaJAUe8YZKiwCgML-192" value="" style="endArrow=none;html=1;entryX=0;entryY=0.5;entryDx=0;entryDy=0;" parent="1" edge="1">
          <mxGeometry x="520" y="890" width="50" height="50" as="geometry">
            <mxPoint x="620" y="1040" as="sourcePoint" />
            <mxPoint x="620" y="920" as="targetPoint" />
          </mxGeometry>
        </mxCell>
        <mxCell id="A-BzHaJAUe8YZKiwCgML-193" value="&lt;b&gt;L3&lt;/b&gt;" style="text;html=1;strokeColor=none;fillColor=none;align=center;verticalAlign=middle;whiteSpace=wrap;rounded=0;rotation=-90;" parent="1" vertex="1">
          <mxGeometry x="600" y="890" width="40" height="20" as="geometry" />
        </mxCell>
        <mxCell id="A-BzHaJAUe8YZKiwCgML-194" value="" style="endArrow=none;html=1;entryX=0;entryY=0.5;entryDx=0;entryDy=0;" parent="1" edge="1">
          <mxGeometry x="520" y="890" width="50" height="50" as="geometry">
            <mxPoint x="650" y="1040" as="sourcePoint" />
            <mxPoint x="650" y="920" as="targetPoint" />
          </mxGeometry>
        </mxCell>
        <mxCell id="A-BzHaJAUe8YZKiwCgML-195" value="&lt;b&gt;L4&lt;/b&gt;" style="text;html=1;strokeColor=none;fillColor=none;align=center;verticalAlign=middle;whiteSpace=wrap;rounded=0;rotation=-90;" parent="1" vertex="1">
          <mxGeometry x="630" y="890" width="40" height="20" as="geometry" />
        </mxCell>
        <mxCell id="A-BzHaJAUe8YZKiwCgML-198" value="" style="endArrow=none;html=1;entryX=0;entryY=0.5;entryDx=0;entryDy=0;" parent="1" edge="1">
          <mxGeometry x="520" y="890" width="50" height="50" as="geometry">
            <mxPoint x="680" y="1040" as="sourcePoint" />
            <mxPoint x="680" y="920" as="targetPoint" />
          </mxGeometry>
        </mxCell>
        <mxCell id="A-BzHaJAUe8YZKiwCgML-199" value="&lt;b&gt;L5&lt;/b&gt;" style="text;html=1;strokeColor=none;fillColor=none;align=center;verticalAlign=middle;whiteSpace=wrap;rounded=0;rotation=-90;" parent="1" vertex="1">
          <mxGeometry x="660" y="890" width="40" height="20" as="geometry" />
        </mxCell>
        <mxCell id="A-BzHaJAUe8YZKiwCgML-200" value="" style="endArrow=none;html=1;entryX=0;entryY=0.5;entryDx=0;entryDy=0;" parent="1" edge="1">
          <mxGeometry x="520" y="890" width="50" height="50" as="geometry">
            <mxPoint x="710" y="1040" as="sourcePoint" />
            <mxPoint x="710" y="920" as="targetPoint" />
          </mxGeometry>
        </mxCell>
        <mxCell id="A-BzHaJAUe8YZKiwCgML-201" value="&lt;b&gt;L6&lt;/b&gt;" style="text;html=1;strokeColor=none;fillColor=none;align=center;verticalAlign=middle;whiteSpace=wrap;rounded=0;rotation=-90;" parent="1" vertex="1">
          <mxGeometry x="690" y="890" width="40" height="20" as="geometry" />
        </mxCell>
        <mxCell id="A-BzHaJAUe8YZKiwCgML-202" value="" style="endArrow=none;html=1;entryX=0;entryY=0.5;entryDx=0;entryDy=0;" parent="1" edge="1">
          <mxGeometry x="520" y="890" width="50" height="50" as="geometry">
            <mxPoint x="740" y="1040" as="sourcePoint" />
            <mxPoint x="740" y="920" as="targetPoint" />
          </mxGeometry>
        </mxCell>
        <mxCell id="A-BzHaJAUe8YZKiwCgML-203" value="&lt;b&gt;L7&lt;/b&gt;" style="text;html=1;strokeColor=none;fillColor=none;align=center;verticalAlign=middle;whiteSpace=wrap;rounded=0;rotation=-90;" parent="1" vertex="1">
          <mxGeometry x="720" y="890" width="40" height="20" as="geometry" />
        </mxCell>
        <mxCell id="A-BzHaJAUe8YZKiwCgML-204" value="" style="endArrow=none;html=1;entryX=0;entryY=0.5;entryDx=0;entryDy=0;" parent="1" edge="1">
          <mxGeometry x="520" y="890" width="50" height="50" as="geometry">
            <mxPoint x="770" y="1040" as="sourcePoint" />
            <mxPoint x="770" y="920" as="targetPoint" />
          </mxGeometry>
        </mxCell>
        <mxCell id="A-BzHaJAUe8YZKiwCgML-205" value="&lt;b&gt;L8&lt;/b&gt;" style="text;html=1;strokeColor=none;fillColor=none;align=center;verticalAlign=middle;whiteSpace=wrap;rounded=0;rotation=-90;" parent="1" vertex="1">
          <mxGeometry x="750" y="890" width="40" height="20" as="geometry" />
        </mxCell>
        <mxCell id="A-BzHaJAUe8YZKiwCgML-180" value="&lt;b&gt;X&lt;/b&gt;" style="text;html=1;strokeColor=none;fillColor=none;align=center;verticalAlign=middle;whiteSpace=wrap;rounded=0;rotation=-90;" parent="1" vertex="1">
          <mxGeometry x="555" y="1299" width="40" height="20" as="geometry" />
        </mxCell>
        <mxCell id="A-BzHaJAUe8YZKiwCgML-183" value="" style="endArrow=none;html=1;entryX=0;entryY=0.13;entryDx=0;entryDy=0;entryPerimeter=0;" parent="1" edge="1">
          <mxGeometry x="570" y="1160" width="50" height="50" as="geometry">
            <mxPoint x="625" y="1285" as="sourcePoint" />
            <mxPoint x="625" y="1165" as="targetPoint" />
          </mxGeometry>
        </mxCell>
        <mxCell id="A-BzHaJAUe8YZKiwCgML-184" value="&lt;b&gt;AC/KC&lt;/b&gt;" style="text;html=1;strokeColor=none;fillColor=none;align=center;verticalAlign=middle;whiteSpace=wrap;rounded=0;rotation=-90;" parent="1" vertex="1">
          <mxGeometry x="605" y="1299" width="40" height="20" as="geometry" />
        </mxCell>
        <mxCell id="A-BzHaJAUe8YZKiwCgML-185" value="" style="endArrow=none;html=1;entryX=0;entryY=0.13;entryDx=0;entryDy=0;entryPerimeter=0;" parent="1" edge="1">
          <mxGeometry x="570" y="1160" width="50" height="50" as="geometry">
            <mxPoint x="685" y="1285" as="sourcePoint" />
            <mxPoint x="685" y="1165" as="targetPoint" />
          </mxGeometry>
        </mxCell>
        <mxCell id="A-BzHaJAUe8YZKiwCgML-186" value="&lt;b&gt;ACUM&lt;/b&gt;" style="text;html=1;strokeColor=none;fillColor=none;align=center;verticalAlign=middle;whiteSpace=wrap;rounded=0;rotation=-90;" parent="1" vertex="1">
          <mxGeometry x="665" y="1299" width="40" height="20" as="geometry" />
        </mxCell>
        <mxCell id="A-BzHaJAUe8YZKiwCgML-187" value="" style="endArrow=none;html=1;entryX=0;entryY=0.13;entryDx=0;entryDy=0;entryPerimeter=0;" parent="1" edge="1">
          <mxGeometry x="570" y="1160" width="50" height="50" as="geometry">
            <mxPoint x="745" y="1285" as="sourcePoint" />
            <mxPoint x="745" y="1165" as="targetPoint" />
          </mxGeometry>
        </mxCell>
        <mxCell id="A-BzHaJAUe8YZKiwCgML-188" value="&lt;b&gt;BORRADO&lt;/b&gt;" style="text;html=1;strokeColor=none;fillColor=none;align=center;verticalAlign=middle;whiteSpace=wrap;rounded=0;rotation=-90;" parent="1" vertex="1">
          <mxGeometry x="725" y="1315" width="40" height="20" as="geometry" />
        </mxCell>
        <mxCell id="A-BzHaJAUe8YZKiwCgML-206" value="" style="endArrow=none;html=1;" parent="1" edge="1">
          <mxGeometry x="570" y="1160" width="50" height="50" as="geometry">
            <mxPoint x="575" y="1289" as="sourcePoint" />
            <mxPoint x="575" y="1165" as="targetPoint" />
          </mxGeometry>
        </mxCell>
        <mxCell id="A-BzHaJAUe8YZKiwCgML-358" value="" style="group" parent="1" vertex="1" connectable="0">
          <mxGeometry x="770" y="755" height="30" as="geometry" />
        </mxCell>
        <mxCell id="A-BzHaJAUe8YZKiwCgML-356" value="" style="endArrow=none;html=1;entryX=0;entryY=0.75;entryDx=0;entryDy=0;entryPerimeter=0;" parent="A-BzHaJAUe8YZKiwCgML-358" target="A-BzHaJAUe8YZKiwCgML-208" edge="1">
          <mxGeometry x="-50.83000000000004" y="-27.5" width="50" height="50" as="geometry">
            <mxPoint y="105" as="sourcePoint" />
            <mxPoint x="-430" y="-90" as="targetPoint" />
            <Array as="points">
              <mxPoint />
            </Array>
          </mxGeometry>
        </mxCell>
        <mxCell id="A-BzHaJAUe8YZKiwCgML-357" value="" style="endArrow=none;html=1;entryX=0;entryY=0.75;entryDx=0;entryDy=0;entryPerimeter=0;" parent="A-BzHaJAUe8YZKiwCgML-358" target="A-BzHaJAUe8YZKiwCgML-306" edge="1">
          <mxGeometry width="50" height="50" relative="1" as="geometry">
            <mxPoint y="30" as="sourcePoint" />
            <mxPoint x="200" y="25" as="targetPoint" />
          </mxGeometry>
        </mxCell>
        <mxCell id="A-BzHaJAUe8YZKiwCgML-359" value="" style="group" parent="1" vertex="1" connectable="0">
          <mxGeometry x="740" y="665" height="30" as="geometry" />
        </mxCell>
        <mxCell id="A-BzHaJAUe8YZKiwCgML-354" value="" style="endArrow=none;html=1;entryX=0;entryY=0.75;entryDx=0;entryDy=0;entryPerimeter=0;" parent="A-BzHaJAUe8YZKiwCgML-359" target="A-BzHaJAUe8YZKiwCgML-210" edge="1">
          <mxGeometry x="-50.83000000000004" y="62.5" width="50" height="50" as="geometry">
            <mxPoint y="195" as="sourcePoint" />
            <mxPoint x="-400" y="-90" as="targetPoint" />
            <Array as="points">
              <mxPoint />
            </Array>
          </mxGeometry>
        </mxCell>
        <mxCell id="A-BzHaJAUe8YZKiwCgML-355" value="" style="endArrow=none;html=1;entryX=0;entryY=0.75;entryDx=0;entryDy=0;entryPerimeter=0;" parent="A-BzHaJAUe8YZKiwCgML-359" target="A-BzHaJAUe8YZKiwCgML-301" edge="1">
          <mxGeometry width="50" height="50" relative="1" as="geometry">
            <mxPoint y="30" as="sourcePoint" />
            <mxPoint x="225" y="35" as="targetPoint" />
          </mxGeometry>
        </mxCell>
        <mxCell id="A-BzHaJAUe8YZKiwCgML-360" value="" style="group" parent="1" vertex="1" connectable="0">
          <mxGeometry x="710" y="575" height="30" as="geometry" />
        </mxCell>
        <mxCell id="A-BzHaJAUe8YZKiwCgML-352" value="" style="endArrow=none;html=1;entryX=0;entryY=0.75;entryDx=0;entryDy=0;entryPerimeter=0;" parent="A-BzHaJAUe8YZKiwCgML-360" target="A-BzHaJAUe8YZKiwCgML-212" edge="1">
          <mxGeometry x="-50.83000000000004" y="152.5" width="50" height="50" as="geometry">
            <mxPoint y="285" as="sourcePoint" />
            <mxPoint x="-370" y="-87.50000000000045" as="targetPoint" />
            <Array as="points">
              <mxPoint />
            </Array>
          </mxGeometry>
        </mxCell>
        <mxCell id="A-BzHaJAUe8YZKiwCgML-353" value="" style="endArrow=none;html=1;entryX=0;entryY=0.75;entryDx=0;entryDy=0;entryPerimeter=0;" parent="A-BzHaJAUe8YZKiwCgML-360" target="A-BzHaJAUe8YZKiwCgML-296" edge="1">
          <mxGeometry width="50" height="50" relative="1" as="geometry">
            <mxPoint y="30" as="sourcePoint" />
            <mxPoint x="240" y="24.999999999999545" as="targetPoint" />
          </mxGeometry>
        </mxCell>
        <mxCell id="A-BzHaJAUe8YZKiwCgML-361" value="" style="group" parent="1" vertex="1" connectable="0">
          <mxGeometry x="680" y="485" height="30" as="geometry" />
        </mxCell>
        <mxCell id="A-BzHaJAUe8YZKiwCgML-349" value="" style="endArrow=none;html=1;entryX=0;entryY=0.75;entryDx=0;entryDy=0;entryPerimeter=0;" parent="A-BzHaJAUe8YZKiwCgML-361" target="A-BzHaJAUe8YZKiwCgML-218" edge="1">
          <mxGeometry x="-50.83000000000004" y="240" width="50" height="50" as="geometry">
            <mxPoint y="375" as="sourcePoint" />
            <mxPoint x="-340" y="-90" as="targetPoint" />
            <Array as="points">
              <mxPoint />
            </Array>
          </mxGeometry>
        </mxCell>
        <mxCell id="A-BzHaJAUe8YZKiwCgML-350" value="" style="endArrow=none;html=1;entryX=0;entryY=0.75;entryDx=0;entryDy=0;entryPerimeter=0;" parent="A-BzHaJAUe8YZKiwCgML-361" target="A-BzHaJAUe8YZKiwCgML-294" edge="1">
          <mxGeometry width="50" height="50" relative="1" as="geometry">
            <mxPoint y="30" as="sourcePoint" />
            <mxPoint x="280" y="35" as="targetPoint" />
          </mxGeometry>
        </mxCell>
        <mxCell id="A-BzHaJAUe8YZKiwCgML-362" value="" style="group" parent="1" vertex="1" connectable="0">
          <mxGeometry x="650" y="395" height="30" as="geometry" />
        </mxCell>
        <mxCell id="A-BzHaJAUe8YZKiwCgML-346" value="" style="endArrow=none;html=1;entryX=0;entryY=0.75;entryDx=0;entryDy=0;entryPerimeter=0;" parent="A-BzHaJAUe8YZKiwCgML-362" target="A-BzHaJAUe8YZKiwCgML-220" edge="1">
          <mxGeometry x="-50.83000000000004" y="330" width="50" height="50" as="geometry">
            <mxPoint y="465" as="sourcePoint" />
            <mxPoint x="-300" y="-90" as="targetPoint" />
            <Array as="points">
              <mxPoint />
            </Array>
          </mxGeometry>
        </mxCell>
        <mxCell id="A-BzHaJAUe8YZKiwCgML-347" value="" style="endArrow=none;html=1;entryX=0;entryY=0.75;entryDx=0;entryDy=0;entryPerimeter=0;" parent="A-BzHaJAUe8YZKiwCgML-362" target="A-BzHaJAUe8YZKiwCgML-289" edge="1">
          <mxGeometry width="50" height="50" relative="1" as="geometry">
            <mxPoint y="30" as="sourcePoint" />
            <mxPoint x="320" y="35" as="targetPoint" />
          </mxGeometry>
        </mxCell>
        <mxCell id="A-BzHaJAUe8YZKiwCgML-363" value="" style="group" parent="1" vertex="1" connectable="0">
          <mxGeometry x="620" y="305" height="30" as="geometry" />
        </mxCell>
        <mxCell id="A-BzHaJAUe8YZKiwCgML-344" value="" style="endArrow=none;html=1;entryX=0;entryY=0.75;entryDx=0;entryDy=0;entryPerimeter=0;" parent="A-BzHaJAUe8YZKiwCgML-363" target="A-BzHaJAUe8YZKiwCgML-222" edge="1">
          <mxGeometry x="-60.83000000000004" y="420" width="50" height="50" as="geometry">
            <mxPoint y="555" as="sourcePoint" />
            <mxPoint x="-300" y="-80" as="targetPoint" />
            <Array as="points">
              <mxPoint />
            </Array>
          </mxGeometry>
        </mxCell>
        <mxCell id="A-BzHaJAUe8YZKiwCgML-345" value="" style="endArrow=none;html=1;entryX=0;entryY=0.75;entryDx=0;entryDy=0;entryPerimeter=0;" parent="A-BzHaJAUe8YZKiwCgML-363" target="A-BzHaJAUe8YZKiwCgML-283" edge="1">
          <mxGeometry width="50" height="50" relative="1" as="geometry">
            <mxPoint y="30" as="sourcePoint" />
            <mxPoint x="340" y="25" as="targetPoint" />
          </mxGeometry>
        </mxCell>
        <mxCell id="A-BzHaJAUe8YZKiwCgML-364" value="" style="group" parent="1" vertex="1" connectable="0">
          <mxGeometry x="590" y="215" height="30" as="geometry" />
        </mxCell>
        <mxCell id="A-BzHaJAUe8YZKiwCgML-342" value="" style="endArrow=none;html=1;entryX=0;entryY=0.75;entryDx=0;entryDy=0;entryPerimeter=0;" parent="A-BzHaJAUe8YZKiwCgML-364" target="A-BzHaJAUe8YZKiwCgML-227" edge="1">
          <mxGeometry x="-40.83000000000004" y="500" width="50" height="50" as="geometry">
            <mxPoint y="645" as="sourcePoint" />
            <mxPoint x="-260" y="5" as="targetPoint" />
            <Array as="points">
              <mxPoint />
            </Array>
          </mxGeometry>
        </mxCell>
        <mxCell id="A-BzHaJAUe8YZKiwCgML-343" value="" style="endArrow=none;html=1;entryX=0;entryY=0.75;entryDx=0;entryDy=0;entryPerimeter=0;" parent="A-BzHaJAUe8YZKiwCgML-364" target="A-BzHaJAUe8YZKiwCgML-281" edge="1">
          <mxGeometry width="50" height="50" relative="1" as="geometry">
            <mxPoint y="30" as="sourcePoint" />
            <mxPoint x="370" y="35" as="targetPoint" />
          </mxGeometry>
        </mxCell>
        <mxCell id="A-BzHaJAUe8YZKiwCgML-365" value="" style="group" parent="1" vertex="1" connectable="0">
          <mxGeometry x="559" y="125" width="1" height="30" as="geometry" />
        </mxCell>
        <mxCell id="A-BzHaJAUe8YZKiwCgML-338" value="" style="endArrow=none;html=1;entryX=0;entryY=0.75;entryDx=0;entryDy=0;entryPerimeter=0;" parent="A-BzHaJAUe8YZKiwCgML-365" target="A-BzHaJAUe8YZKiwCgML-229" edge="1">
          <mxGeometry x="-39.83000000000004" y="585" width="50" height="50" as="geometry">
            <mxPoint x="0.16999999999995907" y="735" as="sourcePoint" />
            <mxPoint x="-219" y="-5" as="targetPoint" />
            <Array as="points">
              <mxPoint />
            </Array>
          </mxGeometry>
        </mxCell>
        <mxCell id="A-BzHaJAUe8YZKiwCgML-340" value="" style="endArrow=none;html=1;entryX=0;entryY=0.75;entryDx=0;entryDy=0;entryPerimeter=0;" parent="A-BzHaJAUe8YZKiwCgML-365" target="A-BzHaJAUe8YZKiwCgML-275" edge="1">
          <mxGeometry width="50" height="50" relative="1" as="geometry">
            <mxPoint x="1" y="30" as="sourcePoint" />
            <mxPoint x="251" y="45" as="targetPoint" />
          </mxGeometry>
        </mxCell>
        <mxCell id="A-BzHaJAUe8YZKiwCgML-366" value="&lt;font style=&quot;font-size: 31px&quot;&gt;&lt;b&gt;0&lt;/b&gt;&lt;/font&gt;" style="text;html=1;strokeColor=none;fillColor=none;align=center;verticalAlign=middle;whiteSpace=wrap;rounded=0;" parent="1" vertex="1">
          <mxGeometry x="250" y="840" width="40" height="20" as="geometry" />
        </mxCell>
        <mxCell id="A-BzHaJAUe8YZKiwCgML-368" value="&lt;font style=&quot;font-size: 31px&quot;&gt;&lt;b&gt;1&lt;/b&gt;&lt;/font&gt;" style="text;html=1;strokeColor=none;fillColor=none;align=center;verticalAlign=middle;whiteSpace=wrap;rounded=0;" parent="1" vertex="1">
          <mxGeometry x="1000" y="850" width="40" height="20" as="geometry" />
        </mxCell>
        <mxCell id="QP6kTJT5qq1mK3VcSp8X-1" value="" style="shape=image;verticalLabelPosition=bottom;labelBackgroundColor=#ffffff;verticalAlign=top;aspect=fixed;imageAspect=0;image=data:image/png,iVBORw0KGgoAAAANSUhEUgAAAeYAAAAdCAYAAAB/sc+hAAAbFUlEQVR4Ae2cC3SM59r36/DMjEhioiQhkmwikSJOoQdlR+IYaXYTdSh12ry2xOssbLuOb9SmJISKoioOL1qnXbbSRU4kVLFaTYJYUapfpPgIH8nK+GZm/b71zHmSSWYmTX3p68la1sw8z8x9Xdf/Ovzv+7rvxytIfxICEgISAhICEgISAvUGgVfqjSaSIhICEgISAhICEgISAtSemLVl3M0/R2ZGNhdvPOT5Hw5MNdcPfsSilFPc1f7hlJcUlhCwQkB9/SAfLUrh1O8czJr737EveTmLl28j58GLSRz11S9JXLSB9F9fjDwrYJ36UFNN0VK8fzS+TfyJ3XoVtRPj/nHsd8KoevdVNVe/TGTRhnTqQ5jVipjL87YzvosHCqUvHToG4t20Ca36zOHIz5rfDvfzs8xu3xj3kV/+9rFqHKGC45O8kXVZzPfOZEmNY/6+N8u/28GKfflOJfXvq5E0uiMIvAi/VRyfhLesC4t/z2DW3iZ1kDuNlB0Z9P5CDtRFvjsAoCp9Pq+/9i4bC+ugvjggr/Zfqb6maG5uJTqgB/GHbjudv38c+2uP3P//X6pIn/86r727kfoQZs4TszqPFa83we3t/+K7J3o4NSVfMTlQoHnszt8+25CIuZoYfU7OnCBeHX2Q8mq+IV2ujwi8GL+9EGJWfc3k1gJBc3P/gB2yFxEb1RGzhptfpbDj20fU9zX/i0BJkmEfAeeJuXQ7Q+UCfZJuYZ6/qjgd54fgG8dplX2hNX6jCjHr20OLt+Zy98oeFoyJJDx8KGOXHOKGSs3djHXEDxtE+IBY4lLOcM8Q+er8/SxftJWc4h/YvWAMkeHhDHovjrUnfzYUFVtJVM7N40nMeH8oEeH9iR6XwObsYtMMV9cuXLyV3LtX2GMYc+jYJRy6oUJ9N4N18cMYFD6A2LgUzhgV0Rlb87ior3Pwo8Vszb1P0bGVTIkdSHj/aMYv3k/+M0D7kOzUBKKDBBSd3yPhH2s5blitlN88TtKM9xkaEU7/6HEkbM6m2F4H4Gk+BxKnMGxQOOGRo5iZks4dy72IJwUcXBnHiMgIwvtH8f70NRwtLDO5zYTD/SKOrZxC7EBR9ngW789HVLf6v6fkH0hkiuiv8EhGzUwh3VKwo3KdwV+dz/7li9iaU8wPuxcwJjKc8EHvEbf2JD8bbVbnsXfph3ySed+icKrJ37eMRZsyuW+spuU3OZ40g/eHirhEMy5hM9kWYKuvHWDF4q3kFJ4gccxgBs3dXY3fNJTkbGXhxBgG9etHxDtjmLMxy9pvFbc4kTyT0VERhIX1J2r0TJK//omKasCtSsz2ZVTcOkHyzNFERYQR1j+K0TOT+fon2xK09zPZ9PeRdHNtjPefJ7Pgww2k/68rdnFzOFZqiElbrdwnBQdZGTeCSDHuo95n+pqjmELUXj6ZMLSTl4AzGIGtmvKEgoMriRsRqaspUe9PZ83RQszZBOWFR0icHMuAiMGMmLGB7OKfObFuEclf39FpWtV+O3mkKSFn60ImxgyiX78I3hkzh41Z5jomDuqcXeYafL/oGCunxDJQrI/jF7NfV6BMgOJIPXqaf4DEKWKtDCdy1ExS0u9YTPTqwCf27Fdf48CKxWzNKeRE4hgGD5rHVw+fV2lla0py2LpwIjGD+tEv4h3GzNlIlkW+i/6+dSKZmaOjiAgLo3/UaGYmf001KWQGyYF3zhNzxQkm+wh0mHfOAszH7BvugaxnIgX2SMGeUlWIWcWpqb7IgsIYEjGCD1M+ZX3CIHwFF14fN5EB4f/BytRUVk3uhUdjL8YcLNVJqDg2EU8hgDf79GTwrDVs/jSJuYP9kSs6kXBGTIvKSaTmWmok3oo29J+9nrQ921k95U1aKgKYdPhXXcFWnZqKryyIsCERjPgwhU/XJzDIV8Dl9XFMHBDOf6xMJXXVZHp5NMZrzEGDpfbHRXWKqb4yOvSPpM/g6axK3cL6hdG0l4urk7OotA/IWDeZvq0bIX/tL0yfs5KvbmlQX0sl0ltBm/6zWZ+2h+2rp/BmSwUBkw5X37lQXWFtv+a4BkUzb80nbFg2jlAPOe0mHdFPaious6qvBwr/wcxLSWPPjiRmhLdG1nIIqdf1ztXj0IH+kX0YPH0VqVvWszC6PXIhiLlnq5uZqbiyth/NXYOInreGTzYsY1yoB/J2kzgiTmIclusk/hXHmOgpEPBmH3oOnsWazZ+SNHcw/nIFnRLO6Atk+ZeMdBfoueKqxWSznIOjlche/4hr4gxUfY3USG8Ubfoze30ae7avZsqbLVEETOKwYVNK9fVkWsu7MXhwCKExk4hfc8im38qyE+jUxIXgYUvYuP1zUpeNJsRdQcd5Bn14ysm4diha92P62s/YvXsbq+PDaK3wZ9LRRzYzqDIx25Xx9CRx7RS07jedtZ/tZve21cSHtUbhPwlbIrT3TrNuViwhTRvh2XscM+eu5eTN/XZxcyhW7MRkxVfjaSnrwbIf9fFXcXkVfT0U+A+eR0raHnYkzSC8tYyWQ1LRhai9fNIh6EBeOolR1ZpSweVVffFQ+DN4Xgppe3aQNCOc1rKWDEm9rpvwax/8i7/6C7h3+YAV23by6dLh9OgVwdutZXRZdFlfy6zst5NHlJGd0IkmLsEMW7KR7Z+nsmx0CO6KjszT1T3AabsMNbhDfyL7DGb6qlS2rF9IdHs5QtBcjCnvSD1SXVlLv+auBEXPY80nG1g2LhQPeTsmHbmHlrrwiQP26zo/croNHkxIaAyT4pNIL63gq/EtkfVYhi7MyrJJ6NQEl+BhLNm4nc9TlzE6xB1Fx3mYYYyjnaI1/aav5bPdu9m2Op6w1gr8Jx3FdpbaTF2bF50nZtRc3fwOPsrOjFm5i38dO8RnS6IJUL7G1H/pCcymJEcv2iDm9Hg/Gsl6kphvYH3NDVa9KdDQ413SjDv1qtPE+Qm0m5Glk6QrVA0bE/CfGebZ6bMTTPETaPnB4arE/PggY7wEOsw2FkdxpXqf/SM9kfVYyhU1qNLj8Wsko2eicZ9Xw41VbyI09ODdNKPthu5Buxl6ix0YF1U68X6NEDrN57xpwfKQHdGuCKHLyRPN1lzjo9dlKE2t7MccHOOF0GG2KVBAy/39I/GU9WCpqLCNv0dfjKSF0I0l3xuXixpurY9A2SKKT+9oebR3OM2FDsw5a9EwLz3M2FYC/vGndSPqcRDoNP+8eQX3cAfRrgKhy/NsSAUefcHIFgLdlnxvmtBpbq0nQtmCqE/v8L8dlusk/hXHmeTdkMYB/0mGaZnyjBNT/BBafsBhcYnvADE/PjgGL6EDs41ZqQuP/Yz0lNFj6RU9Lqfj8GskEBB3EsMujw2/qSnYPoV3YhPJNvlaRca0PyH4GTpOz3OZGyQneP55E1ZoSzm/ax07c0osVvVmqK2J2b6M57lzCZIHM/+8MQ5AW3qeXet2klNibBGYx9e9qzjGX71kdF3yg76L5ABujsSKvZi0JuZH7B3eHKHDHKxDdCytBH/ixZadI/nkQF46j1Glyf6jvQxvLtBhzlmL7adSDo9theAfz2mVlrubB+EihLJcl+QiympurOuHawNBh7N4xcp+O3mkVRewfco7xCZmm3NTlcG0Pwn4xZ1GnDY7b5cKXQ0WOjHfXKB4uCMaV5PujtSjR3wxsgVCtyWYy88t1kcoaRH1KXce2a/BdnV3wH50XNEIISCOk6ZEtSZmdcF2prwTS6I5SVFlTONPgh9xurbwc3LnBiEPno85hbSUnt/Fup05VJdClTKq2o+1IGZ4fvs4iwa2oWkzHwKD2uHp2ozg4R+TVWJublcr0d6NaohZCJhJtqmGPGPnX+QIb6/hplGkOo/loTI8Jx7TSdAVqsZeTDxmqn7iVJHdMU0Rui+tQswi6P6CL1NPWa/4StOiaSrvz6a7Wj0xCwHMNCvCs51/QS68zRqzIuQtD0XmOVGnhyPj6guJgF+8PnH0EKn45m8+uhlprmh3ZWIWk81fwHfqKV2ymWAtTSO6qZz+m+6aLpnfqEif5q8rCunWZhq+ouJ0vB+CzxROWt1/TFq0C0LPFbrv6Yqt4KcvgsbBVd/wNx/9/qPxkuWrKl3E1594m4Kdkesc/uiIuTFeE4+ZC5UYCbtjaCp0109g7BKMSJz+CL5TsQ6PUtKimyLvv8kCF08mHrWIucp+M4Gi4ekvBVzMPUNmxjfsmByM4D6CL8T5kPYXtkQ2Q/AZyMK0TAof2Z5kmYYSo9nm4a/qZWh/2UJkMwGfgQtJyyzEARFQW2KuMVbsxWQlYlKdJt5PwGfKSeu4f5xGtIu+6+FIPjmSl85jZE3MqtPx+Ak+TLFOJh6nReMi9GTF1XJOTvFBaDudLIt80979hAi5bWKuOY8sIkLzlF8KLpJ7JpOMb3YwOVjAfcQXugmC83bpiVnwEycTZhmqb/6Gj9glEwuUI/VIla6rWf7x6da+MwxZpz6pwX5jfHhOPGpRE6yJ2Wil5ukvFFzM5UxmBt/smEyw4M4IfZLyy5ZImgk+DFyYRmbhI9OWp/G3v+XVeWJ+lsHs4Ca0id1KgWFDUfvoWz4Kb47bmx/pVpa/RSGqIWZZp4V8ZyLmcna/K0cW8Yn5USd1AYkiMU84qhOvK1RCR/5+wfQjHRkf+6sXIslXbjuV7x+OW4NXeOUVG/+ErrrTrjpCknVioVkRyne/i1wWwSemx1TUFCSKxDxBp4cj4+oDRUaHBMvtAXHl7YsQNIccW8Rcvp/hbg1s6/uKQNfF39twQzn7h7shVHsSXbzvqrt/2YoLKjg20ROh/SzdmHocOpBwzgJbcRbqKxA0J8eGXNDhIFR3atgZuc7hrydmgY5/v2BefYreP/ZXvIyTLLvErMetga3YeOUVhK6LLXAxFCojCjaIuezKNiaEtkTR1Iugrj15463ehLZ1p6GbgZjFedid4yyN6UwLoQENBCUBb4/iH7suU1rdYrYSMduXoeHO8aXEdG6B0KABgjKAt0f9g12XS22uyHXm1JaYZTXFir2YrETMYty7CnRZfNm6EBq2LNrPOmNYMdecTw7lJc5iZE3MogxXMeatkwn9Nlt7Zp15zL73XBGM7VNjzFQcZUJL28Rccx6JA5RxZdsEQlsqaOoVRNeeb/BW71DaujfEzUDMOG2XnphlHRKwTvk4fIUg5ogFypF6pPuO6LvvrX1nsLtufOKA/bqOiqzSIcZKxFx2hW0TQmmpaIpXUFd6vvEWvUPb4t7QzUDMuiTl+NIYOrcQaNBAQBnwNqP+sYvL1SWp0b8OvDpNzBVfT6aV0RkWAp7tH04zU1vD4oazb+uUmCsVBCo4/EFzhOD5VYi54shYXhUCmXb8DiUlJdb/fn3AU2Mr20lidmTcWhFzxRHGvioQOO04dyrrW/IrD0SFq/wZ7K+UYOavme+b2zPi3QoOjVYivLZA99XaEHPF4Q90LXIrMjcJdkZu7YjZetIDen0MrdxqiPnLUc0QdHvMFRwZ+ypC4DSO36kUGyUl/PrgafW4VCZmzTVWvdUEecgMTv5qavfoJnOCBTEboXn+8BqZe5OYG9sZZaNmhCXZfgbWasXslIznPLyWyd6kucR2VtKoWRhJV23Fjm4241Ar24ybYfunRmI2+96y6BvtF1+tWrkVh/lAbA8nWLT5dV86xGilwGsLLjhEzA7lpUkJRzGyJmZTzFsnExWHRqMUXmPBhcfosOqyCCvuLv+SUUrbxGwasxqwNNdW8VYTOSEzTmIOL3HRIlgQs9EwR+1ygJgdqUcm31kuQIy6QF34xCH7DcRsXRMsiVnDtVVv0UQewoyTv5rOnagLEgkVLIjZqPrzh1zL3EvS3Fg6KxvRLCyJ6lLI+BN7r84T89EJukNVlu1cUciT3bG4GluD9qTWdL8uibmROzG7LLbhNbdI6itDMXBzFWLWXP8nb8hcidpueTIXtA9uc/uJvoDWZsXsyLi1ImbNdf75hgzXqO3mU8MirtoH3L79xBRM1lBrKEjsieAaxWemo8agKTpK8sotZBb/X66u6KW7v93iPpqrrOgl4Bq9QzdcbYhZU5BIT8GVqM8s8NUUcTR5JVsy75DvsNzaEHMj3GN2WRzI0HArqS8yxUA2i5tBFYcZ4yHoDtuYKElTxMe9BQMxa7j+zzeQuUZhhQtaHty+jSE89FsdlUmoMjGXf8EIN4GQRRYrPu09dsYorVfMZU8ps1wda++xdYiLdZfIwrlWxOyQDA1lT8usVsfae1sZ4iIj4pO7VtdNYiqvmO3i5ggx24tJrTUxG2OxUtxrrq6gl+BK9I6HDhGzQ3mJsxhZE7NRJ+uaojHkWDQ7Hur3KYUWYzliOv8Az8/PJ7ixbWKuOY+KefbFCNyEEBZZML323k5ilNYrZud87wAxO1KPNAUk9hRwjfrMomZpKDqazMotmdy5ar8Gi6v9mnR3yH67xFzOFyPcEEIsJ0xa7u2MQWm1Yi7jqXWScm/rEFysOqim7HHqjdPErL3337zXUqDN8M8pNJ4PenqZ1eEeCEGz9Sf01N+T/F5fIj485ZQyui/XKTHL8Oi7lPOP9Wo8zllAd0VTwtYVVSFmNEVsHKBE0SmeY8Yj8U8u8fGAlrj+OZkbGmORcZIYHBjXMWLWE4U4qdAfLNBQtHEASkUn4o8ZH4V4wqWPB9DS9c8kiwrb+NNcW0tftyZ0mXGSEpGFKn5i39i2CF6jOfAINIXJ9HN3ofu8TB7qiEHNnQMTCBC8GbX/vm7E2hCzuEe+tq8bTbrM4KReMD/tG0tbwYvRBx45IddJ/HV7zI2QefRlqTkQWNBdQdOwdRSJMKm/Z0lXAZc+q8jXbQ9XcHPvREKUcoRe+lPZmqKNDFAq6BR/zPRY05NLHzOgpSt/Tr5RPS4Ggjf5TZXF9LYCLWLSKBZla0u5uGEEYcF+NFYMYdtD0N7exIBmXgzdmGd6/Ez7KIvZnWV4jf/KdM3SvVbEbFeGltubBtDMaygb84wPuGl5lDWbzjIvxn9lvGYpQYyVSoe/HMDNkVixF5NWK2Y0FCb3w92lO/MyH+onEOo7HJgQgOA9iv3ihNJm4a28NWQv32uDkTUxoykkuZ87Lt3nkalPJtR3DjAhQMB71H4dOZX9exI+jT35y7ab+q2WZz+w7t1AmitsE7O9PFJlTaet0IKYtGLd5FxbepENI8II9muMYsg2RMSc970DxIwj9UjDtbV9cWvShRknS3Tt7Iqf9jG2rYDX6AM8slsr7etu336qiQ/LFbOKrOltEVrEkKZPUkovbmBEWDB+jRUM0ScpmwY0w2voRswp9Iis2Z2ReY1Hl0K/gQedJmbx5O/drz9kgJ8Lcg9/gjt3oE0zOc06DGPdt4YjbqpMprdtTNNheytltgMf65KYZSFMXjqebr5t6dQ5gFflctoMTeaSbnZaKYnE+nz7ELN6eyN38SKwY7DOLmXIeD4v0B/m0RcZJ4nBgXEdKiQ859tFXWnSUI6ylT/jxQMI6tscmtUbb7kLXoEdCW7TDLkyhPGfF1gcaqiMuYrruybT1UNA4dEKL3cBmXcfEv5tXCU9p2jfVEJbKFD6dSQkyJumLr4MWHLK9AiWI8W2slTxs+r6LiZ39UBQeNDKyx1B5k2fhH8bzgk4KtdJ/HXELCNk8lLGd/OlbafOBLwqR95mKMn6QBA3i7i1ZwwBTRqieNWPAL9WBESuYlNcIIoehlPxqLl9aBa9veW4eAXSMbgNzeRKQsZ/jiE8bK+Yq/jt/3BtSwy+cgGlbxCBPp4EDdvEpfPLCG0io1X3kaRcfsyllFgC3QTcWrUnODgAb1cFnr2mceCW7QmXFTGLj53Yk3H2W1JiA3ET3GjVPpjgAG9cFZ70mnaAakRUJWYHcHMsVmqOSWtiFo8VF7FvaigtFEr8OoYQ5N0UF98BLDlleDLCEWJ2JC+fXXISo6o15XnRPqaGtkCh9KNjSBDeTV3wHbCEU8anSTQ/8d/jO9C0sSutO3Qi0D+E91M3MrG1jG6G0/6V7a8xj9TX2BLji1xQ4hsUiI9nEMM2XeL8slCayFrRfWQKlx87a5cjxKwD1H49Ul1n1+SueAgKPFp54S7I8O6TwL8NZ3Ts1WDs+cQR+8vEp2Aqn0GwJGbx6cgtxPjKEZS+BAX64Bk0jE2XzrMstAmyVt0ZmXKZZ5dSiA10Q3BrRfvgYAK8XVF49mLaAcP/8fEbeLAWxGwouZon3P4hh4z0TM7lFVu33WxV5Rd8TV+o9Ie2NKU3uXgmk5y8uzUQllFBFQ8KL5CdnkFu3l3zo1bG27V+rYNxtU/46UI2Zy8Xcs/YrRAJ70EhF7LTycjN465FS6xGVcuK+TEng4zcfEosDhGbflNRQsG5LDLOXORmqanBa7pd+zdlFP+YQ0ZGLvm2BNe1XAMxi4fh1JpSbl48Q2ZOHndt2Ky6d5VzmZmcK/i1+jhRPaDwQjbpGbnkOQq2Db+VF1/hbGY2F4uMpzk1lBaeIyvnR4oNPtQ+KybvXCanT2dx4fp9mydZa/KDfRlanhXncS7zNKezLnD9vsWR25oGrnTPIdwq/cbmR3sxWelHFSUFnMvK4MzFm9Q+RO3lZV1gVEFJwTmyMs5w8WZp1YNPWhX3r39LVvYFbjxUw9N9vNdMRtj6nytZbPmxpjwqp/jKWTKzL1JkPG6vKaXwXBY5PxYbalpd2GWpj/m9I/WorPhHcjIyyM0vsZFrv9Unjthv1rfad+XFXDmbSfbFItNTC5rSQs5l5fCjOUkpzjtH5unTZF24Ti1TqIoKtSfmKkPVrwvWK4j6pZukzQtEwEDM1Z0EfYGaSKIkBKogoL7yEb2VrxK++gfDFsUTLq8Ox0Peg6U/1OWEuIpo6UI9RkAi5nrsHEm1OkBAIuY6AFEa4ndDQHuf9CXh+MgF3Fu1pV1rdwTX9sSs+w79Wf/fTbI0cD1G4H8sMWsf5JP5TS5FUnTX4/B7AappH5Cf+Q25UiC8ALAlEbVF4Lm4HZV1moyzP5ieAqntWNLv/vgI/I8l5j++ayQLJAQkBCQEJAReRgQkYn4ZvS7ZLCEgISAhICFQbxGQiLneukZSTEJAQkBCQELgZURAIuaX0euSzRICEgISAhIC9RYBiZjrrWskxSQEJAQkBCQEXkYEJGJ+Gb0u2SwhICEgISAhUG8RkIi53rpGUkxCQEJAQkBC4GVEQCLml9Hrks0SAhICEgISAvUWAYmY661rJMUkBCQEJAQkBF5GBCRifhm9LtksISAhICEgIVBvEZCIud66RlJMQkBCQEJAQuBlROD/AVequiBz/CoJAAAAAElFTkSuQmCC;" parent="1" vertex="1">
          <mxGeometry x="-236" y="1450" width="1586" height="94.64" as="geometry" />
        </mxCell>
        <mxCell id="QP6kTJT5qq1mK3VcSp8X-3" value="&lt;span style=&quot;font-size: 32px&quot;&gt;X1&lt;br&gt;&lt;/span&gt;" style="text;html=1;strokeColor=none;fillColor=none;align=center;verticalAlign=middle;whiteSpace=wrap;rounded=0;" parent="1" vertex="1">
          <mxGeometry x="-10" y="1750" width="40" height="20" as="geometry" />
        </mxCell>
        <mxCell id="QP6kTJT5qq1mK3VcSp8X-4" value="&lt;span style=&quot;font-size: 32px&quot;&gt;X2&lt;br&gt;&lt;/span&gt;" style="text;html=1;strokeColor=none;fillColor=none;align=center;verticalAlign=middle;whiteSpace=wrap;rounded=0;" parent="1" vertex="1">
          <mxGeometry x="-10" y="1850" width="40" height="20" as="geometry" />
        </mxCell>
        <mxCell id="QP6kTJT5qq1mK3VcSp8X-5" value="&lt;span style=&quot;font-size: 32px&quot;&gt;X3&lt;br&gt;&lt;/span&gt;" style="text;html=1;strokeColor=none;fillColor=none;align=center;verticalAlign=middle;whiteSpace=wrap;rounded=0;" parent="1" vertex="1">
          <mxGeometry x="-10" y="1950" width="40" height="20" as="geometry" />
        </mxCell>
        <mxCell id="Yv_38GfAKiieHnqcqw_q-6" style="edgeStyle=orthogonalEdgeStyle;rounded=0;orthogonalLoop=1;jettySize=auto;html=1;exitX=0;exitY=0.25;exitDx=0;exitDy=0;exitPerimeter=0;endArrow=none;endFill=0;" edge="1" parent="1" source="Yv_38GfAKiieHnqcqw_q-1" target="Yv_38GfAKiieHnqcqw_q-2">
          <mxGeometry relative="1" as="geometry" />
        </mxCell>
        <mxCell id="Yv_38GfAKiieHnqcqw_q-7" style="edgeStyle=orthogonalEdgeStyle;rounded=0;orthogonalLoop=1;jettySize=auto;html=1;exitX=0;exitY=0.75;exitDx=0;exitDy=0;exitPerimeter=0;endArrow=none;endFill=0;" edge="1" parent="1" source="Yv_38GfAKiieHnqcqw_q-1" target="Yv_38GfAKiieHnqcqw_q-3">
          <mxGeometry relative="1" as="geometry" />
        </mxCell>
        <mxCell id="Yv_38GfAKiieHnqcqw_q-1" value="" style="verticalLabelPosition=bottom;shadow=0;dashed=0;align=center;html=1;verticalAlign=top;shape=mxgraph.electrical.logic_gates.logic_gate;operation=and;" vertex="1" parent="1">
          <mxGeometry x="280" y="2530" width="100" height="60" as="geometry" />
        </mxCell>
        <mxCell id="QZvfcPdy9IYKOWVkBBUl-3" value="&lt;span style=&quot;font-size: 32px&quot;&gt;LED&amp;nbsp; 8&lt;br&gt;&lt;/span&gt;" style="text;html=1;strokeColor=none;fillColor=none;align=center;verticalAlign=middle;whiteSpace=wrap;rounded=0;" vertex="1" parent="1">
          <mxGeometry x="-50" y="1590" width="100" height="20" as="geometry" />
        </mxCell>
        <mxCell id="Yv_38GfAKiieHnqcqw_q-2" value="X1" style="text;html=1;strokeColor=none;fillColor=none;align=center;verticalAlign=middle;whiteSpace=wrap;rounded=0;" vertex="1" parent="1">
          <mxGeometry x="210" y="2535" width="40" height="20" as="geometry" />
        </mxCell>
        <mxCell id="QZvfcPdy9IYKOWVkBBUl-5" value="&lt;span style=&quot;font-size: 32px&quot;&gt;ACUM&lt;br&gt;&lt;/span&gt;" style="text;html=1;strokeColor=none;fillColor=none;align=center;verticalAlign=middle;whiteSpace=wrap;rounded=0;" vertex="1" parent="1">
          <mxGeometry x="-10" y="1670" width="40" height="20" as="geometry" />
        </mxCell>
        <mxCell id="Yv_38GfAKiieHnqcqw_q-3" value="X3" style="text;html=1;strokeColor=none;fillColor=none;align=center;verticalAlign=middle;whiteSpace=wrap;rounded=0;" vertex="1" parent="1">
          <mxGeometry x="210" y="2565" width="40" height="20" as="geometry" />
        </mxCell>
        <mxCell id="QZ_QbINjX_CT_F1sEqqk-1" value="ACUM" style="text;html=1;strokeColor=none;fillColor=none;align=center;verticalAlign=middle;whiteSpace=wrap;rounded=0;" vertex="1" parent="1">
          <mxGeometry x="-890" y="-490" width="40" height="20" as="geometry" />
        </mxCell>
        <mxCell id="QZvfcPdy9IYKOWVkBBUl-9" value="" style="endArrow=none;html=1;entryX=0;entryY=0.25;entryDx=0;entryDy=0;entryPerimeter=0;" edge="1" parent="1" target="QZvfcPdy9IYKOWVkBBUl-23">
          <mxGeometry width="50" height="50" relative="1" as="geometry">
            <mxPoint x="80" y="1760" as="sourcePoint" />
            <mxPoint x="160" y="1790" as="targetPoint" />
            <Array as="points">
              <mxPoint x="160" y="1760" />
              <mxPoint x="160" y="1783" />
            </Array>
          </mxGeometry>
        </mxCell>
        <mxCell id="QZ_QbINjX_CT_F1sEqqk-2" value="X3" style="text;html=1;strokeColor=none;fillColor=none;align=center;verticalAlign=middle;whiteSpace=wrap;rounded=0;" vertex="1" parent="1">
          <mxGeometry x="-890" y="-459" width="40" height="20" as="geometry" />
        </mxCell>
        <mxCell id="Yv_38GfAKiieHnqcqw_q-5" style="edgeStyle=orthogonalEdgeStyle;rounded=0;orthogonalLoop=1;jettySize=auto;html=1;exitX=1;exitY=0.5;exitDx=0;exitDy=0;entryX=0.181;entryY=0.507;entryDx=0;entryDy=0;entryPerimeter=0;endArrow=none;endFill=0;" edge="1" parent="1" source="Yv_38GfAKiieHnqcqw_q-4" target="Yv_38GfAKiieHnqcqw_q-1">
          <mxGeometry relative="1" as="geometry" />
        </mxCell>
        <mxCell id="QZ_QbINjX_CT_F1sEqqk-3" value="X2" style="text;html=1;strokeColor=none;fillColor=none;align=center;verticalAlign=middle;whiteSpace=wrap;rounded=0;" vertex="1" parent="1">
          <mxGeometry x="-900" y="-285" width="40" height="20" as="geometry" />
        </mxCell>
        <mxCell id="Yv_38GfAKiieHnqcqw_q-4" value="X2" style="text;html=1;strokeColor=none;fillColor=none;align=center;verticalAlign=middle;whiteSpace=wrap;rounded=0;" vertex="1" parent="1">
          <mxGeometry x="210" y="2550" width="40" height="20" as="geometry" />
        </mxCell>
        <mxCell id="QZ_QbINjX_CT_F1sEqqk-4" value="X1" style="text;html=1;strokeColor=none;fillColor=none;align=center;verticalAlign=middle;whiteSpace=wrap;rounded=0;" vertex="1" parent="1">
          <mxGeometry x="-900" y="-255" width="40" height="20" as="geometry" />
        </mxCell>
        <mxCell id="QZvfcPdy9IYKOWVkBBUl-11" value="" style="endArrow=none;html=1;entryX=0.223;entryY=0.554;entryDx=0;entryDy=0;entryPerimeter=0;" edge="1" parent="1" target="QZvfcPdy9IYKOWVkBBUl-23">
          <mxGeometry width="50" height="50" relative="1" as="geometry">
            <mxPoint x="80" y="1859.71" as="sourcePoint" />
            <mxPoint x="160" y="1859.71" as="targetPoint" />
          </mxGeometry>
        </mxCell>
        <mxCell id="QZ_QbINjX_CT_F1sEqqk-6" value="" style="verticalLabelPosition=bottom;shadow=0;dashed=0;align=center;html=1;verticalAlign=top;shape=mxgraph.electrical.logic_gates.logic_gate;operation=and;" vertex="1" parent="1">
          <mxGeometry x="-670" y="-494" width="100" height="60" as="geometry" />
        </mxCell>
        <mxCell id="Yv_38GfAKiieHnqcqw_q-8" value="L1" style="text;html=1;strokeColor=none;fillColor=none;align=center;verticalAlign=middle;whiteSpace=wrap;rounded=0;" vertex="1" parent="1">
          <mxGeometry x="390" y="2550" width="40" height="20" as="geometry" />
        </mxCell>
        <mxCell id="QZ_QbINjX_CT_F1sEqqk-7" value="" style="endArrow=none;html=1;entryX=0;entryY=0.25;entryDx=0;entryDy=0;entryPerimeter=0;exitX=1;exitY=0.5;exitDx=0;exitDy=0;" edge="1" parent="1" source="QZ_QbINjX_CT_F1sEqqk-1" target="QZ_QbINjX_CT_F1sEqqk-6">
          <mxGeometry width="50" height="50" relative="1" as="geometry">
            <mxPoint x="-800" y="-360" as="sourcePoint" />
            <mxPoint x="-750" y="-410" as="targetPoint" />
          </mxGeometry>
        </mxCell>
        <mxCell id="QZvfcPdy9IYKOWVkBBUl-13" value="" style="endArrow=none;html=1;entryX=0;entryY=0.75;entryDx=0;entryDy=0;entryPerimeter=0;" edge="1" parent="1" target="QZvfcPdy9IYKOWVkBBUl-23">
          <mxGeometry width="50" height="50" relative="1" as="geometry">
            <mxPoint x="80" y="1960" as="sourcePoint" />
            <mxPoint x="160" y="1960" as="targetPoint" />
            <Array as="points">
              <mxPoint x="190" y="1960" />
            </Array>
          </mxGeometry>
        </mxCell>
        <mxCell id="QZ_QbINjX_CT_F1sEqqk-8" value="" style="endArrow=none;html=1;exitX=1;exitY=0.5;exitDx=0;exitDy=0;entryX=0;entryY=0.75;entryDx=0;entryDy=0;entryPerimeter=0;" edge="1" parent="1" source="QZ_QbINjX_CT_F1sEqqk-2" target="QZ_QbINjX_CT_F1sEqqk-6">
          <mxGeometry width="50" height="50" relative="1" as="geometry">
            <mxPoint x="-810" y="-370" as="sourcePoint" />
            <mxPoint x="-760" y="-420" as="targetPoint" />
          </mxGeometry>
        </mxCell>
        <mxCell id="Yv_38GfAKiieHnqcqw_q-13" style="edgeStyle=orthogonalEdgeStyle;rounded=0;orthogonalLoop=1;jettySize=auto;html=1;exitX=0;exitY=0.25;exitDx=0;exitDy=0;exitPerimeter=0;entryX=1;entryY=0.5;entryDx=0;entryDy=0;endArrow=none;endFill=0;" edge="1" parent="1" source="Yv_38GfAKiieHnqcqw_q-9" target="Yv_38GfAKiieHnqcqw_q-12">
          <mxGeometry relative="1" as="geometry" />
        </mxCell>
        <mxCell id="QZ_QbINjX_CT_F1sEqqk-9" value="" style="verticalLabelPosition=bottom;shadow=0;dashed=0;align=center;html=1;verticalAlign=top;shape=mxgraph.electrical.logic_gates.logic_gate;operation=and;" vertex="1" parent="1">
          <mxGeometry x="-720" y="-290" width="100" height="60" as="geometry" />
        </mxCell>
        <mxCell id="Yv_38GfAKiieHnqcqw_q-15" style="edgeStyle=orthogonalEdgeStyle;rounded=0;orthogonalLoop=1;jettySize=auto;html=1;exitX=1;exitY=0.5;exitDx=0;exitDy=0;exitPerimeter=0;entryX=0;entryY=0.25;entryDx=0;entryDy=0;entryPerimeter=0;endArrow=none;endFill=0;" edge="1" parent="1" source="Yv_38GfAKiieHnqcqw_q-9" target="Yv_38GfAKiieHnqcqw_q-14">
          <mxGeometry relative="1" as="geometry" />
        </mxCell>
        <mxCell id="QZ_QbINjX_CT_F1sEqqk-10" value="" style="endArrow=none;html=1;exitX=1;exitY=0.5;exitDx=0;exitDy=0;entryX=0;entryY=0.75;entryDx=0;entryDy=0;entryPerimeter=0;" edge="1" parent="1" source="QZ_QbINjX_CT_F1sEqqk-4" target="QZ_QbINjX_CT_F1sEqqk-9">
          <mxGeometry width="50" height="50" relative="1" as="geometry">
            <mxPoint x="-820" y="-260" as="sourcePoint" />
            <mxPoint x="-740" y="-265" as="targetPoint" />
          </mxGeometry>
        </mxCell>
        <mxCell id="Yv_38GfAKiieHnqcqw_q-9" value="" style="verticalLabelPosition=bottom;shadow=0;dashed=0;align=center;html=1;verticalAlign=top;shape=mxgraph.electrical.logic_gates.logic_gate;operation=or;" vertex="1" parent="1">
          <mxGeometry x="240" y="2660" width="100" height="60" as="geometry" />
        </mxCell>
        <mxCell id="QZ_QbINjX_CT_F1sEqqk-11" value="" style="endArrow=none;html=1;exitX=1;exitY=0.5;exitDx=0;exitDy=0;entryX=0;entryY=0.25;entryDx=0;entryDy=0;entryPerimeter=0;" edge="1" parent="1" source="QZ_QbINjX_CT_F1sEqqk-3" target="QZ_QbINjX_CT_F1sEqqk-9">
          <mxGeometry width="50" height="50" relative="1" as="geometry">
            <mxPoint x="-830" y="-320" as="sourcePoint" />
            <mxPoint x="-750" y="-325" as="targetPoint" />
          </mxGeometry>
        </mxCell>
        <mxCell id="QZvfcPdy9IYKOWVkBBUl-14" value="" style="endArrow=none;html=1;entryX=0;entryY=0.25;entryDx=0;entryDy=0;entryPerimeter=0;" edge="1" parent="1" target="QZvfcPdy9IYKOWVkBBUl-20">
          <mxGeometry width="50" height="50" relative="1" as="geometry">
            <mxPoint x="80" y="1679.76" as="sourcePoint" />
            <mxPoint x="640" y="1740" as="targetPoint" />
            <Array as="points">
              <mxPoint x="560" y="1680" />
              <mxPoint x="560" y="1735" />
            </Array>
          </mxGeometry>
        </mxCell>
        <mxCell id="QZ_QbINjX_CT_F1sEqqk-13" value="" style="verticalLabelPosition=bottom;shadow=0;dashed=0;align=center;html=1;verticalAlign=top;shape=mxgraph.electrical.logic_gates.inverter_2" vertex="1" parent="1">
          <mxGeometry x="-730" y="-431" width="40" height="30" as="geometry" />
        </mxCell>
        <mxCell id="QZvfcPdy9IYKOWVkBBUl-20" value="" style="verticalLabelPosition=bottom;shadow=0;dashed=0;align=center;html=1;verticalAlign=top;shape=mxgraph.electrical.logic_gates.logic_gate;operation=or;" vertex="1" parent="1">
          <mxGeometry x="640" y="1680" width="250" height="220" as="geometry" />
        </mxCell>
        <mxCell id="QZ_QbINjX_CT_F1sEqqk-14" value="" style="verticalLabelPosition=bottom;shadow=0;dashed=0;align=center;html=1;verticalAlign=top;shape=mxgraph.electrical.logic_gates.inverter_2" vertex="1" parent="1">
          <mxGeometry x="-730" y="-393" width="40" height="30" as="geometry" />
        </mxCell>
        <mxCell id="QZvfcPdy9IYKOWVkBBUl-21" value="" style="endArrow=none;html=1;entryX=0;entryY=0.75;entryDx=0;entryDy=0;entryPerimeter=0;" edge="1" parent="1" target="QZvfcPdy9IYKOWVkBBUl-20">
          <mxGeometry width="50" height="50" relative="1" as="geometry">
            <mxPoint x="540" y="1845" as="sourcePoint" />
            <mxPoint x="580" y="1830" as="targetPoint" />
            <Array as="points">
              <mxPoint x="600" y="1845" />
            </Array>
          </mxGeometry>
        </mxCell>
        <mxCell id="QZ_QbINjX_CT_F1sEqqk-15" value="" style="endArrow=none;html=1;entryX=0;entryY=0.5;entryDx=0;entryDy=0;entryPerimeter=0;" edge="1" parent="1" target="QZ_QbINjX_CT_F1sEqqk-13">
          <mxGeometry width="50" height="50" relative="1" as="geometry">
            <mxPoint x="-760" y="-480" as="sourcePoint" />
            <mxPoint x="-800" y="-430" as="targetPoint" />
            <Array as="points">
              <mxPoint x="-760" y="-416" />
            </Array>
          </mxGeometry>
        </mxCell>
        <mxCell id="QZvfcPdy9IYKOWVkBBUl-22" value="&lt;span style=&quot;font-size: 32px&quot;&gt;L8&lt;br&gt;&lt;/span&gt;" style="text;html=1;strokeColor=none;fillColor=none;align=center;verticalAlign=middle;whiteSpace=wrap;rounded=0;" vertex="1" parent="1">
          <mxGeometry x="910" y="1780" width="100" height="20" as="geometry" />
        </mxCell>
        <mxCell id="QZ_QbINjX_CT_F1sEqqk-16" value="" style="endArrow=none;html=1;entryX=0;entryY=0.5;entryDx=0;entryDy=0;entryPerimeter=0;" edge="1" parent="1" target="QZ_QbINjX_CT_F1sEqqk-14">
          <mxGeometry width="50" height="50" relative="1" as="geometry">
            <mxPoint x="-770" y="-450" as="sourcePoint" />
            <mxPoint x="-740" y="-428.9999999999999" as="targetPoint" />
            <Array as="points">
              <mxPoint x="-770" y="-378" />
            </Array>
          </mxGeometry>
        </mxCell>
        <mxCell id="Yv_38GfAKiieHnqcqw_q-10" value="X1" style="text;html=1;strokeColor=none;fillColor=none;align=center;verticalAlign=middle;whiteSpace=wrap;rounded=0;" vertex="1" parent="1">
          <mxGeometry x="160" y="2695" width="40" height="20" as="geometry" />
        </mxCell>
        <mxCell id="QZ_QbINjX_CT_F1sEqqk-17" value="" style="verticalLabelPosition=bottom;shadow=0;dashed=0;align=center;html=1;verticalAlign=top;shape=mxgraph.electrical.logic_gates.logic_gate;operation=and;" vertex="1" parent="1">
          <mxGeometry x="-550" y="-434" width="100" height="74" as="geometry" />
        </mxCell>
        <mxCell id="QZvfcPdy9IYKOWVkBBUl-23" value="" style="verticalLabelPosition=bottom;shadow=0;dashed=0;align=center;html=1;verticalAlign=top;shape=mxgraph.electrical.logic_gates.logic_gate;operation=or;negating=1;negSize=0.15;" vertex="1" parent="1">
          <mxGeometry x="190" y="1720" width="350" height="250" as="geometry" />
        </mxCell>
        <mxCell id="QZ_QbINjX_CT_F1sEqqk-18" value="" style="endArrow=none;html=1;entryX=0;entryY=0.25;entryDx=0;entryDy=0;entryPerimeter=0;exitX=1;exitY=0.5;exitDx=0;exitDy=0;exitPerimeter=0;" edge="1" parent="1" source="QZ_QbINjX_CT_F1sEqqk-13" target="QZ_QbINjX_CT_F1sEqqk-17">
          <mxGeometry width="50" height="50" relative="1" as="geometry">
            <mxPoint x="-620" y="-340" as="sourcePoint" />
            <mxPoint x="-570" y="-390" as="targetPoint" />
          </mxGeometry>
        </mxCell>
        <mxCell id="QZvfcPdy9IYKOWVkBBUl-24" value="&lt;span style=&quot;font-size: 32px&quot;&gt;X1&lt;br&gt;&lt;/span&gt;" style="text;html=1;strokeColor=none;fillColor=none;align=center;verticalAlign=middle;whiteSpace=wrap;rounded=0;" vertex="1" parent="1">
          <mxGeometry x="1315" y="1770" width="40" height="20" as="geometry" />
        </mxCell>
        <mxCell id="QZ_QbINjX_CT_F1sEqqk-19" value="" style="endArrow=none;html=1;entryX=0;entryY=0.75;entryDx=0;entryDy=0;entryPerimeter=0;exitX=1;exitY=0.5;exitDx=0;exitDy=0;exitPerimeter=0;" edge="1" parent="1" source="QZ_QbINjX_CT_F1sEqqk-14" target="QZ_QbINjX_CT_F1sEqqk-17">
          <mxGeometry width="50" height="50" relative="1" as="geometry">
            <mxPoint x="-610" y="-380" as="sourcePoint" />
            <mxPoint x="-440" y="-366" as="targetPoint" />
          </mxGeometry>
        </mxCell>
        <mxCell id="Yv_38GfAKiieHnqcqw_q-11" value="" style="verticalLabelPosition=bottom;shadow=0;dashed=0;align=center;html=1;verticalAlign=top;shape=mxgraph.electrical.logic_gates.inverter_2" vertex="1" parent="1">
          <mxGeometry x="200" y="2693" width="40" height="24" as="geometry" />
        </mxCell>
        <mxCell id="QZ_QbINjX_CT_F1sEqqk-22" value="" style="verticalLabelPosition=bottom;shadow=0;dashed=0;align=center;html=1;verticalAlign=top;shape=mxgraph.electrical.logic_gates.logic_gate;operation=and;" vertex="1" parent="1">
          <mxGeometry x="-550" y="-330" width="100" height="60" as="geometry" />
        </mxCell>
        <mxCell id="QZvfcPdy9IYKOWVkBBUl-25" value="&lt;span style=&quot;font-size: 32px&quot;&gt;X2&lt;br&gt;&lt;/span&gt;" style="text;html=1;strokeColor=none;fillColor=none;align=center;verticalAlign=middle;whiteSpace=wrap;rounded=0;" vertex="1" parent="1">
          <mxGeometry x="1315" y="1870" width="40" height="20" as="geometry" />
        </mxCell>
        <mxCell id="QZ_QbINjX_CT_F1sEqqk-23" value="" style="endArrow=none;html=1;exitX=1;exitY=0.5;exitDx=0;exitDy=0;exitPerimeter=0;entryX=0;entryY=0.75;entryDx=0;entryDy=0;entryPerimeter=0;" edge="1" parent="1" source="QZ_QbINjX_CT_F1sEqqk-9" target="QZ_QbINjX_CT_F1sEqqk-22">
          <mxGeometry width="50" height="50" relative="1" as="geometry">
            <mxPoint x="-620" y="-280" as="sourcePoint" />
            <mxPoint x="-570" y="-330" as="targetPoint" />
            <Array as="points">
              <mxPoint x="-580" y="-260" />
              <mxPoint x="-580" y="-285" />
            </Array>
          </mxGeometry>
        </mxCell>
        <mxCell id="Yv_38GfAKiieHnqcqw_q-12" value="ACUM" style="text;html=1;strokeColor=none;fillColor=none;align=center;verticalAlign=middle;whiteSpace=wrap;rounded=0;" vertex="1" parent="1">
          <mxGeometry x="150" y="2665" width="40" height="20" as="geometry" />
        </mxCell>
        <mxCell id="QZ_QbINjX_CT_F1sEqqk-24" value="" style="endArrow=none;html=1;entryX=0;entryY=0.25;entryDx=0;entryDy=0;entryPerimeter=0;" edge="1" parent="1" target="QZ_QbINjX_CT_F1sEqqk-22">
          <mxGeometry width="50" height="50" relative="1" as="geometry">
            <mxPoint x="-810" y="-480" as="sourcePoint" />
            <mxPoint x="-600" y="-320" as="targetPoint" />
            <Array as="points">
              <mxPoint x="-810" y="-315" />
            </Array>
          </mxGeometry>
        </mxCell>
        <mxCell id="QZvfcPdy9IYKOWVkBBUl-26" value="&lt;span style=&quot;font-size: 32px&quot;&gt;X3&lt;br&gt;&lt;/span&gt;" style="text;html=1;strokeColor=none;fillColor=none;align=center;verticalAlign=middle;whiteSpace=wrap;rounded=0;" vertex="1" parent="1">
          <mxGeometry x="1315" y="1970" width="40" height="20" as="geometry" />
        </mxCell>
        <mxCell id="QZ_QbINjX_CT_F1sEqqk-25" value="" style="endArrow=none;html=1;exitX=1;exitY=0.5;exitDx=0;exitDy=0;exitPerimeter=0;entryX=0.187;entryY=0.922;entryDx=0;entryDy=0;entryPerimeter=0;" edge="1" parent="1" source="QZ_QbINjX_CT_F1sEqqk-9" target="QZ_QbINjX_CT_F1sEqqk-17">
          <mxGeometry width="50" height="50" relative="1" as="geometry">
            <mxPoint x="-560" y="-170" as="sourcePoint" />
            <mxPoint x="-510" y="-220" as="targetPoint" />
            <Array as="points">
              <mxPoint x="-620" y="-366" />
            </Array>
          </mxGeometry>
        </mxCell>
        <mxCell id="Yv_38GfAKiieHnqcqw_q-21" style="edgeStyle=orthogonalEdgeStyle;rounded=0;orthogonalLoop=1;jettySize=auto;html=1;exitX=0;exitY=0.75;exitDx=0;exitDy=0;exitPerimeter=0;entryX=0.929;entryY=0.643;entryDx=0;entryDy=0;entryPerimeter=0;endArrow=none;endFill=0;" edge="1" parent="1" source="Yv_38GfAKiieHnqcqw_q-14" target="Yv_38GfAKiieHnqcqw_q-18">
          <mxGeometry relative="1" as="geometry" />
        </mxCell>
        <mxCell id="QZ_QbINjX_CT_F1sEqqk-26" value="" style="verticalLabelPosition=bottom;shadow=0;dashed=0;align=center;html=1;verticalAlign=top;shape=mxgraph.electrical.logic_gates.logic_gate;operation=or;" vertex="1" parent="1">
          <mxGeometry x="-370" y="-427" width="100" height="60" as="geometry" />
        </mxCell>
        <mxCell id="QZvfcPdy9IYKOWVkBBUl-27" value="&lt;span style=&quot;font-size: 32px&quot;&gt;LED&amp;nbsp; 7&lt;br&gt;&lt;/span&gt;" style="text;html=1;strokeColor=none;fillColor=none;align=center;verticalAlign=middle;whiteSpace=wrap;rounded=0;" vertex="1" parent="1">
          <mxGeometry x="1275" y="1610" width="100" height="20" as="geometry" />
        </mxCell>
        <mxCell id="QZ_QbINjX_CT_F1sEqqk-27" value="" style="endArrow=none;html=1;exitX=1;exitY=0.5;exitDx=0;exitDy=0;exitPerimeter=0;entryX=0;entryY=0.25;entryDx=0;entryDy=0;entryPerimeter=0;" edge="1" parent="1" source="QZ_QbINjX_CT_F1sEqqk-6" target="QZ_QbINjX_CT_F1sEqqk-26">
          <mxGeometry width="50" height="50" relative="1" as="geometry">
            <mxPoint x="-480" y="-460" as="sourcePoint" />
            <mxPoint x="-430" y="-510" as="targetPoint" />
            <Array as="points">
              <mxPoint x="-400" y="-464" />
              <mxPoint x="-400" y="-412" />
            </Array>
          </mxGeometry>
        </mxCell>
        <mxCell id="Yv_38GfAKiieHnqcqw_q-14" value="" style="verticalLabelPosition=bottom;shadow=0;dashed=0;align=center;html=1;verticalAlign=top;shape=mxgraph.electrical.logic_gates.logic_gate;operation=and;" vertex="1" parent="1">
          <mxGeometry x="380" y="2730" width="100" height="60" as="geometry" />
        </mxCell>
        <mxCell id="QZ_QbINjX_CT_F1sEqqk-28" value="" style="endArrow=none;html=1;exitX=1;exitY=0.5;exitDx=0;exitDy=0;exitPerimeter=0;entryX=0;entryY=0.75;entryDx=0;entryDy=0;entryPerimeter=0;" edge="1" parent="1" source="QZ_QbINjX_CT_F1sEqqk-22" target="QZ_QbINjX_CT_F1sEqqk-26">
          <mxGeometry width="50" height="50" relative="1" as="geometry">
            <mxPoint x="-400" y="-280" as="sourcePoint" />
            <mxPoint x="-350" y="-330" as="targetPoint" />
            <Array as="points">
              <mxPoint x="-400" y="-300" />
              <mxPoint x="-400" y="-382" />
            </Array>
          </mxGeometry>
        </mxCell>
        <mxCell id="QZvfcPdy9IYKOWVkBBUl-28" value="&lt;span style=&quot;font-size: 32px&quot;&gt;ACUM&lt;br&gt;&lt;/span&gt;" style="text;html=1;strokeColor=none;fillColor=none;align=center;verticalAlign=middle;whiteSpace=wrap;rounded=0;" vertex="1" parent="1">
          <mxGeometry x="1315" y="1690" width="40" height="20" as="geometry" />
        </mxCell>
        <mxCell id="QZ_QbINjX_CT_F1sEqqk-29" value="" style="endArrow=none;html=1;exitX=1;exitY=0.5;exitDx=0;exitDy=0;exitPerimeter=0;entryX=0.22;entryY=0.486;entryDx=0;entryDy=0;entryPerimeter=0;" edge="1" parent="1" source="QZ_QbINjX_CT_F1sEqqk-17" target="QZ_QbINjX_CT_F1sEqqk-26">
          <mxGeometry width="50" height="50" relative="1" as="geometry">
            <mxPoint x="-430" y="-360" as="sourcePoint" />
            <mxPoint x="-380" y="-410" as="targetPoint" />
          </mxGeometry>
        </mxCell>
        <mxCell id="Yv_38GfAKiieHnqcqw_q-18" value="X3" style="text;html=1;strokeColor=none;fillColor=none;align=center;verticalAlign=middle;whiteSpace=wrap;rounded=0;" vertex="1" parent="1">
          <mxGeometry x="160" y="2762" width="40" height="20" as="geometry" />
        </mxCell>
        <mxCell id="QZ_QbINjX_CT_F1sEqqk-30" value="L5" style="text;html=1;strokeColor=none;fillColor=none;align=center;verticalAlign=middle;whiteSpace=wrap;rounded=0;" vertex="1" parent="1">
          <mxGeometry x="-270" y="-407" width="40" height="20" as="geometry" />
        </mxCell>
        <mxCell id="QZvfcPdy9IYKOWVkBBUl-29" value="" style="endArrow=none;html=1;entryX=0;entryY=0.25;entryDx=0;entryDy=0;entryPerimeter=0;" edge="1" parent="1" target="QZvfcPdy9IYKOWVkBBUl-47">
          <mxGeometry width="50" height="50" relative="1" as="geometry">
            <mxPoint x="1405" y="1780" as="sourcePoint" />
            <mxPoint x="1710" y="1940" as="targetPoint" />
            <Array as="points">
              <mxPoint x="1485" y="1780" />
              <mxPoint x="1520" y="1780" />
              <mxPoint x="1600" y="1780" />
              <mxPoint x="1600" y="1939" />
            </Array>
          </mxGeometry>
        </mxCell>
        <mxCell id="Yv_38GfAKiieHnqcqw_q-22" style="edgeStyle=orthogonalEdgeStyle;rounded=0;orthogonalLoop=1;jettySize=auto;html=1;exitX=1;exitY=0.5;exitDx=0;exitDy=0;entryX=0.186;entryY=0.524;entryDx=0;entryDy=0;entryPerimeter=0;endArrow=none;endFill=0;" edge="1" parent="1" source="Yv_38GfAKiieHnqcqw_q-19" target="Yv_38GfAKiieHnqcqw_q-14">
          <mxGeometry relative="1" as="geometry" />
        </mxCell>
        <mxCell id="QZvfcPdy9IYKOWVkBBUl-30" value="" style="endArrow=none;html=1;entryX=0;entryY=0.75;entryDx=0;entryDy=0;entryPerimeter=0;" edge="1" parent="1" target="QZvfcPdy9IYKOWVkBBUl-39">
          <mxGeometry width="50" height="50" relative="1" as="geometry">
            <mxPoint x="1405" y="1881" as="sourcePoint" />
            <mxPoint x="1650" y="1878" as="targetPoint" />
          </mxGeometry>
        </mxCell>
        <mxCell id="Yv_38GfAKiieHnqcqw_q-19" value="X2" style="text;html=1;strokeColor=none;fillColor=none;align=center;verticalAlign=middle;whiteSpace=wrap;rounded=0;" vertex="1" parent="1">
          <mxGeometry x="160" y="2730" width="40" height="20" as="geometry" />
        </mxCell>
        <mxCell id="QZvfcPdy9IYKOWVkBBUl-31" value="" style="endArrow=none;html=1;entryX=0;entryY=0.75;entryDx=0;entryDy=0;entryPerimeter=0;" edge="1" parent="1" target="QZvfcPdy9IYKOWVkBBUl-37">
          <mxGeometry width="50" height="50" relative="1" as="geometry">
            <mxPoint x="1405" y="1980" as="sourcePoint" />
            <mxPoint x="1900" y="2190" as="targetPoint" />
            <Array as="points">
              <mxPoint x="1515" y="1980" />
              <mxPoint x="1515" y="2160" />
            </Array>
          </mxGeometry>
        </mxCell>
        <mxCell id="Yv_38GfAKiieHnqcqw_q-23" value="L2" style="text;html=1;strokeColor=none;fillColor=none;align=center;verticalAlign=middle;whiteSpace=wrap;rounded=0;" vertex="1" parent="1">
          <mxGeometry x="480" y="2750" width="40" height="20" as="geometry" />
        </mxCell>
        <mxCell id="Yv_38GfAKiieHnqcqw_q-41" style="edgeStyle=orthogonalEdgeStyle;rounded=0;orthogonalLoop=1;jettySize=auto;html=1;exitX=1;exitY=0.5;exitDx=0;exitDy=0;entryX=0;entryY=0.25;entryDx=0;entryDy=0;entryPerimeter=0;endArrow=none;endFill=0;" edge="1" parent="1" source="Yv_38GfAKiieHnqcqw_q-24" target="Yv_38GfAKiieHnqcqw_q-33">
          <mxGeometry relative="1" as="geometry">
            <Array as="points">
              <mxPoint x="330" y="2960" />
              <mxPoint x="330" y="3002" />
            </Array>
          </mxGeometry>
        </mxCell>
        <mxCell id="QZvfcPdy9IYKOWVkBBUl-32" value="" style="endArrow=none;html=1;entryX=0;entryY=0.25;entryDx=0;entryDy=0;entryPerimeter=0;" edge="1" parent="1" target="QZvfcPdy9IYKOWVkBBUl-37">
          <mxGeometry width="50" height="50" relative="1" as="geometry">
            <mxPoint x="1405" y="1699.7600000000002" as="sourcePoint" />
            <mxPoint x="1960" y="2120" as="targetPoint" />
            <Array as="points">
              <mxPoint x="1550" y="1700" />
              <mxPoint x="1550" y="1780" />
              <mxPoint x="1550" y="2120" />
            </Array>
          </mxGeometry>
        </mxCell>
        <mxCell id="Yv_38GfAKiieHnqcqw_q-24" value="X1" style="text;html=1;strokeColor=none;fillColor=none;align=center;verticalAlign=middle;whiteSpace=wrap;rounded=0;" vertex="1" parent="1">
          <mxGeometry x="155" y="2950" width="40" height="20" as="geometry" />
        </mxCell>
        <mxCell id="QZvfcPdy9IYKOWVkBBUl-37" value="" style="verticalLabelPosition=bottom;shadow=0;dashed=0;align=center;html=1;verticalAlign=top;shape=mxgraph.electrical.logic_gates.logic_gate;operation=and;" vertex="1" parent="1">
          <mxGeometry x="1600" y="2100" width="130" height="80" as="geometry" />
        </mxCell>
        <mxCell id="Yv_38GfAKiieHnqcqw_q-25" value="ACUM" style="text;html=1;strokeColor=none;fillColor=none;align=center;verticalAlign=middle;whiteSpace=wrap;rounded=0;" vertex="1" parent="1">
          <mxGeometry x="150" y="2885" width="40" height="20" as="geometry" />
        </mxCell>
        <mxCell id="QZvfcPdy9IYKOWVkBBUl-38" value="" style="endArrow=none;html=1;entryX=0;entryY=0.25;entryDx=0;entryDy=0;entryPerimeter=0;" edge="1" parent="1" target="QZvfcPdy9IYKOWVkBBUl-39">
          <mxGeometry width="50" height="50" relative="1" as="geometry">
            <mxPoint x="1460" y="1700" as="sourcePoint" />
            <mxPoint x="1650" y="1840" as="targetPoint" />
            <Array as="points">
              <mxPoint x="1650" y="1700" />
              <mxPoint x="1650" y="1844" />
            </Array>
          </mxGeometry>
        </mxCell>
        <mxCell id="Yv_38GfAKiieHnqcqw_q-48" style="edgeStyle=orthogonalEdgeStyle;rounded=0;orthogonalLoop=1;jettySize=auto;html=1;exitX=1;exitY=0.5;exitDx=0;exitDy=0;entryX=0;entryY=0.75;entryDx=0;entryDy=0;entryPerimeter=0;endArrow=none;endFill=0;" edge="1" parent="1" source="Yv_38GfAKiieHnqcqw_q-26" target="Yv_38GfAKiieHnqcqw_q-28">
          <mxGeometry relative="1" as="geometry">
            <Array as="points">
              <mxPoint x="350" y="3032" />
              <mxPoint x="350" y="2925" />
            </Array>
          </mxGeometry>
        </mxCell>
        <mxCell id="QZvfcPdy9IYKOWVkBBUl-39" value="" style="verticalLabelPosition=bottom;shadow=0;dashed=0;align=center;html=1;verticalAlign=top;shape=mxgraph.electrical.logic_gates.logic_gate;operation=and;" vertex="1" parent="1">
          <mxGeometry x="1690" y="1825" width="100" height="75" as="geometry" />
        </mxCell>
        <mxCell id="Yv_38GfAKiieHnqcqw_q-26" value="X3" style="text;html=1;strokeColor=none;fillColor=none;align=center;verticalAlign=middle;whiteSpace=wrap;rounded=0;" vertex="1" parent="1">
          <mxGeometry x="155" y="3022" width="40" height="20" as="geometry" />
        </mxCell>
        <mxCell id="QZvfcPdy9IYKOWVkBBUl-41" value="" style="endArrow=none;html=1;exitX=0;exitY=0.5;exitDx=0;exitDy=0;exitPerimeter=0;" edge="1" parent="1" source="QZvfcPdy9IYKOWVkBBUl-46">
          <mxGeometry width="50" height="50" relative="1" as="geometry">
            <mxPoint x="1570" y="2010" as="sourcePoint" />
            <mxPoint x="1570" y="1880" as="targetPoint" />
            <Array as="points">
              <mxPoint x="1570" y="1990" />
            </Array>
          </mxGeometry>
        </mxCell>
        <mxCell id="Yv_38GfAKiieHnqcqw_q-47" style="edgeStyle=orthogonalEdgeStyle;rounded=0;orthogonalLoop=1;jettySize=auto;html=1;exitX=1;exitY=0.5;exitDx=0;exitDy=0;entryX=0.195;entryY=0.476;entryDx=0;entryDy=0;entryPerimeter=0;endArrow=none;endFill=0;" edge="1" parent="1" source="Yv_38GfAKiieHnqcqw_q-27" target="Yv_38GfAKiieHnqcqw_q-28">
          <mxGeometry relative="1" as="geometry">
            <Array as="points">
              <mxPoint x="230" y="2997" />
              <mxPoint x="230" y="2909" />
            </Array>
          </mxGeometry>
        </mxCell>
        <mxCell id="QZvfcPdy9IYKOWVkBBUl-42" value="" style="endArrow=none;html=1;" edge="1" parent="1">
          <mxGeometry width="50" height="50" relative="1" as="geometry">
            <mxPoint x="1510" y="2060" as="sourcePoint" />
            <mxPoint x="1610" y="2060" as="targetPoint" />
          </mxGeometry>
        </mxCell>
        <mxCell id="Yv_38GfAKiieHnqcqw_q-27" value="X2" style="text;html=1;strokeColor=none;fillColor=none;align=center;verticalAlign=middle;whiteSpace=wrap;rounded=0;" vertex="1" parent="1">
          <mxGeometry x="155" y="2987" width="40" height="20" as="geometry" />
        </mxCell>
        <mxCell id="QZvfcPdy9IYKOWVkBBUl-44" value="" style="verticalLabelPosition=bottom;shadow=0;dashed=0;align=center;html=1;verticalAlign=top;shape=mxgraph.electrical.logic_gates.inverter_2" vertex="1" parent="1">
          <mxGeometry x="1610" y="2030" width="100" height="60" as="geometry" />
        </mxCell>
        <mxCell id="Yv_38GfAKiieHnqcqw_q-40" style="edgeStyle=orthogonalEdgeStyle;rounded=0;orthogonalLoop=1;jettySize=auto;html=1;exitX=0;exitY=0.25;exitDx=0;exitDy=0;exitPerimeter=0;entryX=1;entryY=0.5;entryDx=0;entryDy=0;endArrow=none;endFill=0;" edge="1" parent="1" source="Yv_38GfAKiieHnqcqw_q-28" target="Yv_38GfAKiieHnqcqw_q-25">
          <mxGeometry relative="1" as="geometry" />
        </mxCell>
        <mxCell id="QZvfcPdy9IYKOWVkBBUl-46" value="" style="verticalLabelPosition=bottom;shadow=0;dashed=0;align=center;html=1;verticalAlign=top;shape=mxgraph.electrical.logic_gates.inverter_2" vertex="1" parent="1">
          <mxGeometry x="1610" y="1960" width="100" height="60" as="geometry" />
        </mxCell>
        <mxCell id="Yv_38GfAKiieHnqcqw_q-50" style="edgeStyle=orthogonalEdgeStyle;rounded=0;orthogonalLoop=1;jettySize=auto;html=1;exitX=1;exitY=0.5;exitDx=0;exitDy=0;exitPerimeter=0;entryX=0;entryY=0.25;entryDx=0;entryDy=0;entryPerimeter=0;endArrow=none;endFill=0;" edge="1" parent="1" source="Yv_38GfAKiieHnqcqw_q-28" target="Yv_38GfAKiieHnqcqw_q-49">
          <mxGeometry relative="1" as="geometry" />
        </mxCell>
        <mxCell id="QZvfcPdy9IYKOWVkBBUl-47" value="" style="verticalLabelPosition=bottom;shadow=0;dashed=0;align=center;html=1;verticalAlign=top;shape=mxgraph.electrical.logic_gates.logic_gate;operation=and;" vertex="1" parent="1">
          <mxGeometry x="1740" y="1897.5" width="280" height="165" as="geometry" />
        </mxCell>
        <mxCell id="Yv_38GfAKiieHnqcqw_q-28" value="" style="verticalLabelPosition=bottom;shadow=0;dashed=0;align=center;html=1;verticalAlign=top;shape=mxgraph.electrical.logic_gates.logic_gate;operation=and;" vertex="1" parent="1">
          <mxGeometry x="370" y="2880" width="100" height="60" as="geometry" />
        </mxCell>
        <mxCell id="QZvfcPdy9IYKOWVkBBUl-48" value="" style="endArrow=none;html=1;exitX=1;exitY=0.5;exitDx=0;exitDy=0;exitPerimeter=0;entryX=0.196;entryY=0.556;entryDx=0;entryDy=0;entryPerimeter=0;" edge="1" parent="1" source="QZvfcPdy9IYKOWVkBBUl-46" target="QZvfcPdy9IYKOWVkBBUl-47">
          <mxGeometry width="50" height="50" relative="1" as="geometry">
            <mxPoint x="1690" y="2050" as="sourcePoint" />
            <mxPoint x="1800" y="1988" as="targetPoint" />
          </mxGeometry>
        </mxCell>
        <mxCell id="Yv_38GfAKiieHnqcqw_q-44" style="edgeStyle=orthogonalEdgeStyle;rounded=0;orthogonalLoop=1;jettySize=auto;html=1;exitX=0;exitY=0.75;exitDx=0;exitDy=0;exitPerimeter=0;entryX=1;entryY=0.5;entryDx=0;entryDy=0;endArrow=none;endFill=0;" edge="1" parent="1" source="Yv_38GfAKiieHnqcqw_q-33" target="Yv_38GfAKiieHnqcqw_q-26">
          <mxGeometry relative="1" as="geometry" />
        </mxCell>
        <mxCell id="QZvfcPdy9IYKOWVkBBUl-49" value="" style="endArrow=none;html=1;entryX=0;entryY=0.75;entryDx=0;entryDy=0;entryPerimeter=0;exitX=1;exitY=0.5;exitDx=0;exitDy=0;exitPerimeter=0;" edge="1" parent="1" source="QZvfcPdy9IYKOWVkBBUl-44" target="QZvfcPdy9IYKOWVkBBUl-47">
          <mxGeometry width="50" height="50" relative="1" as="geometry">
            <mxPoint x="1750" y="2090" as="sourcePoint" />
            <mxPoint x="1800" y="2040" as="targetPoint" />
            <Array as="points">
              <mxPoint x="1740" y="2060" />
            </Array>
          </mxGeometry>
        </mxCell>
        <mxCell id="Yv_38GfAKiieHnqcqw_q-51" style="edgeStyle=orthogonalEdgeStyle;rounded=0;orthogonalLoop=1;jettySize=auto;html=1;exitX=1;exitY=0.5;exitDx=0;exitDy=0;exitPerimeter=0;entryX=0;entryY=0.75;entryDx=0;entryDy=0;entryPerimeter=0;endArrow=none;endFill=0;" edge="1" parent="1" source="Yv_38GfAKiieHnqcqw_q-33" target="Yv_38GfAKiieHnqcqw_q-49">
          <mxGeometry relative="1" as="geometry" />
        </mxCell>
        <mxCell id="QZvfcPdy9IYKOWVkBBUl-50" value="" style="verticalLabelPosition=bottom;shadow=0;dashed=0;align=center;html=1;verticalAlign=top;shape=mxgraph.electrical.logic_gates.logic_gate;operation=or;" vertex="1" parent="1">
          <mxGeometry x="1990" y="1820" width="460" height="310" as="geometry" />
        </mxCell>
        <mxCell id="Yv_38GfAKiieHnqcqw_q-33" value="" style="verticalLabelPosition=bottom;shadow=0;dashed=0;align=center;html=1;verticalAlign=top;shape=mxgraph.electrical.logic_gates.logic_gate;operation=and;" vertex="1" parent="1">
          <mxGeometry x="370" y="2987" width="100" height="60" as="geometry" />
        </mxCell>
        <mxCell id="QZvfcPdy9IYKOWVkBBUl-52" value="" style="endArrow=none;html=1;" edge="1" parent="1">
          <mxGeometry width="50" height="50" relative="1" as="geometry">
            <mxPoint x="2020" y="1980" as="sourcePoint" />
            <mxPoint x="2090.344827586207" y="1980" as="targetPoint" />
          </mxGeometry>
        </mxCell>
        <mxCell id="Yv_38GfAKiieHnqcqw_q-38" style="edgeStyle=orthogonalEdgeStyle;rounded=0;orthogonalLoop=1;jettySize=auto;html=1;exitX=0;exitY=0.5;exitDx=0;exitDy=0;exitPerimeter=0;entryX=1;entryY=0.5;entryDx=0;entryDy=0;endArrow=none;endFill=0;" edge="1" parent="1" source="Yv_38GfAKiieHnqcqw_q-36" target="Yv_38GfAKiieHnqcqw_q-27">
          <mxGeometry relative="1" as="geometry" />
        </mxCell>
        <mxCell id="QZvfcPdy9IYKOWVkBBUl-53" value="" style="endArrow=none;html=1;entryX=0;entryY=0.75;entryDx=0;entryDy=0;entryPerimeter=0;exitX=1;exitY=0.5;exitDx=0;exitDy=0;exitPerimeter=0;" edge="1" parent="1" source="QZvfcPdy9IYKOWVkBBUl-37" target="QZvfcPdy9IYKOWVkBBUl-50">
          <mxGeometry width="50" height="50" relative="1" as="geometry">
            <mxPoint x="1850" y="2050" as="sourcePoint" />
            <mxPoint x="1900" y="2000" as="targetPoint" />
            <Array as="points">
              <mxPoint x="1990" y="2140" />
            </Array>
          </mxGeometry>
        </mxCell>
        <mxCell id="Yv_38GfAKiieHnqcqw_q-46" style="edgeStyle=orthogonalEdgeStyle;rounded=0;orthogonalLoop=1;jettySize=auto;html=1;exitX=1;exitY=0.5;exitDx=0;exitDy=0;exitPerimeter=0;entryX=0.2;entryY=0.518;entryDx=0;entryDy=0;entryPerimeter=0;endArrow=none;endFill=0;" edge="1" parent="1" source="Yv_38GfAKiieHnqcqw_q-36" target="Yv_38GfAKiieHnqcqw_q-33">
          <mxGeometry relative="1" as="geometry">
            <Array as="points">
              <mxPoint x="310" y="2997" />
              <mxPoint x="310" y="3018" />
            </Array>
          </mxGeometry>
        </mxCell>
        <mxCell id="QZvfcPdy9IYKOWVkBBUl-54" value="" style="endArrow=none;html=1;entryX=0;entryY=0.25;entryDx=0;entryDy=0;entryPerimeter=0;exitX=1;exitY=0.5;exitDx=0;exitDy=0;exitPerimeter=0;" edge="1" parent="1" source="QZvfcPdy9IYKOWVkBBUl-39" target="QZvfcPdy9IYKOWVkBBUl-50">
          <mxGeometry width="50" height="50" relative="1" as="geometry">
            <mxPoint x="1920" y="1960" as="sourcePoint" />
            <mxPoint x="1970" y="1910" as="targetPoint" />
            <Array as="points">
              <mxPoint x="1990" y="1863" />
            </Array>
          </mxGeometry>
        </mxCell>
        <mxCell id="Yv_38GfAKiieHnqcqw_q-36" value="" style="verticalLabelPosition=bottom;shadow=0;dashed=0;align=center;html=1;verticalAlign=top;shape=mxgraph.electrical.logic_gates.inverter_2" vertex="1" parent="1">
          <mxGeometry x="260" y="2985" width="40" height="24" as="geometry" />
        </mxCell>
        <mxCell id="QZvfcPdy9IYKOWVkBBUl-55" value="&lt;span style=&quot;font-size: 32px&quot;&gt;L7&lt;br&gt;&lt;/span&gt;" style="text;html=1;strokeColor=none;fillColor=none;align=center;verticalAlign=middle;whiteSpace=wrap;rounded=0;" vertex="1" parent="1">
          <mxGeometry x="2480" y="1965" width="100" height="20" as="geometry" />
        </mxCell>
        <mxCell id="QZ_QbINjX_CT_F1sEqqk-33" value="X2" style="text;html=1;strokeColor=none;fillColor=none;align=center;verticalAlign=middle;whiteSpace=wrap;rounded=0;" vertex="1" parent="1">
          <mxGeometry x="-890" y="160" width="40" height="20" as="geometry" />
        </mxCell>
        <mxCell id="QZvfcPdy9IYKOWVkBBUl-56" value="&lt;span style=&quot;font-size: 32px&quot;&gt;X1&lt;br&gt;&lt;/span&gt;" style="text;html=1;strokeColor=none;fillColor=none;align=center;verticalAlign=middle;whiteSpace=wrap;rounded=0;" vertex="1" parent="1">
          <mxGeometry x="2970" y="1735" width="40" height="20" as="geometry" />
        </mxCell>
        <mxCell id="QZ_QbINjX_CT_F1sEqqk-34" value="X1" style="text;html=1;strokeColor=none;fillColor=none;align=center;verticalAlign=middle;whiteSpace=wrap;rounded=0;" vertex="1" parent="1">
          <mxGeometry x="-890" y="40" width="40" height="20" as="geometry" />
        </mxCell>
        <mxCell id="Yv_38GfAKiieHnqcqw_q-49" value="" style="verticalLabelPosition=bottom;shadow=0;dashed=0;align=center;html=1;verticalAlign=top;shape=mxgraph.electrical.logic_gates.logic_gate;operation=or;" vertex="1" parent="1">
          <mxGeometry x="540" y="2940" width="100" height="60" as="geometry" />
        </mxCell>
        <mxCell id="QZ_QbINjX_CT_F1sEqqk-38" value="ACUM" style="text;html=1;strokeColor=none;fillColor=none;align=center;verticalAlign=middle;whiteSpace=wrap;rounded=0;" vertex="1" parent="1">
          <mxGeometry x="-890" y="-106" width="40" height="20" as="geometry" />
        </mxCell>
        <mxCell id="QZvfcPdy9IYKOWVkBBUl-57" value="&lt;span style=&quot;font-size: 32px&quot;&gt;X2&lt;br&gt;&lt;/span&gt;" style="text;html=1;strokeColor=none;fillColor=none;align=center;verticalAlign=middle;whiteSpace=wrap;rounded=0;" vertex="1" parent="1">
          <mxGeometry x="2970" y="1835" width="40" height="20" as="geometry" />
        </mxCell>
        <mxCell id="QZ_QbINjX_CT_F1sEqqk-39" value="X3" style="text;html=1;strokeColor=none;fillColor=none;align=center;verticalAlign=middle;whiteSpace=wrap;rounded=0;" vertex="1" parent="1">
          <mxGeometry x="-890" y="-75" width="40" height="20" as="geometry" />
        </mxCell>
        <mxCell id="Yv_38GfAKiieHnqcqw_q-52" value="L3" style="text;html=1;strokeColor=none;fillColor=none;align=center;verticalAlign=middle;whiteSpace=wrap;rounded=0;" vertex="1" parent="1">
          <mxGeometry x="645" y="2960" width="40" height="20" as="geometry" />
        </mxCell>
        <mxCell id="QZ_QbINjX_CT_F1sEqqk-40" value="" style="verticalLabelPosition=bottom;shadow=0;dashed=0;align=center;html=1;verticalAlign=top;shape=mxgraph.electrical.logic_gates.logic_gate;operation=and;" vertex="1" parent="1">
          <mxGeometry x="-670" y="-110" width="100" height="60" as="geometry" />
        </mxCell>
        <mxCell id="Yv_38GfAKiieHnqcqw_q-57" value="X1" style="text;html=1;strokeColor=none;fillColor=none;align=center;verticalAlign=middle;whiteSpace=wrap;rounded=0;" vertex="1" parent="1">
          <mxGeometry x="155" y="3178" width="40" height="20" as="geometry" />
        </mxCell>
        <mxCell id="QZ_QbINjX_CT_F1sEqqk-41" value="" style="endArrow=none;html=1;entryX=0;entryY=0.25;entryDx=0;entryDy=0;entryPerimeter=0;exitX=1;exitY=0.5;exitDx=0;exitDy=0;" edge="1" parent="1" source="QZ_QbINjX_CT_F1sEqqk-38" target="QZ_QbINjX_CT_F1sEqqk-40">
          <mxGeometry width="50" height="50" relative="1" as="geometry">
            <mxPoint x="-800" y="24" as="sourcePoint" />
            <mxPoint x="-750" y="-26" as="targetPoint" />
          </mxGeometry>
        </mxCell>
        <mxCell id="QZvfcPdy9IYKOWVkBBUl-58" value="&lt;span style=&quot;font-size: 32px&quot;&gt;X3&lt;br&gt;&lt;/span&gt;" style="text;html=1;strokeColor=none;fillColor=none;align=center;verticalAlign=middle;whiteSpace=wrap;rounded=0;" vertex="1" parent="1">
          <mxGeometry x="2970" y="1935" width="40" height="20" as="geometry" />
        </mxCell>
        <mxCell id="QZ_QbINjX_CT_F1sEqqk-42" value="" style="endArrow=none;html=1;exitX=1;exitY=0.5;exitDx=0;exitDy=0;entryX=0;entryY=0.75;entryDx=0;entryDy=0;entryPerimeter=0;" edge="1" parent="1" source="QZ_QbINjX_CT_F1sEqqk-39" target="QZ_QbINjX_CT_F1sEqqk-40">
          <mxGeometry width="50" height="50" relative="1" as="geometry">
            <mxPoint x="-810" y="14" as="sourcePoint" />
            <mxPoint x="-760" y="-36" as="targetPoint" />
          </mxGeometry>
        </mxCell>
        <mxCell id="Yv_38GfAKiieHnqcqw_q-70" style="edgeStyle=orthogonalEdgeStyle;rounded=0;orthogonalLoop=1;jettySize=auto;html=1;exitX=1;exitY=0.5;exitDx=0;exitDy=0;entryX=0;entryY=0.25;entryDx=0;entryDy=0;entryPerimeter=0;endArrow=none;endFill=0;" edge="1" parent="1" source="Yv_38GfAKiieHnqcqw_q-58" target="Yv_38GfAKiieHnqcqw_q-68">
          <mxGeometry relative="1" as="geometry" />
        </mxCell>
        <mxCell id="QZ_QbINjX_CT_F1sEqqk-43" value="" style="verticalLabelPosition=bottom;shadow=0;dashed=0;align=center;html=1;verticalAlign=top;shape=mxgraph.electrical.logic_gates.logic_gate;operation=and;" vertex="1" parent="1">
          <mxGeometry x="-670" y="125" width="100" height="60" as="geometry" />
        </mxCell>
        <mxCell id="QZvfcPdy9IYKOWVkBBUl-59" value="&lt;span style=&quot;font-size: 32px&quot;&gt;LED 6&lt;br&gt;&lt;/span&gt;" style="text;html=1;strokeColor=none;fillColor=none;align=center;verticalAlign=middle;whiteSpace=wrap;rounded=0;" vertex="1" parent="1">
          <mxGeometry x="2930" y="1575" width="100" height="20" as="geometry" />
        </mxCell>
        <mxCell id="QZ_QbINjX_CT_F1sEqqk-44" value="" style="endArrow=none;html=1;entryX=0;entryY=0.25;entryDx=0;entryDy=0;entryPerimeter=0;" edge="1" parent="1" target="QZ_QbINjX_CT_F1sEqqk-43">
          <mxGeometry width="50" height="50" relative="1" as="geometry">
            <mxPoint x="-800" y="-96" as="sourcePoint" />
            <mxPoint x="-660" y="59" as="targetPoint" />
            <Array as="points">
              <mxPoint x="-800" y="140" />
            </Array>
          </mxGeometry>
        </mxCell>
        <mxCell id="Yv_38GfAKiieHnqcqw_q-58" value="ACUM" style="text;html=1;strokeColor=none;fillColor=none;align=center;verticalAlign=middle;whiteSpace=wrap;rounded=0;" vertex="1" parent="1">
          <mxGeometry x="150" y="3143" width="40" height="20" as="geometry" />
        </mxCell>
        <mxCell id="QZ_QbINjX_CT_F1sEqqk-45" value="" style="endArrow=none;html=1;exitX=1;exitY=0.5;exitDx=0;exitDy=0;entryX=0;entryY=0.75;entryDx=0;entryDy=0;entryPerimeter=0;" edge="1" parent="1" source="QZ_QbINjX_CT_F1sEqqk-33" target="QZ_QbINjX_CT_F1sEqqk-43">
          <mxGeometry width="50" height="50" relative="1" as="geometry">
            <mxPoint x="-770" y="50" as="sourcePoint" />
            <mxPoint x="-590" y="50" as="targetPoint" />
          </mxGeometry>
        </mxCell>
        <mxCell id="QZvfcPdy9IYKOWVkBBUl-60" value="&lt;span style=&quot;font-size: 32px&quot;&gt;ACUM&lt;br&gt;&lt;/span&gt;" style="text;html=1;strokeColor=none;fillColor=none;align=center;verticalAlign=middle;whiteSpace=wrap;rounded=0;" vertex="1" parent="1">
          <mxGeometry x="2970" y="1655" width="40" height="20" as="geometry" />
        </mxCell>
        <mxCell id="QZ_QbINjX_CT_F1sEqqk-47" value="" style="verticalLabelPosition=bottom;shadow=0;dashed=0;align=center;html=1;verticalAlign=top;shape=mxgraph.electrical.logic_gates.logic_gate;operation=and;" vertex="1" parent="1">
          <mxGeometry x="-670" y="-10" width="100" height="80" as="geometry" />
        </mxCell>
        <mxCell id="Yv_38GfAKiieHnqcqw_q-59" value="X3" style="text;html=1;strokeColor=none;fillColor=none;align=center;verticalAlign=middle;whiteSpace=wrap;rounded=0;" vertex="1" parent="1">
          <mxGeometry x="155" y="3238" width="40" height="20" as="geometry" />
        </mxCell>
        <mxCell id="QZ_QbINjX_CT_F1sEqqk-49" value="" style="verticalLabelPosition=bottom;shadow=0;dashed=0;align=center;html=1;verticalAlign=top;shape=mxgraph.electrical.logic_gates.inverter_2" vertex="1" parent="1">
          <mxGeometry x="-760" y="35" width="40" height="30" as="geometry" />
        </mxCell>
        <mxCell id="QZvfcPdy9IYKOWVkBBUl-61" value="" style="endArrow=none;html=1;entryX=0;entryY=0.5;entryDx=0;entryDy=0;entryPerimeter=0;" edge="1" parent="1" target="QZvfcPdy9IYKOWVkBBUl-71">
          <mxGeometry width="50" height="50" relative="1" as="geometry">
            <mxPoint x="3060" y="1745" as="sourcePoint" />
            <mxPoint x="3365" y="1905" as="targetPoint" />
            <Array as="points">
              <mxPoint x="3140" y="1745" />
              <mxPoint x="3140" y="1765" />
              <mxPoint x="3255" y="1765" />
              <mxPoint x="3255" y="1904" />
            </Array>
          </mxGeometry>
        </mxCell>
        <mxCell id="QZ_QbINjX_CT_F1sEqqk-50" value="" style="endArrow=none;html=1;exitX=1;exitY=0.5;exitDx=0;exitDy=0;entryX=0;entryY=0.75;entryDx=0;entryDy=0;entryPerimeter=0;exitPerimeter=0;" edge="1" parent="1" source="QZ_QbINjX_CT_F1sEqqk-49" target="QZ_QbINjX_CT_F1sEqqk-47">
          <mxGeometry width="50" height="50" relative="1" as="geometry">
            <mxPoint x="-760" y="-20" as="sourcePoint" />
            <mxPoint x="-580" y="-20" as="targetPoint" />
          </mxGeometry>
        </mxCell>
        <mxCell id="Yv_38GfAKiieHnqcqw_q-60" value="X2" style="text;html=1;strokeColor=none;fillColor=none;align=center;verticalAlign=middle;whiteSpace=wrap;rounded=0;" vertex="1" parent="1">
          <mxGeometry x="155" y="3207" width="40" height="20" as="geometry" />
        </mxCell>
        <mxCell id="QZ_QbINjX_CT_F1sEqqk-51" value="" style="endArrow=none;html=1;exitX=1;exitY=0.5;exitDx=0;exitDy=0;entryX=0;entryY=0.5;entryDx=0;entryDy=0;entryPerimeter=0;" edge="1" parent="1" source="QZ_QbINjX_CT_F1sEqqk-34" target="QZ_QbINjX_CT_F1sEqqk-49">
          <mxGeometry width="50" height="50" relative="1" as="geometry">
            <mxPoint x="-760" y="-30" as="sourcePoint" />
            <mxPoint x="-580" y="-30" as="targetPoint" />
          </mxGeometry>
        </mxCell>
        <mxCell id="QZvfcPdy9IYKOWVkBBUl-62" value="" style="endArrow=none;html=1;entryX=0;entryY=0.75;entryDx=0;entryDy=0;entryPerimeter=0;" edge="1" parent="1" target="QZvfcPdy9IYKOWVkBBUl-67">
          <mxGeometry width="50" height="50" relative="1" as="geometry">
            <mxPoint x="3060" y="1846" as="sourcePoint" />
            <mxPoint x="3305" y="1843" as="targetPoint" />
          </mxGeometry>
        </mxCell>
        <mxCell id="QZ_QbINjX_CT_F1sEqqk-52" value="" style="verticalLabelPosition=bottom;shadow=0;dashed=0;align=center;html=1;verticalAlign=top;shape=mxgraph.electrical.logic_gates.inverter_2" vertex="1" parent="1">
          <mxGeometry x="-760" y="-5" width="40" height="30" as="geometry" />
        </mxCell>
        <mxCell id="Yv_38GfAKiieHnqcqw_q-66" style="edgeStyle=orthogonalEdgeStyle;rounded=0;orthogonalLoop=1;jettySize=auto;html=1;exitX=0;exitY=0.25;exitDx=0;exitDy=0;exitPerimeter=0;entryX=1;entryY=0.5;entryDx=0;entryDy=0;endArrow=none;endFill=0;" edge="1" parent="1" source="Yv_38GfAKiieHnqcqw_q-63" target="Yv_38GfAKiieHnqcqw_q-57">
          <mxGeometry relative="1" as="geometry" />
        </mxCell>
        <mxCell id="QZ_QbINjX_CT_F1sEqqk-53" value="" style="endArrow=none;html=1;exitX=1;exitY=0.5;exitDx=0;exitDy=0;entryX=0;entryY=0.25;entryDx=0;entryDy=0;entryPerimeter=0;exitPerimeter=0;" edge="1" parent="1" source="QZ_QbINjX_CT_F1sEqqk-52" target="QZ_QbINjX_CT_F1sEqqk-47">
          <mxGeometry width="50" height="50" relative="1" as="geometry">
            <mxPoint x="-690" y="-40" as="sourcePoint" />
            <mxPoint x="-640" y="-40" as="targetPoint" />
          </mxGeometry>
        </mxCell>
        <mxCell id="QZvfcPdy9IYKOWVkBBUl-63" value="" style="endArrow=none;html=1;entryX=0;entryY=0.75;entryDx=0;entryDy=0;entryPerimeter=0;" edge="1" parent="1" target="QZvfcPdy9IYKOWVkBBUl-65">
          <mxGeometry width="50" height="50" relative="1" as="geometry">
            <mxPoint x="3060" y="1945" as="sourcePoint" />
            <mxPoint x="3555" y="2155" as="targetPoint" />
            <Array as="points">
              <mxPoint x="3170" y="1945" />
              <mxPoint x="3170" y="2125" />
            </Array>
          </mxGeometry>
        </mxCell>
        <mxCell id="QZ_QbINjX_CT_F1sEqqk-54" value="" style="endArrow=none;html=1;entryX=0;entryY=0.5;entryDx=0;entryDy=0;entryPerimeter=0;" edge="1" parent="1" target="QZ_QbINjX_CT_F1sEqqk-52">
          <mxGeometry width="50" height="50" relative="1" as="geometry">
            <mxPoint x="-800" y="10" as="sourcePoint" />
            <mxPoint x="-730" y="-50" as="targetPoint" />
          </mxGeometry>
        </mxCell>
        <mxCell id="Yv_38GfAKiieHnqcqw_q-67" style="edgeStyle=orthogonalEdgeStyle;rounded=0;orthogonalLoop=1;jettySize=auto;html=1;exitX=0;exitY=0.75;exitDx=0;exitDy=0;exitPerimeter=0;entryX=1;entryY=0.5;entryDx=0;entryDy=0;endArrow=none;endFill=0;" edge="1" parent="1" source="Yv_38GfAKiieHnqcqw_q-63" target="Yv_38GfAKiieHnqcqw_q-60">
          <mxGeometry relative="1" as="geometry" />
        </mxCell>
        <mxCell id="QZ_QbINjX_CT_F1sEqqk-57" value="" style="verticalLabelPosition=bottom;shadow=0;dashed=0;align=center;html=1;verticalAlign=top;shape=mxgraph.electrical.logic_gates.inverter_2" vertex="1" parent="1">
          <mxGeometry x="-760" y="-50" width="40" height="30" as="geometry" />
        </mxCell>
        <mxCell id="QZvfcPdy9IYKOWVkBBUl-64" value="" style="endArrow=none;html=1;entryX=0;entryY=0.25;entryDx=0;entryDy=0;entryPerimeter=0;" edge="1" parent="1" target="QZvfcPdy9IYKOWVkBBUl-65">
          <mxGeometry width="50" height="50" relative="1" as="geometry">
            <mxPoint x="3060" y="1664.7600000000002" as="sourcePoint" />
            <mxPoint x="3615" y="2085" as="targetPoint" />
            <Array as="points">
              <mxPoint x="3205" y="1665" />
              <mxPoint x="3205" y="1745" />
              <mxPoint x="3205" y="2085" />
            </Array>
          </mxGeometry>
        </mxCell>
        <mxCell id="QZ_QbINjX_CT_F1sEqqk-58" value="" style="endArrow=none;html=1;entryX=0;entryY=0.5;entryDx=0;entryDy=0;entryPerimeter=0;" edge="1" parent="1" target="QZ_QbINjX_CT_F1sEqqk-57">
          <mxGeometry width="50" height="50" relative="1" as="geometry">
            <mxPoint x="-780" y="-65" as="sourcePoint" />
            <mxPoint x="-760" y="-40" as="targetPoint" />
            <Array as="points">
              <mxPoint x="-780" y="-35" />
            </Array>
          </mxGeometry>
        </mxCell>
        <mxCell id="Yv_38GfAKiieHnqcqw_q-63" value="" style="verticalLabelPosition=bottom;shadow=0;dashed=0;align=center;html=1;verticalAlign=top;shape=mxgraph.electrical.logic_gates.logic_gate;operation=or;negating=1;negSize=0.15;" vertex="1" parent="1">
          <mxGeometry x="230" y="3172" width="100" height="60" as="geometry" />
        </mxCell>
        <mxCell id="QZ_QbINjX_CT_F1sEqqk-59" value="" style="endArrow=none;html=1;entryX=0.195;entryY=0.079;entryDx=0;entryDy=0;entryPerimeter=0;exitX=1;exitY=0.5;exitDx=0;exitDy=0;exitPerimeter=0;" edge="1" parent="1" source="QZ_QbINjX_CT_F1sEqqk-57" target="QZ_QbINjX_CT_F1sEqqk-47">
          <mxGeometry width="50" height="50" relative="1" as="geometry">
            <mxPoint x="-670" y="-30" as="sourcePoint" />
            <mxPoint x="-630" y="-30" as="targetPoint" />
            <Array as="points">
              <mxPoint x="-690" y="-35" />
              <mxPoint x="-690" y="-4" />
            </Array>
          </mxGeometry>
        </mxCell>
        <mxCell id="QZvfcPdy9IYKOWVkBBUl-65" value="" style="verticalLabelPosition=bottom;shadow=0;dashed=0;align=center;html=1;verticalAlign=top;shape=mxgraph.electrical.logic_gates.logic_gate;operation=and;" vertex="1" parent="1">
          <mxGeometry x="3255" y="2065" width="130" height="80" as="geometry" />
        </mxCell>
        <mxCell id="QZ_QbINjX_CT_F1sEqqk-60" value="" style="endArrow=none;html=1;entryX=0.203;entryY=0.86;entryDx=0;entryDy=0;entryPerimeter=0;" edge="1" parent="1" target="QZ_QbINjX_CT_F1sEqqk-47">
          <mxGeometry width="50" height="50" relative="1" as="geometry">
            <mxPoint x="-710" y="170" as="sourcePoint" />
            <mxPoint x="-660" y="100" as="targetPoint" />
            <Array as="points">
              <mxPoint x="-710" y="59" />
            </Array>
          </mxGeometry>
        </mxCell>
        <mxCell id="Yv_38GfAKiieHnqcqw_q-69" style="edgeStyle=orthogonalEdgeStyle;rounded=0;orthogonalLoop=1;jettySize=auto;html=1;exitX=0;exitY=0.75;exitDx=0;exitDy=0;exitPerimeter=0;entryX=1;entryY=0.5;entryDx=0;entryDy=0;entryPerimeter=0;endArrow=none;endFill=0;" edge="1" parent="1" source="Yv_38GfAKiieHnqcqw_q-68" target="Yv_38GfAKiieHnqcqw_q-63">
          <mxGeometry relative="1" as="geometry" />
        </mxCell>
        <mxCell id="QZ_QbINjX_CT_F1sEqqk-61" value="" style="verticalLabelPosition=bottom;shadow=0;dashed=0;align=center;html=1;verticalAlign=top;shape=mxgraph.electrical.logic_gates.logic_gate;operation=or;" vertex="1" parent="1">
          <mxGeometry x="-490" width="100" height="60" as="geometry" />
        </mxCell>
        <mxCell id="QZvfcPdy9IYKOWVkBBUl-66" value="" style="endArrow=none;html=1;entryX=0;entryY=0.25;entryDx=0;entryDy=0;entryPerimeter=0;" edge="1" parent="1" target="QZvfcPdy9IYKOWVkBBUl-67">
          <mxGeometry width="50" height="50" relative="1" as="geometry">
            <mxPoint x="3115" y="1665" as="sourcePoint" />
            <mxPoint x="3305" y="1805" as="targetPoint" />
            <Array as="points">
              <mxPoint x="3305" y="1665" />
              <mxPoint x="3305" y="1809" />
            </Array>
          </mxGeometry>
        </mxCell>
        <mxCell id="QZ_QbINjX_CT_F1sEqqk-62" value="" style="endArrow=none;html=1;exitX=1;exitY=0.5;exitDx=0;exitDy=0;exitPerimeter=0;" edge="1" parent="1" source="QZ_QbINjX_CT_F1sEqqk-47">
          <mxGeometry width="50" height="50" relative="1" as="geometry">
            <mxPoint x="-517" y="30" as="sourcePoint" />
            <mxPoint x="-467" y="30" as="targetPoint" />
          </mxGeometry>
        </mxCell>
        <mxCell id="Yv_38GfAKiieHnqcqw_q-72" style="edgeStyle=orthogonalEdgeStyle;rounded=0;orthogonalLoop=1;jettySize=auto;html=1;exitX=1;exitY=0.5;exitDx=0;exitDy=0;exitPerimeter=0;entryX=0;entryY=0.25;entryDx=0;entryDy=0;entryPerimeter=0;endArrow=none;endFill=0;" edge="1" parent="1" source="Yv_38GfAKiieHnqcqw_q-68" target="Yv_38GfAKiieHnqcqw_q-71">
          <mxGeometry relative="1" as="geometry" />
        </mxCell>
        <mxCell id="QZ_QbINjX_CT_F1sEqqk-63" value="" style="endArrow=none;html=1;entryX=0;entryY=0.25;entryDx=0;entryDy=0;entryPerimeter=0;exitX=1;exitY=0.5;exitDx=0;exitDy=0;exitPerimeter=0;" edge="1" parent="1" source="QZ_QbINjX_CT_F1sEqqk-40" target="QZ_QbINjX_CT_F1sEqqk-61">
          <mxGeometry width="50" height="50" relative="1" as="geometry">
            <mxPoint x="-510" y="-40" as="sourcePoint" />
            <mxPoint x="-470" y="-40" as="targetPoint" />
            <Array as="points">
              <mxPoint x="-520" y="-80" />
              <mxPoint x="-520" y="15" />
            </Array>
          </mxGeometry>
        </mxCell>
        <mxCell id="QZvfcPdy9IYKOWVkBBUl-67" value="" style="verticalLabelPosition=bottom;shadow=0;dashed=0;align=center;html=1;verticalAlign=top;shape=mxgraph.electrical.logic_gates.logic_gate;operation=and;" vertex="1" parent="1">
          <mxGeometry x="3345" y="1790" width="100" height="75" as="geometry" />
        </mxCell>
        <mxCell id="QZ_QbINjX_CT_F1sEqqk-64" value="" style="endArrow=none;html=1;entryX=0;entryY=0.75;entryDx=0;entryDy=0;entryPerimeter=0;exitX=1;exitY=0.5;exitDx=0;exitDy=0;exitPerimeter=0;" edge="1" parent="1" source="QZ_QbINjX_CT_F1sEqqk-43" target="QZ_QbINjX_CT_F1sEqqk-61">
          <mxGeometry width="50" height="50" relative="1" as="geometry">
            <mxPoint x="-530" y="150" as="sourcePoint" />
            <mxPoint x="-490" y="150" as="targetPoint" />
            <Array as="points">
              <mxPoint x="-520" y="155" />
              <mxPoint x="-520" y="45" />
            </Array>
          </mxGeometry>
        </mxCell>
        <mxCell id="Yv_38GfAKiieHnqcqw_q-68" value="" style="verticalLabelPosition=bottom;shadow=0;dashed=0;align=center;html=1;verticalAlign=top;shape=mxgraph.electrical.logic_gates.logic_gate;operation=or;" vertex="1" parent="1">
          <mxGeometry x="370" y="3138" width="100" height="60" as="geometry" />
        </mxCell>
        <mxCell id="QZ_QbINjX_CT_F1sEqqk-65" value="L6" style="text;html=1;strokeColor=none;fillColor=none;align=center;verticalAlign=middle;whiteSpace=wrap;rounded=0;" vertex="1" parent="1">
          <mxGeometry x="-390" y="20" width="40" height="20" as="geometry" />
        </mxCell>
        <mxCell id="QZvfcPdy9IYKOWVkBBUl-68" value="" style="endArrow=none;html=1;exitX=0.196;exitY=0.563;exitDx=0;exitDy=0;exitPerimeter=0;" edge="1" parent="1" source="QZvfcPdy9IYKOWVkBBUl-72">
          <mxGeometry width="50" height="50" relative="1" as="geometry">
            <mxPoint x="3225" y="1975" as="sourcePoint" />
            <mxPoint x="3225" y="1845" as="targetPoint" />
            <Array as="points">
              <mxPoint x="3225" y="1955" />
            </Array>
          </mxGeometry>
        </mxCell>
        <mxCell id="Yv_38GfAKiieHnqcqw_q-73" style="edgeStyle=orthogonalEdgeStyle;rounded=0;orthogonalLoop=1;jettySize=auto;html=1;exitX=0;exitY=0.75;exitDx=0;exitDy=0;exitPerimeter=0;entryX=1;entryY=0.5;entryDx=0;entryDy=0;endArrow=none;endFill=0;" edge="1" parent="1" source="Yv_38GfAKiieHnqcqw_q-71" target="Yv_38GfAKiieHnqcqw_q-59">
          <mxGeometry relative="1" as="geometry" />
        </mxCell>
        <mxCell id="QZvfcPdy9IYKOWVkBBUl-69" value="" style="endArrow=none;html=1;" edge="1" parent="1">
          <mxGeometry width="50" height="50" relative="1" as="geometry">
            <mxPoint x="3165" y="2025" as="sourcePoint" />
            <mxPoint x="3265" y="2025" as="targetPoint" />
          </mxGeometry>
        </mxCell>
        <mxCell id="Yv_38GfAKiieHnqcqw_q-71" value="" style="verticalLabelPosition=bottom;shadow=0;dashed=0;align=center;html=1;verticalAlign=top;shape=mxgraph.electrical.logic_gates.logic_gate;operation=and;" vertex="1" parent="1">
          <mxGeometry x="520" y="3203" width="100" height="60" as="geometry" />
        </mxCell>
        <mxCell id="QZvfcPdy9IYKOWVkBBUl-70" value="" style="verticalLabelPosition=bottom;shadow=0;dashed=0;align=center;html=1;verticalAlign=top;shape=mxgraph.electrical.logic_gates.inverter_2" vertex="1" parent="1">
          <mxGeometry x="3265" y="1995" width="100" height="60" as="geometry" />
        </mxCell>
        <mxCell id="Yv_38GfAKiieHnqcqw_q-74" value="L4" style="text;html=1;strokeColor=none;fillColor=none;align=center;verticalAlign=middle;whiteSpace=wrap;rounded=0;" vertex="1" parent="1">
          <mxGeometry x="625" y="3223" width="40" height="20" as="geometry" />
        </mxCell>
        <mxCell id="QZvfcPdy9IYKOWVkBBUl-84" style="edgeStyle=orthogonalEdgeStyle;rounded=0;orthogonalLoop=1;jettySize=auto;html=1;entryX=0;entryY=0.25;entryDx=0;entryDy=0;entryPerimeter=0;startArrow=none;startFill=0;endArrow=none;endFill=0;" edge="1" parent="1" source="QZvfcPdy9IYKOWVkBBUl-71" target="QZvfcPdy9IYKOWVkBBUl-72">
          <mxGeometry relative="1" as="geometry" />
        </mxCell>
        <mxCell id="QZvfcPdy9IYKOWVkBBUl-71" value="" style="verticalLabelPosition=bottom;shadow=0;dashed=0;align=center;html=1;verticalAlign=top;shape=mxgraph.electrical.logic_gates.inverter_2" vertex="1" parent="1">
          <mxGeometry x="3275" y="1875" width="90" height="60" as="geometry" />
        </mxCell>
        <mxCell id="QZvfcPdy9IYKOWVkBBUl-72" value="" style="verticalLabelPosition=bottom;shadow=0;dashed=0;align=center;html=1;verticalAlign=top;shape=mxgraph.electrical.logic_gates.logic_gate;operation=and;" vertex="1" parent="1">
          <mxGeometry x="3395" y="1862.5" width="280" height="165" as="geometry" />
        </mxCell>
        <mxCell id="QZvfcPdy9IYKOWVkBBUl-74" value="" style="endArrow=none;html=1;entryX=0;entryY=0.75;entryDx=0;entryDy=0;entryPerimeter=0;exitX=1;exitY=0.5;exitDx=0;exitDy=0;exitPerimeter=0;" edge="1" parent="1" source="QZvfcPdy9IYKOWVkBBUl-70" target="QZvfcPdy9IYKOWVkBBUl-72">
          <mxGeometry width="50" height="50" relative="1" as="geometry">
            <mxPoint x="3405" y="2055" as="sourcePoint" />
            <mxPoint x="3455" y="2005" as="targetPoint" />
            <Array as="points">
              <mxPoint x="3395" y="2025" />
            </Array>
          </mxGeometry>
        </mxCell>
        <mxCell id="QZvfcPdy9IYKOWVkBBUl-75" value="" style="verticalLabelPosition=bottom;shadow=0;dashed=0;align=center;html=1;verticalAlign=top;shape=mxgraph.electrical.logic_gates.logic_gate;operation=or;" vertex="1" parent="1">
          <mxGeometry x="3645" y="1785" width="460" height="310" as="geometry" />
        </mxCell>
        <mxCell id="QZvfcPdy9IYKOWVkBBUl-76" value="" style="endArrow=none;html=1;" edge="1" parent="1">
          <mxGeometry width="50" height="50" relative="1" as="geometry">
            <mxPoint x="3675" y="1945" as="sourcePoint" />
            <mxPoint x="3745.3448275862065" y="1945" as="targetPoint" />
          </mxGeometry>
        </mxCell>
        <mxCell id="QZvfcPdy9IYKOWVkBBUl-77" value="" style="endArrow=none;html=1;entryX=0;entryY=0.75;entryDx=0;entryDy=0;entryPerimeter=0;exitX=1;exitY=0.5;exitDx=0;exitDy=0;exitPerimeter=0;" edge="1" parent="1" source="QZvfcPdy9IYKOWVkBBUl-65" target="QZvfcPdy9IYKOWVkBBUl-75">
          <mxGeometry width="50" height="50" relative="1" as="geometry">
            <mxPoint x="3505" y="2015" as="sourcePoint" />
            <mxPoint x="3555" y="1965" as="targetPoint" />
            <Array as="points">
              <mxPoint x="3645" y="2105" />
            </Array>
          </mxGeometry>
        </mxCell>
        <mxCell id="QZvfcPdy9IYKOWVkBBUl-78" value="" style="endArrow=none;html=1;entryX=0;entryY=0.25;entryDx=0;entryDy=0;entryPerimeter=0;exitX=1;exitY=0.5;exitDx=0;exitDy=0;exitPerimeter=0;" edge="1" parent="1" source="QZvfcPdy9IYKOWVkBBUl-67" target="QZvfcPdy9IYKOWVkBBUl-75">
          <mxGeometry width="50" height="50" relative="1" as="geometry">
            <mxPoint x="3575" y="1925" as="sourcePoint" />
            <mxPoint x="3625" y="1875" as="targetPoint" />
            <Array as="points">
              <mxPoint x="3645" y="1828" />
            </Array>
          </mxGeometry>
        </mxCell>
        <mxCell id="QZvfcPdy9IYKOWVkBBUl-79" value="&lt;span style=&quot;font-size: 32px&quot;&gt;L6&lt;br&gt;&lt;/span&gt;" style="text;html=1;strokeColor=none;fillColor=none;align=center;verticalAlign=middle;whiteSpace=wrap;rounded=0;" vertex="1" parent="1">
          <mxGeometry x="4135" y="1930" width="100" height="20" as="geometry" />
        </mxCell>
        <mxCell id="QZvfcPdy9IYKOWVkBBUl-85" value="" style="endArrow=none;html=1;exitX=0;exitY=0.5;exitDx=0;exitDy=0;exitPerimeter=0;" edge="1" parent="1" source="QZvfcPdy9IYKOWVkBBUl-86">
          <mxGeometry width="50" height="50" relative="1" as="geometry">
            <mxPoint x="3080" y="1900" as="sourcePoint" />
            <mxPoint x="3080" y="1660" as="targetPoint" />
            <Array as="points">
              <mxPoint x="3080" y="1905" />
            </Array>
          </mxGeometry>
        </mxCell>
        <mxCell id="QZvfcPdy9IYKOWVkBBUl-86" value="" style="verticalLabelPosition=bottom;shadow=0;dashed=0;align=center;html=1;verticalAlign=top;shape=mxgraph.electrical.logic_gates.inverter_2" vertex="1" parent="1">
          <mxGeometry x="3090" y="1875" width="100" height="60" as="geometry" />
        </mxCell>
        <mxCell id="QZvfcPdy9IYKOWVkBBUl-87" value="" style="endArrow=none;html=1;exitX=1;exitY=0.5;exitDx=0;exitDy=0;exitPerimeter=0;" edge="1" parent="1" source="QZvfcPdy9IYKOWVkBBUl-86">
          <mxGeometry width="50" height="50" relative="1" as="geometry">
            <mxPoint x="3240" y="1930" as="sourcePoint" />
            <mxPoint x="3190" y="1940" as="targetPoint" />
          </mxGeometry>
        </mxCell>
        <mxCell id="QZvfcPdy9IYKOWVkBBUl-88" value="" style="endArrow=none;html=1;entryX=0.196;entryY=0.47;entryDx=0;entryDy=0;entryPerimeter=0;" edge="1" parent="1" target="QZvfcPdy9IYKOWVkBBUl-72">
          <mxGeometry width="50" height="50" relative="1" as="geometry">
            <mxPoint x="3190" y="1940" as="sourcePoint" />
            <mxPoint x="3310" y="1960" as="targetPoint" />
          </mxGeometry>
        </mxCell>
      </root>
    </mxGraphModel>
  </diagram>
</mxfile>
